<?xml version="1.0" standalone="no"?>
<!DOCTYPE svg PUBLIC "-//W3C//DTD SVG 1.1//EN" "http://www.w3.org/Graphics/SVG/1.1/DTD/svg11.dtd" >
<svg xmlns="http://www.w3.org/2000/svg" xmlns:xlink="http://www.w3.org/1999/xlink" version="1.1">
<metadata>
Created by FontForge 20150715 at Tue Sep 29 18:09:29 2015
 By Jimmy Wärting
Copyright (c) 2013, Natanael Gama (www.ndiscovered.com . info(at)ndiscovered.com), with Reserved Font Name Exo. This Font Software is licensed under the SIL Open Font License, Version 1.1.
</metadata>
<defs>
<font id="Exo2-LightCondensed" horiz-adv-x="537" >
  <font-face 
    font-family="Exo 2 Light Condensed"
    font-weight="300"
    font-stretch="condensed"
    units-per-em="1000"
    panose-1="0 0 4 6 0 0 0 0 0 0"
    ascent="800"
    descent="-200"
    x-height="484"
    cap-height="690"
    bbox="-140 -270 977 929"
    underline-thickness="50"
    underline-position="-100"
    stemh="64"
    stemv="48"
    unicode-range="U+0020-FB02"
  />
<missing-glyph horiz-adv-x="483" 
 />
    <glyph glyph-name="f_f" unicode="ff" horiz-adv-x="568" 
d="M574 663h-81c-53 0 -71 -25 -71 -92v-87h127v-50h-127v-434h-64v434h-200v-434h-64v434h-71v45l71 5v77c0 90 35 140 113 140c22 0 70 -2 97 -6l-4 -47h-71c-53 0 -71 -22 -71 -93v-71h200v93c0 89 29 139 112 139c25 0 78 -2 109 -6z" />
    <glyph glyph-name="f_f_i" unicode="ffi" horiz-adv-x="742" 
d="M675 484v-484h-64v433h-195v-433h-64v433l-199 1v-434h-65v434h-65v45l65 4v78c0 90 36 140 113 140c23 0 71 -2 99 -6l-5 -47h-71c-53 0 -71 -22 -71 -93v-71h199v86c0 94 30 146 113 146c24 0 68 -2 96 -6v-47h-73c-53 0 -72 -26 -72 -99v-80h259zM628 688h29
c13 0 20 -7 20 -21v-58c0 -14 -7 -21 -20 -21h-29c-14 0 -21 7 -21 21v58c0 14 7 21 21 21z" />
    <glyph glyph-name="f_f_l" unicode="ffl" horiz-adv-x="799" 
d="M783 43l8 -41c-15 -6 -52 -10 -70 -10c-58 0 -95 40 -95 110v561h-133c-53 1 -71 -25 -71 -99v-80h121v-50h-121v-434h-64v434h-200v-434h-64v434h-71v45l71 5v77c0 90 35 140 113 140c22 0 70 -2 97 -6l-4 -47h-71c-53 0 -71 -22 -71 -93v-71h200v86
c0 94 29 146 112 146c40 0 168 -2 220 -10v-592c0 -46 20 -71 53 -71h40z" />
    <glyph glyph-name="fi" unicode="fi" horiz-adv-x="483" 
d="M416 484v-484h-63v433h-195v-433h-64v433h-71v46l71 5v86c0 94 30 146 113 146c22 0 64 -2 90 -6v-47h-68c-53 0 -71 -26 -71 -99v-80h258zM369 688h30c13 0 20 -7 20 -21v-58c0 -14 -7 -21 -20 -21h-30c-13 0 -20 7 -20 21v58c0 14 7 21 20 21z" />
    <glyph glyph-name="fl" unicode="fl" horiz-adv-x="534" 
d="M520 43l7 -41c-15 -6 -51 -10 -70 -10c-58 0 -95 40 -95 110v561h-133c-53 1 -71 -25 -71 -99v-80h119v-51h-119v-433h-64v433h-71v46l71 5v86c0 94 30 146 113 146c40 0 167 -2 220 -10v-592c0 -46 18 -71 53 -71h40z" />
    <glyph glyph-name=".notdef" horiz-adv-x="483" 
 />
    <glyph glyph-name="A" unicode="A" horiz-adv-x="499" 
d="M364 228h-229l-58 -228h-68l180 671c3 12 13 19 25 19h71c12 0 21 -7 24 -19l181 -671h-68zM349 285l-75 297c-5 19 -10 38 -14 56h-21c-4 -18 -9 -37 -14 -56l-76 -297h200z" />
    <glyph glyph-name="Aacute" unicode="&#xc1;" horiz-adv-x="499" 
d="M222 731l-23 30l137 146l37 -48zM364 228h-229l-58 -228h-68l180 671c3 12 13 19 25 19h71c12 0 21 -7 24 -19l181 -671h-68zM349 285l-75 297c-5 19 -10 38 -14 56h-21c-4 -18 -9 -37 -14 -56l-76 -297h200z" />
    <glyph glyph-name="Abreve" unicode="&#x102;" horiz-adv-x="499" 
d="M250 749c-77 0 -124 50 -120 125l33 6c0 -52 31 -82 87 -82c54 0 86 30 86 82l33 -6c3 -75 -43 -125 -119 -125zM364 228h-229l-58 -228h-68l180 671c3 12 13 19 25 19h71c12 0 21 -7 24 -19l181 -671h-68zM349 285l-75 297c-5 19 -10 38 -14 56h-21
c-4 -18 -9 -37 -14 -56l-76 -297h200z" />
    <glyph glyph-name="Acircumflex" unicode="&#xc2;" horiz-adv-x="499" 
d="M142 739l-21 28l106 124h47l106 -124l-23 -28l-104 99h-6zM364 228h-229l-58 -228h-68l180 671c3 12 13 19 25 19h71c12 0 21 -7 24 -19l181 -671h-68zM349 285l-75 297c-5 19 -10 38 -14 56h-21c-4 -18 -9 -37 -14 -56l-76 -297h200z" />
    <glyph glyph-name="Adieresis" unicode="&#xc4;" horiz-adv-x="499" 
d="M189 771h-22c-12 0 -17 6 -17 19v55c0 12 5 20 17 20h22c12 0 18 -8 18 -20v-55c0 -13 -6 -19 -18 -19zM331 771h-21c-13 0 -18 6 -18 19v55c0 12 5 20 18 20h21c12 0 19 -8 19 -20v-55c0 -13 -7 -19 -19 -19zM364 228h-229l-58 -228h-68l180 671c3 12 13 19 25 19h71
c12 0 21 -7 24 -19l181 -671h-68zM349 285l-75 297c-5 19 -10 38 -14 56h-21c-4 -18 -9 -37 -14 -56l-76 -297h200z" />
    <glyph glyph-name="Agrave" unicode="&#xc0;" horiz-adv-x="499" 
d="M267 731l-151 128l37 48l137 -146zM364 228h-229l-58 -228h-68l180 671c3 12 13 19 25 19h71c12 0 21 -7 24 -19l181 -671h-68zM349 285l-75 297c-5 19 -10 38 -14 56h-21c-4 -18 -9 -37 -14 -56l-76 -297h200z" />
    <glyph glyph-name="Amacron" unicode="&#x100;" horiz-adv-x="499" 
d="M362 793h-224v49h224v-49zM364 228h-229l-58 -228h-68l180 671c3 12 13 19 25 19h71c12 0 21 -7 24 -19l181 -671h-68zM349 285l-75 297c-5 19 -10 38 -14 56h-21c-4 -18 -9 -37 -14 -56l-76 -297h200z" />
    <glyph glyph-name="Aogonek" unicode="&#x104;" horiz-adv-x="499" 
d="M494 -166l8 -28c-100 -50 -137 6 -118 74c10 34 31 75 75 120h-37l-58 228h-229l-58 -228h-68l180 671c3 12 13 19 25 19h71c12 0 21 -7 24 -19l181 -671c-24 -35 -46 -71 -60 -118c-17 -54 12 -71 64 -48zM349 285l-75 297c-5 19 -10 38 -14 56h-21
c-4 -18 -9 -37 -14 -56l-76 -297h200z" />
    <glyph glyph-name="Aring" unicode="&#xc5;" horiz-adv-x="499" 
d="M250 716c-47 0 -85 44 -85 101s39 102 85 102c47 0 86 -45 86 -102s-38 -101 -86 -101zM250 884c-28 0 -49 -28 -49 -67c0 -40 22 -66 49 -66c28 0 49 26 49 66c0 39 -21 67 -49 67zM364 228h-229l-58 -228h-68l180 671c3 12 13 19 25 19h71c12 0 21 -7 24 -19l181 -671
h-68zM349 285l-75 297c-5 19 -10 38 -14 56h-21c-4 -18 -9 -37 -14 -56l-76 -297h200z" />
    <glyph glyph-name="Atilde" unicode="&#xc3;" horiz-adv-x="499" 
d="M154 770h-30c-7 73 23 109 62 105c50 -5 74 -54 120 -60c30 -4 39 14 39 55h31c6 -69 -22 -106 -63 -102c-54 5 -80 55 -120 61c-30 4 -39 -16 -39 -59zM364 228h-229l-58 -228h-68l180 671c3 12 13 19 25 19h71c12 0 21 -7 24 -19l181 -671h-68zM349 285l-75 297
c-5 19 -10 38 -14 56h-21c-4 -18 -9 -37 -14 -56l-76 -297h200z" />
    <glyph glyph-name="AE" unicode="&#xc6;" horiz-adv-x="734" 
d="M689 55l4 -50c-77 -6 -156 -6 -236 -6c-54 0 -91 48 -91 114v129h-184l-112 -242h-71l281 590c39 82 83 100 177 100c100 0 166 -1 236 -5l-4 -51h-206c-33 0 -55 -29 -55 -74v-166l230 -1v-53l-230 -1v-211c0 -47 18 -73 55 -73h206zM366 297v271c0 29 12 62 26 74h-7
c-14 -10 -32 -32 -48 -66l-129 -279h158z" />
    <glyph glyph-name="B" unicode="B" horiz-adv-x="499" 
d="M340 360v-4c83 -9 110 -74 110 -184c0 -142 -48 -180 -176 -180c-93 0 -140 1 -202 8v690c55 7 96 8 177 8c137 0 185 -38 185 -180c0 -99 -28 -150 -94 -158zM370 511c0 106 -32 131 -123 131c-44 0 -81 0 -110 -1v-258h121c83 1 112 26 112 128zM264 48
c90 0 120 25 120 133c0 118 -32 149 -125 151h-122v-283c33 -1 77 -1 127 -1z" />
    <glyph glyph-name="C" unicode="C" horiz-adv-x="462" 
d="M267 702c70 0 105 -5 150 -19l-7 -49c-48 7 -79 9 -143 9c-110 0 -147 -74 -147 -298s37 -298 147 -298c68 0 110 3 154 11l8 -49c-47 -15 -89 -21 -162 -21c-160 0 -216 94 -216 357s56 357 216 357z" />
    <glyph glyph-name="Cacute" unicode="&#x106;" horiz-adv-x="462" 
d="M383 859l-151 -128l-23 30l137 146zM267 702c70 0 105 -5 150 -19l-7 -49c-48 7 -79 9 -143 9c-110 0 -147 -74 -147 -298s37 -298 147 -298c68 0 110 3 154 11l8 -49c-47 -15 -89 -21 -162 -21c-160 0 -216 94 -216 357s56 357 216 357z" />
    <glyph glyph-name="Ccaron" unicode="&#x10c;" horiz-adv-x="462" 
d="M391 870l-115 -123h-30l-114 123l21 28l105 -92h6l105 92zM267 702c70 0 105 -5 150 -19l-7 -49c-48 7 -79 9 -143 9c-110 0 -147 -74 -147 -298s37 -298 147 -298c68 0 110 3 154 11l8 -49c-47 -15 -89 -21 -162 -21c-160 0 -216 94 -216 357s56 357 216 357z" />
    <glyph glyph-name="Ccedilla" unicode="&#xc7;" horiz-adv-x="462" 
d="M267 702c70 0 105 -5 150 -19l-7 -49c-48 7 -79 9 -143 9c-110 0 -147 -74 -147 -298s37 -298 147 -298c68 0 110 3 154 11l8 -49c-47 -15 -89 -21 -162 -21c-160 0 -216 94 -216 357s56 357 216 357zM222 -88l6 31c61 6 89 -9 88 -65c-2 -79 -57 -128 -133 -116l10 35
c45 -2 75 32 76 77c1 28 -9 37 -47 38z" />
    <glyph glyph-name="Cdotaccent" unicode="&#x10a;" horiz-adv-x="462" 
d="M251 865h21c12 0 19 -7 19 -21v-59c0 -13 -7 -20 -19 -20h-21c-13 0 -20 7 -20 20v59c0 14 7 21 20 21zM267 702c70 0 105 -5 150 -19l-7 -49c-48 7 -79 9 -143 9c-110 0 -147 -74 -147 -298s37 -298 147 -298c68 0 110 3 154 11l8 -49c-47 -15 -89 -21 -162 -21
c-160 0 -216 94 -216 357s56 357 216 357z" />
    <glyph glyph-name="D" unicode="D" horiz-adv-x="535" 
d="M268 699c158 0 216 -90 216 -354s-58 -354 -216 -354c-75 0 -139 4 -196 9v690c57 5 120 9 196 9zM268 49c109 0 146 75 146 296s-37 297 -146 297c-50 0 -91 -1 -130 -2v-589c37 -1 81 -2 130 -2z" />
    <glyph glyph-name="Eth" unicode="&#xd0;" horiz-adv-x="538" 
d="M272 699c158 0 216 -90 216 -354s-58 -354 -216 -354c-75 0 -139 4 -196 9v349h-57v39h57v302c57 5 120 9 196 9zM272 49c109 0 146 75 146 296s-37 297 -146 297c-50 0 -91 -1 -130 -2v-252h123v-39h-123v-298c37 -1 81 -2 130 -2z" />
    <glyph glyph-name="Dcaron" unicode="&#x10e;" horiz-adv-x="535" 
d="M256 747l-114 123l21 28l105 -92h6l105 92l22 -28l-115 -123h-30zM268 699c158 0 216 -90 216 -354s-58 -354 -216 -354c-75 0 -139 4 -196 9v690c57 5 120 9 196 9zM268 49c109 0 146 75 146 296s-37 297 -146 297c-50 0 -91 -1 -130 -2v-589c37 -1 81 -2 130 -2z" />
    <glyph glyph-name="Dcroat" unicode="&#x110;" horiz-adv-x="538" 
d="M272 699c158 0 216 -90 216 -354s-58 -354 -216 -354c-75 0 -139 4 -196 9v349h-57v39h57v302c57 5 120 9 196 9zM272 49c109 0 146 75 146 296s-37 297 -146 297c-50 0 -91 -1 -130 -2v-252h123v-39h-123v-298c37 -1 81 -2 130 -2z" />
    <glyph glyph-name="E" unicode="E" horiz-adv-x="451" 
d="M406 55l3 -50c-74 -6 -158 -6 -238 -6c-64 0 -104 45 -104 114v464c0 69 41 114 104 114c80 0 164 0 238 -6l-3 -50h-224c-33 0 -49 -25 -49 -73v-169h242v-53h-242v-213c0 -47 16 -72 49 -72h224z" />
    <glyph glyph-name="Eacute" unicode="&#xc9;" horiz-adv-x="451" 
d="M226 753l-23 30l137 146l37 -48zM406 55l3 -50c-74 -6 -158 -6 -238 -6c-64 0 -104 45 -104 114v464c0 69 41 114 104 114c80 0 164 0 238 -6l-3 -50h-224c-33 0 -49 -25 -49 -73v-169h242v-53h-242v-213c0 -47 16 -72 49 -72h224z" />
    <glyph glyph-name="Ecaron" unicode="&#x11a;" horiz-adv-x="451" 
d="M240 769l-114 123l21 28l105 -92h6l105 92l22 -28l-115 -123h-30zM406 55l3 -50c-74 -6 -158 -6 -238 -6c-64 0 -104 45 -104 114v464c0 69 41 114 104 114c80 0 164 0 238 -6l-3 -50h-224c-33 0 -49 -25 -49 -73v-169h242v-53h-242v-213c0 -47 16 -72 49 -72h224z" />
    <glyph glyph-name="Ecircumflex" unicode="&#xca;" horiz-adv-x="451" 
d="M146 761l-21 28l106 124h47l106 -124l-23 -28l-104 99h-6zM406 55l3 -50c-74 -6 -158 -6 -238 -6c-64 0 -104 45 -104 114v464c0 69 41 114 104 114c80 0 164 0 238 -6l-3 -50h-224c-33 0 -49 -25 -49 -73v-169h242v-53h-242v-213c0 -47 16 -72 49 -72h224z" />
    <glyph glyph-name="Edieresis" unicode="&#xcb;" horiz-adv-x="451" 
d="M194 793h-22c-12 0 -17 6 -17 19v55c0 12 5 20 17 20h22c12 0 18 -8 18 -20v-55c0 -13 -6 -19 -18 -19zM336 793h-21c-13 0 -18 6 -18 19v55c0 12 5 20 18 20h21c12 0 19 -8 19 -20v-55c0 -13 -7 -19 -19 -19zM406 55l3 -50c-74 -6 -158 -6 -238 -6
c-64 0 -104 45 -104 114v464c0 69 41 114 104 114c80 0 164 0 238 -6l-3 -50h-224c-33 0 -49 -25 -49 -73v-169h242v-53h-242v-213c0 -47 16 -72 49 -72h224z" />
    <glyph glyph-name="Edotaccent" unicode="&#x116;" horiz-adv-x="451" 
d="M266 787h-21c-13 0 -20 7 -20 20v59c0 14 7 21 20 21h21c12 0 19 -7 19 -21v-59c0 -13 -7 -20 -19 -20zM406 55l3 -50c-74 -6 -158 -6 -238 -6c-64 0 -104 45 -104 114v464c0 69 41 114 104 114c80 0 164 0 238 -6l-3 -50h-224c-33 0 -49 -25 -49 -73v-169h242v-53h-242
v-213c0 -47 16 -72 49 -72h224z" />
    <glyph glyph-name="Egrave" unicode="&#xc8;" horiz-adv-x="451" 
d="M272 753l-151 128l37 48l137 -146zM406 55l3 -50c-74 -6 -158 -6 -238 -6c-64 0 -104 45 -104 114v464c0 69 41 114 104 114c80 0 164 0 238 -6l-3 -50h-224c-33 0 -49 -25 -49 -73v-169h242v-53h-242v-213c0 -47 16 -72 49 -72h224z" />
    <glyph glyph-name="Emacron" unicode="&#x112;" horiz-adv-x="451" 
d="M367 815h-224v49h224v-49zM406 55l3 -50c-74 -6 -158 -6 -238 -6c-64 0 -104 45 -104 114v464c0 69 41 114 104 114c80 0 164 0 238 -6l-3 -50h-224c-33 0 -49 -25 -49 -73v-169h242v-53h-242v-213c0 -47 16 -72 49 -72h224z" />
    <glyph glyph-name="Eogonek" unicode="&#x118;" horiz-adv-x="451" 
d="M413 -161l8 -28c-100 -50 -137 6 -118 74c10 33 31 73 73 118c-66 -4 -137 -4 -205 -4c-64 0 -104 45 -104 114v464c0 69 41 114 104 114c80 0 164 0 238 -6l-3 -50h-224c-33 0 -49 -25 -49 -73v-169h242v-53h-242v-213c0 -47 16 -72 49 -72h224l3 -50
c-24 -35 -46 -71 -60 -118c-17 -54 12 -71 64 -48z" />
    <glyph glyph-name="F" unicode="F" horiz-adv-x="433" 
d="M401 635h-211c-37 0 -54 -25 -54 -73v-177h234v-53l-234 -1v-331h-67v574c0 72 41 117 105 117c77 0 158 0 231 -6z" />
    <glyph glyph-name="G" unicode="G" horiz-adv-x="505" 
d="M449 399v-399h-48l-8 75c-34 -45 -90 -87 -166 -87c-125 0 -176 110 -176 358c0 270 60 356 230 356c57 0 106 -5 154 -19l-7 -49c-50 7 -100 10 -144 10c-122 0 -164 -58 -164 -301c0 -215 33 -298 124 -298c59 0 102 38 141 76v278h64z" />
    <glyph glyph-name="Gbreve" unicode="&#x11e;" horiz-adv-x="505" 
d="M271 749c-77 0 -124 50 -120 125l33 6c0 -52 31 -82 87 -82c54 0 86 30 86 82l33 -6c3 -75 -43 -125 -119 -125zM449 399v-399h-48l-8 75c-34 -45 -90 -87 -166 -87c-125 0 -176 110 -176 358c0 270 60 356 230 356c57 0 106 -5 154 -19l-7 -49c-50 7 -100 10 -144 10
c-122 0 -164 -58 -164 -301c0 -215 33 -298 124 -298c59 0 102 38 141 76v278h64z" />
    <glyph glyph-name="Gcommaaccent" unicode="&#x122;" horiz-adv-x="505" 
d="M449 399v-399h-48l-8 75c-34 -45 -90 -87 -166 -87c-125 0 -176 110 -176 358c0 270 60 356 230 356c57 0 106 -5 154 -19l-7 -49c-50 7 -100 10 -144 10c-122 0 -164 -58 -164 -301c0 -215 33 -298 124 -298c59 0 102 38 141 76v278h64zM255 -61h17c16 0 21 -5 21 -21
v-56c-1 -44 -9 -89 -24 -127l-28 8c5 36 7 60 7 103c-10 0 -16 7 -16 19v53c1 16 8 21 23 21z" />
    <glyph glyph-name="Gdotaccent" unicode="&#x120;" horiz-adv-x="505" 
d="M282 765h-21c-13 0 -20 7 -20 20v59c0 14 7 21 20 21h21c12 0 19 -7 19 -21v-59c0 -13 -7 -20 -19 -20zM449 399v-399h-48l-8 75c-34 -45 -90 -87 -166 -87c-125 0 -176 110 -176 358c0 270 60 356 230 356c57 0 106 -5 154 -19l-7 -49c-50 7 -100 10 -144 10
c-122 0 -164 -58 -164 -301c0 -215 33 -298 124 -298c59 0 102 38 141 76v278h64z" />
    <glyph glyph-name="H" unicode="H" horiz-adv-x="538" 
d="M466 690v-690h-66v341h-262v-341h-66v690h66v-293h262v293h66z" />
    <glyph glyph-name="Hbar" unicode="&#x126;" horiz-adv-x="543" 
d="M525 521h-56v-521h-66v341h-262v-341h-66v521h-58v38h58v131h66v-131h262v131h66v-131h56v-38zM403 521h-262v-124h262v124z" />
    <glyph glyph-name="I" unicode="I" horiz-adv-x="209" 
d="M138 0h-66v690h66v-690z" />
    <glyph glyph-name="IJ" unicode="&#x132;" horiz-adv-x="482" 
d="M138 0h-66v690h66v-690zM413 690v-556c0 -93 -38 -142 -107 -142c-20 0 -54 5 -72 10l7 46h41c44 0 65 29 65 84v558h66z" />
    <glyph glyph-name="Iacute" unicode="&#xcd;" horiz-adv-x="209" 
d="M227 859l-151 -128l-23 30l137 146zM138 0h-66v690h66v-690z" />
    <glyph glyph-name="Icircumflex" unicode="&#xce;" horiz-adv-x="209" 
d="M234 767l-23 -28l-104 99h-6l-105 -99l-21 28l106 124h47zM138 0h-66v690h66v-690z" />
    <glyph glyph-name="Idieresis" unicode="&#xcf;" horiz-adv-x="209" 
d="M22 865h22c12 0 18 -8 18 -20v-55c0 -13 -6 -19 -18 -19h-22c-12 0 -17 6 -17 19v55c0 12 5 20 17 20zM165 865h21c12 0 19 -8 19 -20v-55c0 -13 -7 -19 -19 -19h-21c-13 0 -18 6 -18 19v55c0 12 5 20 18 20zM138 0h-66v690h66v-690z" />
    <glyph glyph-name="Idotaccent" unicode="&#x130;" horiz-adv-x="209" 
d="M94 865h21c12 0 19 -7 19 -21v-59c0 -13 -7 -20 -19 -20h-21c-13 0 -20 7 -20 20v59c0 14 7 21 20 21zM138 0h-66v690h66v-690z" />
    <glyph glyph-name="Igrave" unicode="&#xcc;" horiz-adv-x="209" 
d="M144 761l-23 -30l-151 128l37 48zM138 0h-66v690h66v-690z" />
    <glyph glyph-name="Imacron" unicode="&#x12a;" horiz-adv-x="209" 
d="M216 793h-224v49h224v-49zM138 0h-66v690h66v-690z" />
    <glyph glyph-name="Iogonek" unicode="&#x12e;" horiz-adv-x="209" 
d="M134 -166l8 -28c-100 -50 -137 6 -118 74c10 34 31 75 75 120h-27v690h66v-690h-8c-24 -35 -46 -71 -60 -118c-17 -54 12 -71 64 -48z" />
    <glyph glyph-name="J" unicode="J" horiz-adv-x="272" 
d="M204 690v-556c0 -93 -38 -142 -107 -142c-20 0 -54 5 -72 10l7 46h41c44 0 65 29 65 84v558h66z" />
    <glyph glyph-name="K" unicode="K" horiz-adv-x="474" 
d="M199 333h-67c3 -27 5 -53 5 -78v-255h-65v690h65v-223c0 -29 -2 -54 -5 -80h68l174 303h72l-168 -291c-9 -16 -17 -27 -30 -38v-3c13 -12 26 -27 34 -41l175 -317h-74z" />
    <glyph glyph-name="Kcommaaccent" unicode="&#x136;" horiz-adv-x="474" 
d="M457 0h-74l-184 333h-67c3 -27 5 -53 5 -78v-255h-65v690h65v-223c0 -29 -2 -54 -5 -80h68l174 303h72l-168 -291c-9 -16 -17 -27 -30 -38v-3c13 -12 26 -27 34 -41zM244 -61h17c16 0 21 -5 21 -21v-56c-1 -44 -9 -89 -24 -127l-28 8c5 36 7 60 7 103c-10 0 -16 7 -16 19
v53c1 16 8 21 23 21z" />
    <glyph glyph-name="L" unicode="L" horiz-adv-x="413" 
d="M135 690v-562c0 -48 17 -73 55 -73h202l3 -50c-71 -5 -144 -6 -216 -6c-79 0 -110 51 -110 120v571h66z" />
    <glyph glyph-name="Lacute" unicode="&#x139;" horiz-adv-x="413" 
d="M226 859l-151 -128l-23 30l137 146zM135 690v-562c0 -48 17 -73 55 -73h202l3 -50c-71 -5 -144 -6 -216 -6c-79 0 -110 51 -110 120v571h66z" />
    <glyph glyph-name="Lcaron" unicode="&#x13d;" horiz-adv-x="413" 
d="M255 691h17c16 0 21 -5 21 -21v-56c-1 -44 -9 -89 -24 -127l-28 8c5 36 7 60 7 103c-10 0 -16 7 -16 19v53c1 16 8 21 23 21zM135 690v-562c0 -48 17 -73 55 -73h202l3 -50c-71 -5 -144 -6 -216 -6c-79 0 -110 51 -110 120v571h66z" />
    <glyph glyph-name="Lcommaaccent" unicode="&#x13b;" horiz-adv-x="413" 
d="M135 690v-562c0 -48 17 -73 55 -73h202l3 -50c-71 -5 -144 -6 -216 -6c-79 0 -110 51 -110 120v571h66zM230 -66h17c16 0 21 -5 21 -21v-56c-1 -44 -9 -89 -24 -127l-28 8c5 36 7 60 7 103c-10 0 -16 7 -16 19v53c1 16 8 21 23 21z" />
    <glyph glyph-name="Ldot" unicode="&#x13f;" horiz-adv-x="413" 
d="M135 690v-562c0 -48 17 -73 55 -73h202l3 -50c-71 -5 -144 -6 -216 -6c-79 0 -110 51 -110 120v571h66zM322 336h-21c-12 0 -19 7 -19 21v59c0 13 7 20 19 20h21c13 0 20 -7 20 -20v-59c0 -14 -7 -21 -20 -21z" />
    <glyph glyph-name="Lslash" unicode="&#x141;" horiz-adv-x="417" 
d="M396 55l3 -50c-70 -5 -143 -6 -216 -6c-78 0 -110 51 -110 120v222l-57 -29v42l57 29v307h67v-273l94 47v-42l-94 -47v-247c0 -48 17 -73 54 -73h202z" />
    <glyph glyph-name="M" unicode="M" horiz-adv-x="703" 
d="M517 690h76c18 0 27 -11 28 -29l23 -661h-65l-20 635h-19l-128 -541c-5 -15 -14 -22 -29 -22h-62c-16 0 -25 7 -30 22l-129 541h-18l-19 -635h-65l22 661c1 18 10 29 28 29h77c15 0 24 -8 28 -23l107 -450c8 -32 15 -62 22 -94h15c7 32 14 63 22 95l107 449
c4 15 14 23 29 23z" />
    <glyph glyph-name="N" unicode="N" horiz-adv-x="567" 
d="M495 690v-662c0 -19 -9 -28 -26 -28h-73c-15 0 -25 6 -29 22l-189 524c-8 25 -19 57 -29 83h-12v-83l1 -546h-66v662c0 19 9 28 26 28h71c15 0 26 -6 30 -22l183 -512c9 -28 22 -62 33 -93h15c-1 33 -1 66 -1 99v528h66z" />
    <glyph glyph-name="Nacute" unicode="&#x143;" horiz-adv-x="567" 
d="M409 859l-151 -128l-23 30l137 146zM495 690v-662c0 -19 -9 -28 -26 -28h-73c-15 0 -25 6 -29 22l-189 524c-8 25 -19 57 -29 83h-12v-83l1 -546h-66v662c0 19 9 28 26 28h71c15 0 26 -6 30 -22l183 -512c9 -28 22 -62 33 -93h15c-1 33 -1 66 -1 99v528h66z" />
    <glyph glyph-name="Ncaron" unicode="&#x147;" horiz-adv-x="567" 
d="M417 870l-115 -123h-30l-114 123l21 28l105 -92h6l105 92zM495 690v-662c0 -19 -9 -28 -26 -28h-73c-15 0 -25 6 -29 22l-189 524c-8 25 -19 57 -29 83h-12v-83l1 -546h-66v662c0 19 9 28 26 28h71c15 0 26 -6 30 -22l183 -512c9 -28 22 -62 33 -93h15c-1 33 -1 66 -1 99
v528h66z" />
    <glyph glyph-name="Ncommaaccent" unicode="&#x145;" horiz-adv-x="567" 
d="M495 690v-662c0 -19 -9 -28 -26 -28h-73c-15 0 -25 6 -29 22l-189 524c-8 25 -19 57 -29 83h-12v-83l1 -546h-66v662c0 19 9 28 26 28h71c15 0 26 -6 30 -22l183 -512c9 -28 22 -62 33 -93h15c-1 33 -1 66 -1 99v528h66zM264 -61h17c16 0 21 -5 21 -21v-56
c-1 -44 -9 -89 -24 -127l-28 8c5 36 7 60 7 103c-10 0 -16 7 -16 19v53c1 16 8 21 23 21z" />
    <glyph glyph-name="Eng" unicode="&#x14a;" horiz-adv-x="567" 
d="M495 690v-777c0 -86 -40 -131 -107 -131c-19 0 -51 4 -70 10l7 41h41c45 0 67 28 67 85v82h-39c-10 0 -17 8 -21 20l-194 520c-8 25 -19 58 -29 85h-14c3 -28 2 -58 2 -86v-539h-66v662c0 19 8 28 26 28h64c16 0 25 -6 30 -22l188 -501c10 -27 23 -64 35 -95h15
c-1 33 -1 67 -1 100v518h66z" />
    <glyph glyph-name="Ntilde" unicode="&#xd1;" horiz-adv-x="567" 
d="M223 875c50 -5 74 -54 120 -60c30 -4 39 14 39 55h31c6 -69 -22 -106 -63 -102c-54 5 -80 55 -120 61c-30 4 -39 -16 -39 -59h-30c-7 73 23 109 62 105zM495 690v-662c0 -19 -9 -28 -26 -28h-73c-15 0 -25 6 -29 22l-189 524c-8 25 -19 57 -29 83h-12v-83l1 -546h-66v662
c0 19 9 28 26 28h71c15 0 26 -6 30 -22l183 -512c9 -28 22 -62 33 -93h15c-1 33 -1 66 -1 99v528h66z" />
    <glyph glyph-name="O" unicode="O" 
d="M269 702c160 0 218 -90 218 -357s-58 -357 -218 -357c-162 0 -218 90 -218 357s56 357 218 357zM269 644c-112 0 -149 -75 -149 -299s37 -299 149 -299c111 0 148 75 148 299s-37 299 -148 299z" />
    <glyph glyph-name="Oacute" unicode="&#xd3;" 
d="M391 859l-151 -128l-23 30l137 146zM269 702c160 0 218 -90 218 -357s-58 -357 -218 -357c-162 0 -218 90 -218 357s56 357 218 357zM269 644c-112 0 -149 -75 -149 -299s37 -299 149 -299c111 0 148 75 148 299s-37 299 -148 299z" />
    <glyph glyph-name="Ocircumflex" unicode="&#xd4;" 
d="M398 767l-23 -28l-104 99h-6l-105 -99l-21 28l106 124h47zM269 702c160 0 218 -90 218 -357s-58 -357 -218 -357c-162 0 -218 90 -218 357s56 357 218 357zM269 644c-112 0 -149 -75 -149 -299s37 -299 149 -299c111 0 148 75 148 299s-37 299 -148 299z" />
    <glyph glyph-name="Odieresis" unicode="&#xd6;" 
d="M186 865h22c12 0 18 -8 18 -20v-55c0 -13 -6 -19 -18 -19h-22c-12 0 -17 6 -17 19v55c0 12 5 20 17 20zM329 865h21c12 0 19 -8 19 -20v-55c0 -13 -7 -19 -19 -19h-21c-13 0 -18 6 -18 19v55c0 12 5 20 18 20zM269 702c160 0 218 -90 218 -357s-58 -357 -218 -357
c-162 0 -218 90 -218 357s56 357 218 357zM269 644c-112 0 -149 -75 -149 -299s37 -299 149 -299c111 0 148 75 148 299s-37 299 -148 299z" />
    <glyph glyph-name="Ograve" unicode="&#xd2;" 
d="M308 761l-23 -30l-151 128l37 48zM269 702c160 0 218 -90 218 -357s-58 -357 -218 -357c-162 0 -218 90 -218 357s56 357 218 357zM269 644c-112 0 -149 -75 -149 -299s37 -299 149 -299c111 0 148 75 148 299s-37 299 -148 299z" />
    <glyph glyph-name="Ohungarumlaut" unicode="&#x150;" 
d="M301 883l-107 -156l-29 21l89 168zM431 883l-107 -156l-28 21l88 168zM269 702c160 0 218 -90 218 -357s-58 -357 -218 -357c-162 0 -218 90 -218 357s56 357 218 357zM269 644c-112 0 -149 -75 -149 -299s37 -299 149 -299c111 0 148 75 148 299s-37 299 -148 299z" />
    <glyph glyph-name="Omacron" unicode="&#x14c;" 
d="M380 793h-224v49h224v-49zM269 702c160 0 218 -90 218 -357s-58 -357 -218 -357c-162 0 -218 90 -218 357s56 357 218 357zM269 644c-112 0 -149 -75 -149 -299s37 -299 149 -299c111 0 148 75 148 299s-37 299 -148 299z" />
    <glyph glyph-name="Oslash" unicode="&#xd8;" 
d="M431 731l-26 -69c58 -49 82 -147 82 -317c0 -267 -58 -357 -218 -357c-44 0 -80 7 -110 22l-24 -65l-35 16l27 71c-55 51 -76 148 -76 313c0 267 56 357 218 357c41 0 75 -6 104 -19l24 64zM120 345c0 -116 10 -192 35 -238l195 515c-21 15 -48 22 -81 22
c-112 0 -149 -75 -149 -299zM269 46c111 0 148 75 148 299c0 122 -11 200 -39 245l-195 -518c22 -18 50 -26 86 -26z" />
    <glyph glyph-name="Otilde" unicode="&#xd5;" 
d="M204 875c50 -5 74 -54 120 -60c30 -4 39 14 39 55h31c6 -69 -22 -106 -63 -102c-54 5 -80 55 -120 61c-30 4 -39 -16 -39 -59h-30c-7 73 23 109 62 105zM269 702c160 0 218 -90 218 -357s-58 -357 -218 -357c-162 0 -218 90 -218 357s56 357 218 357zM269 644
c-112 0 -149 -75 -149 -299s37 -299 149 -299c111 0 148 75 148 299s-37 299 -148 299z" />
    <glyph glyph-name="OE" unicode="&#x152;" horiz-adv-x="733" 
d="M689 55l3 -50c-75 -6 -158 -6 -238 -6c-21 0 -40 8 -55 21c-42 -23 -74 -32 -130 -32c-162 0 -218 90 -218 357s56 357 218 357c58 0 89 -8 133 -31c16 13 36 20 58 20c77 0 159 0 232 -6l-3 -50h-207c-38 0 -55 -25 -55 -73v-168l230 -1v-53l-230 -1v-212
c0 -47 17 -72 55 -72h207zM120 345c0 -224 37 -299 149 -299c46 0 70 6 100 20c-6 16 -9 34 -9 53v452c0 19 3 37 9 53c-30 13 -54 20 -100 20c-112 0 -149 -72 -149 -299z" />
    <glyph glyph-name="P" unicode="P" horiz-adv-x="474" 
d="M261 698c132 0 176 -46 176 -211c0 -166 -44 -211 -168 -211c-50 0 -96 3 -131 7v-283h-66v690c60 7 100 8 189 8zM138 333h122c83 0 111 32 111 154c0 123 -28 155 -111 155c-48 0 -90 0 -122 -1v-308z" />
    <glyph glyph-name="Thorn" unicode="&#xde;" horiz-adv-x="476" 
d="M262 563c131 0 175 -46 175 -213c0 -168 -44 -212 -168 -212c-50 0 -96 3 -131 6v-144h-66v690h66v-129c33 2 70 2 124 2zM138 195h122c83 0 111 31 111 155c0 125 -28 156 -111 156c-48 0 -90 0 -122 -1v-310z" />
    <glyph glyph-name="Q" unicode="Q" horiz-adv-x="538" 
d="M269 702c161 0 218 -90 218 -357s-57 -357 -218 -357s-218 90 -218 357s57 357 218 357zM269 644c-112 0 -149 -75 -149 -299s37 -299 149 -299s149 75 149 299s-37 299 -149 299zM218 -85l19 39c61 -37 130 -61 210 -75l-21 -66c-83 18 -152 57 -208 102z" />
    <glyph glyph-name="R" unicode="R" horiz-adv-x="497" 
d="M459 0h-70l-51 217c-14 57 -37 79 -74 79c-54 0 -96 1 -127 1v-297h-65v690c60 7 101 8 190 8c127 0 177 -42 177 -197c0 -116 -28 -167 -102 -180v-4c28 -10 56 -44 69 -98zM137 353h123c84 1 113 32 113 145c0 114 -29 144 -113 144c-49 0 -91 -1 -123 -1v-288z" />
    <glyph glyph-name="Racute" unicode="&#x154;" horiz-adv-x="497" 
d="M232 731l-23 30l137 146l37 -48zM459 0h-70l-51 217c-14 57 -37 79 -74 79c-54 0 -96 1 -127 1v-297h-65v690c60 7 101 8 190 8c127 0 177 -42 177 -197c0 -116 -28 -167 -102 -180v-4c28 -10 56 -44 69 -98zM137 353h123c84 1 113 32 113 145c0 114 -29 144 -113 144
c-49 0 -91 -1 -123 -1v-288z" />
    <glyph glyph-name="Rcaron" unicode="&#x158;" horiz-adv-x="497" 
d="M246 747l-114 123l21 28l105 -92h6l105 92l22 -28l-115 -123h-30zM459 0h-70l-51 217c-14 57 -37 79 -74 79c-54 0 -96 1 -127 1v-297h-65v690c60 7 101 8 190 8c127 0 177 -42 177 -197c0 -116 -28 -167 -102 -180v-4c28 -10 56 -44 69 -98zM137 353h123
c84 1 113 32 113 145c0 114 -29 144 -113 144c-49 0 -91 -1 -123 -1v-288z" />
    <glyph glyph-name="Rcommaaccent" unicode="&#x156;" horiz-adv-x="497" 
d="M459 0h-70l-51 217c-14 57 -37 79 -74 79c-54 0 -96 1 -127 1v-297h-65v690c60 7 101 8 190 8c127 0 177 -42 177 -197c0 -116 -28 -167 -102 -180v-4c28 -10 56 -44 69 -98zM137 353h123c84 1 113 32 113 145c0 114 -29 144 -113 144c-49 0 -91 -1 -123 -1v-288z
M256 -61h17c16 0 21 -5 21 -21v-56c-1 -44 -9 -89 -24 -127l-28 8c5 36 7 60 7 103c-10 0 -16 7 -16 19v53c1 16 8 21 23 21z" />
    <glyph glyph-name="S" unicode="S" horiz-adv-x="452" 
d="M224 701c52 0 109 -4 164 -16l-5 -48c-46 3 -105 6 -155 6c-83 0 -116 -4 -116 -123c0 -85 22 -114 72 -127l113 -30c85 -21 113 -78 113 -189c0 -161 -57 -185 -185 -185c-37 0 -97 1 -172 15l5 49c91 -5 122 -6 169 -6c87 1 116 18 116 128c0 90 -22 116 -72 129
l-116 31c-80 20 -110 79 -110 187c0 162 56 181 179 179z" />
    <glyph glyph-name="Sacute" unicode="&#x15a;" horiz-adv-x="452" 
d="M353 859l-151 -128l-23 30l137 146zM224 701c52 0 109 -4 164 -16l-5 -48c-46 3 -105 6 -155 6c-83 0 -116 -4 -116 -123c0 -85 22 -114 72 -127l113 -30c85 -21 113 -78 113 -189c0 -161 -57 -185 -185 -185c-37 0 -97 1 -172 15l5 49c91 -5 122 -6 169 -6
c87 1 116 18 116 128c0 90 -22 116 -72 129l-116 31c-80 20 -110 79 -110 187c0 162 56 181 179 179z" />
    <glyph glyph-name="Scaron" unicode="&#x160;" horiz-adv-x="452" 
d="M361 870l-115 -123h-30l-114 123l21 28l105 -92h6l105 92zM224 701c52 0 109 -4 164 -16l-5 -48c-46 3 -105 6 -155 6c-83 0 -116 -4 -116 -123c0 -85 22 -114 72 -127l113 -30c85 -21 113 -78 113 -189c0 -161 -57 -185 -185 -185c-37 0 -97 1 -172 15l5 49
c91 -5 122 -6 169 -6c87 1 116 18 116 128c0 90 -22 116 -72 129l-116 31c-80 20 -110 79 -110 187c0 162 56 181 179 179z" />
    <glyph glyph-name="Scedilla" unicode="&#x15e;" horiz-adv-x="452" 
d="M224 701c52 0 109 -4 164 -16l-5 -48c-46 3 -105 6 -155 6c-83 0 -116 -4 -116 -123c0 -85 22 -114 72 -127l113 -30c85 -21 113 -78 113 -189c0 -161 -57 -185 -185 -185c-37 0 -97 1 -172 15l5 49c91 -5 122 -6 169 -6c87 1 116 18 116 128c0 90 -22 116 -72 129
l-116 31c-80 20 -110 79 -110 187c0 162 56 181 179 179zM188 -87l6 31c61 6 89 -9 88 -65c-2 -79 -57 -128 -133 -116l10 35c45 -2 75 32 76 77c1 28 -9 37 -47 38z" />
    <glyph glyph-name="Scommaaccent" unicode="&#x218;" horiz-adv-x="452" 
d="M224 701c52 0 109 -4 164 -16l-5 -48c-46 3 -105 6 -155 6c-83 0 -116 -4 -116 -123c0 -85 22 -114 72 -127l113 -30c85 -21 113 -78 113 -189c0 -161 -57 -185 -185 -185c-37 0 -97 1 -172 15l5 49c91 -5 122 -6 169 -6c87 1 116 18 116 128c0 90 -22 116 -72 129
l-116 31c-80 20 -110 79 -110 187c0 162 56 181 179 179zM223 -61h17c16 0 21 -5 21 -21v-56c-1 -44 -9 -89 -24 -127l-28 8c5 36 7 60 7 103c-10 0 -16 7 -16 19v53c1 16 8 21 23 21z" />
    <glyph glyph-name="T" unicode="T" horiz-adv-x="466" 
d="M446 632h-180v-632h-67v632h-179v58h426v-58z" />
    <glyph glyph-name="Tbar" unicode="&#x166;" horiz-adv-x="466" 
d="M266 632v-210h113v-39h-113v-383h-67v383h-114v39h114v210h-179v58h426v-58h-180z" />
    <glyph glyph-name="Tcaron" unicode="&#x164;" horiz-adv-x="466" 
d="M219 747l-114 123l21 28l105 -92h6l105 92l22 -28l-115 -123h-30zM446 632h-180v-632h-67v632h-179v58h426v-58z" />
    <glyph glyph-name="Tcedilla" unicode="&#x162;" horiz-adv-x="466" 
d="M446 690v-58h-180v-632h-67v632h-179v58h426zM197 -76l6 31c61 6 89 -9 88 -65c-2 -79 -57 -128 -133 -116l10 35c45 -2 75 32 76 77c1 28 -9 37 -47 38z" />
    <glyph glyph-name="uni021A" unicode="&#x21a;" horiz-adv-x="466" 
d="M446 632h-180v-632h-67v632h-179v58h426v-58zM216 -61h17c16 0 21 -5 21 -21v-56c-1 -44 -9 -89 -24 -127l-28 8c5 36 7 60 7 103c-10 0 -16 7 -16 19v53c1 16 8 21 23 21z" />
    <glyph glyph-name="U" unicode="U" 
d="M469 690v-429c0 -198 -53 -273 -198 -273c-149 0 -203 75 -203 273v429h66v-429c0 -159 35 -215 134 -215s135 56 135 215v429h66z" />
    <glyph glyph-name="Uacute" unicode="&#xda;" 
d="M392 859l-151 -128l-23 30l137 146zM469 690v-429c0 -198 -53 -273 -198 -273c-149 0 -203 75 -203 273v429h66v-429c0 -159 35 -215 134 -215s135 56 135 215v429h66z" />
    <glyph glyph-name="Ucircumflex" unicode="&#xdb;" 
d="M399 767l-23 -28l-104 99h-6l-105 -99l-21 28l106 124h47zM469 690v-429c0 -198 -53 -273 -198 -273c-149 0 -203 75 -203 273v429h66v-429c0 -159 35 -215 134 -215s135 56 135 215v429h66z" />
    <glyph glyph-name="Udieresis" unicode="&#xdc;" 
d="M187 865h22c12 0 18 -8 18 -20v-55c0 -13 -6 -19 -18 -19h-22c-12 0 -17 6 -17 19v55c0 12 5 20 17 20zM330 865h21c12 0 19 -8 19 -20v-55c0 -13 -7 -19 -19 -19h-21c-13 0 -18 6 -18 19v55c0 12 5 20 18 20zM469 690v-429c0 -198 -53 -273 -198 -273
c-149 0 -203 75 -203 273v429h66v-429c0 -159 35 -215 134 -215s135 56 135 215v429h66z" />
    <glyph glyph-name="Ugrave" unicode="&#xd9;" 
d="M309 761l-23 -30l-151 128l37 48zM469 690v-429c0 -198 -53 -273 -198 -273c-149 0 -203 75 -203 273v429h66v-429c0 -159 35 -215 134 -215s135 56 135 215v429h66z" />
    <glyph glyph-name="Uhungarumlaut" unicode="&#x170;" 
d="M302 883l-107 -156l-29 21l89 168zM432 883l-107 -156l-28 21l88 168zM469 690v-429c0 -198 -53 -273 -198 -273c-149 0 -203 75 -203 273v429h66v-429c0 -159 35 -215 134 -215s135 56 135 215v429h66z" />
    <glyph glyph-name="Umacron" unicode="&#x16a;" 
d="M381 793h-224v49h224v-49zM469 690v-429c0 -198 -53 -273 -198 -273c-149 0 -203 75 -203 273v429h66v-429c0 -159 35 -215 134 -215s135 56 135 215v429h66z" />
    <glyph glyph-name="Uogonek" unicode="&#x172;" 
d="M469 690v-429c0 -184 -46 -262 -169 -272c-24 -34 -45 -70 -59 -116c-17 -54 12 -71 64 -48l8 -28c-100 -50 -137 6 -118 74c10 33 30 73 72 117c-146 1 -199 77 -199 273v429h66v-429c0 -159 35 -215 134 -215s135 56 135 215v429h66z" />
    <glyph glyph-name="Uring" unicode="&#x16e;" 
d="M269 919c47 0 86 -45 86 -102s-38 -101 -86 -101c-47 0 -85 44 -85 101s39 102 85 102zM269 884c-28 0 -49 -28 -49 -67c0 -40 22 -66 49 -66c28 0 49 26 49 66c0 39 -21 67 -49 67zM469 690v-429c0 -198 -53 -273 -198 -273c-149 0 -203 75 -203 273v429h66v-429
c0 -159 35 -215 134 -215s135 56 135 215v429h66z" />
    <glyph glyph-name="V" unicode="V" horiz-adv-x="489" 
d="M475 690l-171 -671c-3 -11 -13 -19 -25 -19h-68c-13 0 -23 8 -26 19l-171 671h69l134 -563c7 -25 13 -50 18 -75h20c5 25 11 50 17 75l134 563h69z" />
    <glyph glyph-name="W" unicode="W" horiz-adv-x="762" 
d="M736 690l-116 -670c-3 -12 -13 -20 -26 -20h-77c-13 0 -23 8 -26 21l-89 541c-4 26 -8 51 -13 77h-17c-5 -26 -8 -52 -13 -77l-88 -541c-3 -13 -14 -21 -27 -21h-77c-13 0 -23 8 -26 20l-116 670h70l90 -559c5 -26 9 -52 12 -80h19c4 28 9 53 13 79l89 537
c2 14 12 23 26 23h73c14 0 24 -9 27 -23l88 -537c5 -26 9 -53 12 -79h20c4 26 7 53 12 78l91 561h69z" />
    <glyph glyph-name="Wacute" unicode="&#x1e82;" horiz-adv-x="762" 
d="M505 858l-151 -128l-23 30l137 146zM736 690l-116 -670c-3 -12 -13 -20 -26 -20h-77c-13 0 -23 8 -26 21l-89 541c-4 26 -8 51 -13 77h-17c-5 -26 -8 -52 -13 -77l-88 -541c-3 -13 -14 -21 -27 -21h-77c-13 0 -23 8 -26 20l-116 670h70l90 -559c5 -26 9 -52 12 -80h19
c4 28 9 53 13 79l89 537c2 14 12 23 26 23h73c14 0 24 -9 27 -23l88 -537c5 -26 9 -53 12 -79h20c4 26 7 53 12 78l91 561h69z" />
    <glyph glyph-name="Wcircumflex" unicode="&#x174;" horiz-adv-x="762" 
d="M512 766l-23 -28l-104 99h-6l-105 -99l-21 28l106 124h47zM736 690l-116 -670c-3 -12 -13 -20 -26 -20h-77c-13 0 -23 8 -26 21l-89 541c-4 26 -8 51 -13 77h-17c-5 -26 -8 -52 -13 -77l-88 -541c-3 -13 -14 -21 -27 -21h-77c-13 0 -23 8 -26 20l-116 670h70l90 -559
c5 -26 9 -52 12 -80h19c4 28 9 53 13 79l89 537c2 14 12 23 26 23h73c14 0 24 -9 27 -23l88 -537c5 -26 9 -53 12 -79h20c4 26 7 53 12 78l91 561h69z" />
    <glyph glyph-name="Wdieresis" unicode="&#x1e84;" horiz-adv-x="762" 
d="M299 865h22c12 0 18 -8 18 -20v-55c0 -13 -6 -19 -18 -19h-22c-12 0 -17 6 -17 19v55c0 12 5 20 17 20zM442 865h21c12 0 19 -8 19 -20v-55c0 -13 -7 -19 -19 -19h-21c-13 0 -18 6 -18 19v55c0 12 5 20 18 20zM736 690l-116 -670c-3 -12 -13 -20 -26 -20h-77
c-13 0 -23 8 -26 21l-89 541c-4 26 -8 51 -13 77h-17c-5 -26 -8 -52 -13 -77l-88 -541c-3 -13 -14 -21 -27 -21h-77c-13 0 -23 8 -26 20l-116 670h70l90 -559c5 -26 9 -52 12 -80h19c4 28 9 53 13 79l89 537c2 14 12 23 26 23h73c14 0 24 -9 27 -23l88 -537
c5 -26 9 -53 12 -79h20c4 26 7 53 12 78l91 561h69z" />
    <glyph glyph-name="Wgrave" unicode="&#x1e80;" horiz-adv-x="762" 
d="M422 760l-23 -30l-151 128l37 48zM736 690l-116 -670c-3 -12 -13 -20 -26 -20h-77c-13 0 -23 8 -26 21l-89 541c-4 26 -8 51 -13 77h-17c-5 -26 -8 -52 -13 -77l-88 -541c-3 -13 -14 -21 -27 -21h-77c-13 0 -23 8 -26 20l-116 670h70l90 -559c5 -26 9 -52 12 -80h19
c4 28 9 53 13 79l89 537c2 14 12 23 26 23h73c14 0 24 -9 27 -23l88 -537c5 -26 9 -53 12 -79h20c4 26 7 53 12 78l91 561h69z" />
    <glyph glyph-name="X" unicode="X" horiz-adv-x="490" 
d="M256 334h-22l-142 -334h-71l158 358l-148 332h71l130 -305h26l130 305h71l-148 -332l158 -358h-72z" />
    <glyph glyph-name="Y" unicode="Y" horiz-adv-x="455" 
d="M260 247v-247h-65v247l-186 443h71l119 -303c10 -23 18 -50 26 -74h6c7 24 16 51 25 73l119 304h69z" />
    <glyph glyph-name="Yacute" unicode="&#xdd;" horiz-adv-x="455" 
d="M199 731l-23 30l137 146l37 -48zM260 247v-247h-65v247l-186 443h71l119 -303c10 -23 18 -50 26 -74h6c7 24 16 51 25 73l119 304h69z" />
    <glyph glyph-name="Ycircumflex" unicode="&#x176;" horiz-adv-x="455" 
d="M119 739l-21 28l106 124h47l106 -124l-23 -28l-104 99h-6zM260 247v-247h-65v247l-186 443h71l119 -303c10 -23 18 -50 26 -74h6c7 24 16 51 25 73l119 304h69z" />
    <glyph glyph-name="Ydieresis" unicode="&#x178;" horiz-adv-x="455" 
d="M167 771h-22c-12 0 -17 6 -17 19v55c0 12 5 20 17 20h22c12 0 18 -8 18 -20v-55c0 -13 -6 -19 -18 -19zM309 771h-21c-13 0 -18 6 -18 19v55c0 12 5 20 18 20h21c12 0 19 -8 19 -20v-55c0 -13 -7 -19 -19 -19zM260 247v-247h-65v247l-186 443h71l119 -303
c10 -23 18 -50 26 -74h6c7 24 16 51 25 73l119 304h69z" />
    <glyph glyph-name="Ygrave" unicode="&#x1ef2;" horiz-adv-x="455" 
d="M244 731l-151 128l37 48l137 -146zM260 247v-247h-65v247l-186 443h71l119 -303c10 -23 18 -50 26 -74h6c7 24 16 51 25 73l119 304h69z" />
    <glyph glyph-name="Z" unicode="Z" horiz-adv-x="455" 
d="M416 56v-56h-377v56l303 578h-298v56h367v-56l-302 -578h307z" />
    <glyph glyph-name="Zacute" unicode="&#x179;" horiz-adv-x="455" 
d="M201 731l-23 30l137 146l37 -48zM416 56v-56h-377v56l303 578h-298v56h367v-56l-302 -578h307z" />
    <glyph glyph-name="Zcaron" unicode="&#x17d;" horiz-adv-x="455" 
d="M215 747l-114 123l21 28l105 -92h6l105 92l22 -28l-115 -123h-30zM416 56v-56h-377v56l303 578h-298v56h367v-56l-302 -578h307z" />
    <glyph glyph-name="Zdotaccent" unicode="&#x17b;" horiz-adv-x="455" 
d="M240 765h-21c-13 0 -20 7 -20 20v59c0 14 7 21 20 21h21c12 0 19 -7 19 -21v-59c0 -13 -7 -20 -19 -20zM416 56v-56h-377v56l303 578h-298v56h367v-56l-302 -578h307z" />
    <glyph glyph-name="a" unicode="a" horiz-adv-x="441" 
d="M248 497c86 0 132 -38 132 -149v-348h-50l-8 80c-31 -39 -92 -88 -164 -88c-69 0 -115 46 -115 131v56c0 75 39 118 106 118h167v51c-1 61 -18 94 -80 94c-44 0 -110 -6 -171 -14l-6 47c55 10 129 22 189 22zM170 48c41 -1 100 28 146 78v122l-155 -2
c-39 -2 -53 -28 -53 -75v-42c0 -55 20 -81 62 -81z" />
    <glyph glyph-name="aacute" unicode="&#xe1;" horiz-adv-x="441" 
d="M188 550l-23 30l137 146l37 -48zM248 497c86 0 132 -38 132 -149v-348h-50l-8 80c-31 -39 -92 -88 -164 -88c-69 0 -115 46 -115 131v56c0 75 39 118 106 118h167v51c-1 61 -18 94 -80 94c-44 0 -110 -6 -171 -14l-6 47c55 10 129 22 189 22zM170 48c41 -1 100 28 146 78
v122l-155 -2c-39 -2 -53 -28 -53 -75v-42c0 -55 20 -81 62 -81z" />
    <glyph glyph-name="abreve" unicode="&#x103;" horiz-adv-x="441" 
d="M217 568c-77 0 -124 50 -120 125l33 6c0 -52 31 -82 87 -82c54 0 86 30 86 82l33 -6c3 -75 -43 -125 -119 -125zM248 497c86 0 132 -38 132 -149v-348h-50l-8 80c-31 -39 -92 -88 -164 -88c-69 0 -115 46 -115 131v56c0 75 39 118 106 118h167v51c-1 61 -18 94 -80 94
c-44 0 -110 -6 -171 -14l-6 47c55 10 129 22 189 22zM170 48c41 -1 100 28 146 78v122l-155 -2c-39 -2 -53 -28 -53 -75v-42c0 -55 20 -81 62 -81z" />
    <glyph glyph-name="acircumflex" unicode="&#xe2;" horiz-adv-x="441" 
d="M108 558l-21 28l106 124h47l106 -124l-23 -28l-104 99h-6zM248 497c86 0 132 -38 132 -149v-348h-50l-8 80c-31 -39 -92 -88 -164 -88c-69 0 -115 46 -115 131v56c0 75 39 118 106 118h167v51c-1 61 -18 94 -80 94c-44 0 -110 -6 -171 -14l-6 47c55 10 129 22 189 22z
M170 48c41 -1 100 28 146 78v122l-155 -2c-39 -2 -53 -28 -53 -75v-42c0 -55 20 -81 62 -81z" />
    <glyph glyph-name="adieresis" unicode="&#xe4;" horiz-adv-x="441" 
d="M156 591h-22c-12 0 -17 6 -17 19v55c0 12 5 20 17 20h22c12 0 18 -8 18 -20v-55c0 -13 -6 -19 -18 -19zM298 591h-21c-13 0 -18 6 -18 19v55c0 12 5 20 18 20h21c12 0 19 -8 19 -20v-55c0 -13 -7 -19 -19 -19zM248 497c86 0 132 -38 132 -149v-348h-50l-8 80
c-31 -39 -92 -88 -164 -88c-69 0 -115 46 -115 131v56c0 75 39 118 106 118h167v51c-1 61 -18 94 -80 94c-44 0 -110 -6 -171 -14l-6 47c55 10 129 22 189 22zM170 48c41 -1 100 28 146 78v122l-155 -2c-39 -2 -53 -28 -53 -75v-42c0 -55 20 -81 62 -81z" />
    <glyph glyph-name="agrave" unicode="&#xe0;" horiz-adv-x="441" 
d="M234 550l-151 128l37 48l137 -146zM248 497c86 0 132 -38 132 -149v-348h-50l-8 80c-31 -39 -92 -88 -164 -88c-69 0 -115 46 -115 131v56c0 75 39 118 106 118h167v51c-1 61 -18 94 -80 94c-44 0 -110 -6 -171 -14l-6 47c55 10 129 22 189 22zM170 48
c41 -1 100 28 146 78v122l-155 -2c-39 -2 -53 -28 -53 -75v-42c0 -55 20 -81 62 -81z" />
    <glyph glyph-name="amacron" unicode="&#x101;" horiz-adv-x="441" 
d="M329 612h-224v49h224v-49zM248 497c86 0 132 -38 132 -149v-348h-50l-8 80c-31 -39 -92 -88 -164 -88c-69 0 -115 46 -115 131v56c0 75 39 118 106 118h167v51c-1 61 -18 94 -80 94c-44 0 -110 -6 -171 -14l-6 47c55 10 129 22 189 22zM170 48c41 -1 100 28 146 78v122
l-155 -2c-39 -2 -53 -28 -53 -75v-42c0 -55 20 -81 62 -81z" />
    <glyph glyph-name="aogonek" unicode="&#x105;" horiz-adv-x="441" 
d="M384 -166l8 -28c-100 -50 -137 6 -118 74c10 34 31 75 75 120h-19l-8 80c-31 -39 -92 -88 -164 -88c-69 0 -115 46 -115 131v56c0 75 39 118 106 118h167v51c-1 61 -18 94 -80 94c-44 0 -110 -6 -171 -14l-6 47c55 10 129 22 189 22c86 0 132 -38 132 -149v-348
c-24 -35 -46 -71 -60 -118c-17 -54 12 -71 64 -48zM170 48c41 -1 100 28 146 78v122l-155 -2c-39 -2 -53 -28 -53 -75v-42c0 -55 20 -81 62 -81z" />
    <glyph glyph-name="aring" unicode="&#xe5;" horiz-adv-x="441" 
d="M217 536c-47 0 -85 44 -85 101s39 102 85 102c47 0 86 -45 86 -102s-38 -101 -86 -101zM217 704c-28 0 -49 -28 -49 -67c0 -40 22 -66 49 -66c28 0 49 26 49 66c0 39 -21 67 -49 67zM248 497c86 0 132 -38 132 -149v-348h-50l-8 80c-31 -39 -92 -88 -164 -88
c-69 0 -115 46 -115 131v56c0 75 39 118 106 118h167v51c-1 61 -18 94 -80 94c-44 0 -110 -6 -171 -14l-6 47c55 10 129 22 189 22zM170 48c41 -1 100 28 146 78v122l-155 -2c-39 -2 -53 -28 -53 -75v-42c0 -55 20 -81 62 -81z" />
    <glyph glyph-name="atilde" unicode="&#xe3;" horiz-adv-x="441" 
d="M121 589h-30c-7 73 23 109 62 105c50 -5 74 -54 120 -60c30 -4 39 14 39 55h31c6 -69 -22 -106 -63 -102c-54 5 -80 55 -120 61c-30 4 -39 -16 -39 -59zM248 497c86 0 132 -38 132 -149v-348h-50l-8 80c-31 -39 -92 -88 -164 -88c-69 0 -115 46 -115 131v56
c0 75 39 118 106 118h167v51c-1 61 -18 94 -80 94c-44 0 -110 -6 -171 -14l-6 47c55 10 129 22 189 22zM170 48c41 -1 100 28 146 78v122l-155 -2c-39 -2 -53 -28 -53 -75v-42c0 -55 20 -81 62 -81z" />
    <glyph glyph-name="ae" unicode="&#xe6;" horiz-adv-x="702" 
d="M509 43c44 0 97 6 136 12l7 -43c-35 -16 -106 -24 -151 -24c-89 0 -142 31 -167 106c-30 -42 -96 -102 -176 -102c-69 0 -115 46 -115 131v56c0 75 38 118 106 118h167v51c0 61 -18 94 -80 94c-44 0 -110 -6 -171 -14l-6 47c55 10 129 22 189 22c53 0 91 -15 112 -52
c30 37 73 52 134 52c117 0 167 -51 167 -151c1 -92 -31 -135 -103 -135h-175c5 -132 41 -168 126 -168zM497 442c-85 0 -113 -44 -115 -181h160c44 0 55 32 55 84c0 67 -28 97 -100 97zM170 48c44 -1 106 32 154 85c-6 32 -9 68 -9 111v4l-154 -2c-39 -2 -53 -28 -53 -75
v-42c0 -55 20 -81 62 -81z" />
    <glyph glyph-name="b" unicode="b" horiz-adv-x="458" 
d="M271 497c98 0 142 -71 142 -254c0 -172 -39 -255 -172 -255c-55 0 -126 12 -178 33v679h64v-194c0 -40 -2 -69 -8 -103c48 60 100 94 152 94zM240 43c77 0 107 52 107 200c0 146 -20 198 -97 198c-42 0 -77 -30 -124 -80l1 -300c39 -14 79 -19 113 -18z" />
    <glyph glyph-name="c" unicode="c" horiz-adv-x="392" 
d="M231 497c34 0 86 -5 124 -22l-9 -41c-34 6 -77 8 -105 8c-95 0 -129 -45 -129 -200s34 -199 129 -199c24 0 75 2 115 11l6 -44c-38 -14 -87 -22 -132 -22c-135 0 -185 67 -185 254s50 255 186 255z" />
    <glyph glyph-name="cacute" unicode="&#x107;" horiz-adv-x="392" 
d="M339 678l-151 -128l-23 30l137 146zM231 497c34 0 86 -5 124 -22l-9 -41c-34 6 -77 8 -105 8c-95 0 -129 -45 -129 -200s34 -199 129 -199c24 0 75 2 115 11l6 -44c-38 -14 -87 -22 -132 -22c-135 0 -185 67 -185 254s50 255 186 255z" />
    <glyph glyph-name="ccaron" unicode="&#x10d;" horiz-adv-x="392" 
d="M347 689l-115 -123h-30l-114 123l21 28l105 -92h6l105 92zM231 497c34 0 86 -5 124 -22l-9 -41c-34 6 -77 8 -105 8c-95 0 -129 -45 -129 -200s34 -199 129 -199c24 0 75 2 115 11l6 -44c-38 -14 -87 -22 -132 -22c-135 0 -185 67 -185 254s50 255 186 255z" />
    <glyph glyph-name="ccedilla" unicode="&#xe7;" horiz-adv-x="392" 
d="M231 497c34 0 86 -5 124 -22l-9 -41c-34 6 -77 8 -105 8c-95 0 -129 -45 -129 -200s34 -199 129 -199c24 0 75 2 115 11l6 -44c-38 -14 -87 -22 -132 -22c-135 0 -185 67 -185 254s50 255 186 255zM184 -88l6 31c61 6 89 -9 88 -65c-2 -79 -57 -128 -133 -116l10 35
c45 -2 75 32 76 77c1 28 -9 37 -47 38z" />
    <glyph glyph-name="cdotaccent" unicode="&#x10b;" horiz-adv-x="392" 
d="M206 684h21c12 0 19 -7 19 -21v-59c0 -13 -7 -20 -19 -20h-21c-13 0 -20 7 -20 20v59c0 14 7 21 20 21zM231 497c34 0 86 -5 124 -22l-9 -41c-34 6 -77 8 -105 8c-95 0 -129 -45 -129 -200s34 -199 129 -199c24 0 75 2 115 11l6 -44c-38 -14 -87 -22 -132 -22
c-135 0 -185 67 -185 254s50 255 186 255z" />
    <glyph glyph-name="d" unicode="d" horiz-adv-x="460" 
d="M396 700v-700h-50l-6 73c-43 -50 -95 -85 -155 -85c-100 0 -139 81 -139 255c0 187 48 254 147 254c49 0 98 -16 143 -46c-3 32 -4 59 -4 94v155h64zM205 44c44 0 73 23 127 75v288c-48 21 -81 34 -123 34c-71 0 -97 -45 -97 -197c0 -153 26 -200 93 -200z" />
    <glyph glyph-name="eth" unicode="&#xf0;" horiz-adv-x="449" 
d="M355 676l-56 -51c58 -60 97 -167 97 -344c0 -166 -29 -293 -175 -293c-120 0 -175 69 -175 232c0 142 42 227 163 227c34 0 75 -9 114 -39c-11 86 -35 143 -65 180l-66 -60l-24 30l62 57c-41 32 -90 38 -135 37l8 46c58 2 117 -9 168 -47l61 56zM221 42
c96 0 109 92 109 245c0 28 -1 53 -3 77c-36 22 -69 29 -108 29c-82 0 -106 -68 -106 -173c0 -131 34 -178 108 -178z" />
    <glyph glyph-name="dcaron" unicode="&#x10f;" horiz-adv-x="460" 
d="M467 703h17c16 0 21 -6 21 -21v-53c-1 -41 -10 -85 -24 -120l-27 7c5 34 7 57 7 98c-10 0 -17 7 -16 18v50c1 15 7 21 22 21zM332 700h64v-700h-50l-6 73c-43 -50 -95 -85 -155 -85c-100 0 -139 81 -139 255c0 187 48 254 147 254c49 0 98 -16 143 -46c-3 32 -4 59 -4 94
v155zM205 44c44 0 73 23 127 75v288c-48 21 -81 34 -123 34c-71 0 -97 -45 -97 -197c0 -153 26 -200 93 -200z" />
    <glyph glyph-name="dcroat" unicode="&#x111;" horiz-adv-x="456" 
d="M450 579h-54v-579h-50l-6 73c-43 -50 -95 -85 -155 -85c-100 0 -139 81 -139 255c0 187 48 254 147 254c49 0 98 -16 143 -46c-3 32 -4 59 -4 94v34h-126v39h126v82h64v-82h54v-39zM205 44c44 0 73 23 127 75v288c-48 21 -81 34 -123 34c-71 0 -97 -45 -97 -197
c0 -153 26 -200 93 -200z" />
    <glyph glyph-name="e" unicode="e" horiz-adv-x="432" 
d="M238 43c44 0 98 6 137 12l6 -43c-35 -16 -105 -24 -151 -24c-133 0 -185 70 -185 256c0 189 53 253 179 253c116 0 166 -51 166 -151c1 -87 -27 -135 -92 -135h-185c5 -132 41 -168 125 -168zM227 442c-85 0 -113 -44 -115 -181h170c36 0 45 36 44 84c0 68 -28 97 -99 97
z" />
    <glyph glyph-name="eacute" unicode="&#xe9;" horiz-adv-x="432" 
d="M195 550l-23 30l137 146l37 -48zM238 43c44 0 98 6 137 12l6 -43c-35 -16 -105 -24 -151 -24c-133 0 -185 70 -185 256c0 189 53 253 179 253c116 0 166 -51 166 -151c1 -87 -27 -135 -92 -135h-185c5 -132 41 -168 125 -168zM227 442c-85 0 -113 -44 -115 -181h170
c36 0 45 36 44 84c0 68 -28 97 -99 97z" />
    <glyph glyph-name="ecaron" unicode="&#x11b;" horiz-adv-x="432" 
d="M209 566l-114 123l21 28l105 -92h6l105 92l22 -28l-115 -123h-30zM238 43c44 0 98 6 137 12l6 -43c-35 -16 -105 -24 -151 -24c-133 0 -185 70 -185 256c0 189 53 253 179 253c116 0 166 -51 166 -151c1 -87 -27 -135 -92 -135h-185c5 -132 41 -168 125 -168zM227 442
c-85 0 -113 -44 -115 -181h170c36 0 45 36 44 84c0 68 -28 97 -99 97z" />
    <glyph glyph-name="ecircumflex" unicode="&#xea;" horiz-adv-x="432" 
d="M115 558l-21 28l106 124h47l106 -124l-23 -28l-104 99h-6zM238 43c44 0 98 6 137 12l6 -43c-35 -16 -105 -24 -151 -24c-133 0 -185 70 -185 256c0 189 53 253 179 253c116 0 166 -51 166 -151c1 -87 -27 -135 -92 -135h-185c5 -132 41 -168 125 -168zM227 442
c-85 0 -113 -44 -115 -181h170c36 0 45 36 44 84c0 68 -28 97 -99 97z" />
    <glyph glyph-name="edieresis" unicode="&#xeb;" horiz-adv-x="432" 
d="M163 591h-22c-12 0 -17 6 -17 19v55c0 12 5 20 17 20h22c12 0 18 -8 18 -20v-55c0 -13 -6 -19 -18 -19zM305 591h-21c-13 0 -18 6 -18 19v55c0 12 5 20 18 20h21c12 0 19 -8 19 -20v-55c0 -13 -7 -19 -19 -19zM238 43c44 0 98 6 137 12l6 -43c-35 -16 -105 -24 -151 -24
c-133 0 -185 70 -185 256c0 189 53 253 179 253c116 0 166 -51 166 -151c1 -87 -27 -135 -92 -135h-185c5 -132 41 -168 125 -168zM227 442c-85 0 -113 -44 -115 -181h170c36 0 45 36 44 84c0 68 -28 97 -99 97z" />
    <glyph glyph-name="edotaccent" unicode="&#x117;" horiz-adv-x="432" 
d="M234 584h-21c-13 0 -20 7 -20 20v59c0 14 7 21 20 21h21c12 0 19 -7 19 -21v-59c0 -13 -7 -20 -19 -20zM238 43c44 0 98 6 137 12l6 -43c-35 -16 -105 -24 -151 -24c-133 0 -185 70 -185 256c0 189 53 253 179 253c116 0 166 -51 166 -151c1 -87 -27 -135 -92 -135h-185
c5 -132 41 -168 125 -168zM227 442c-85 0 -113 -44 -115 -181h170c36 0 45 36 44 84c0 68 -28 97 -99 97z" />
    <glyph glyph-name="egrave" unicode="&#xe8;" horiz-adv-x="432" 
d="M241 550l-151 128l37 48l137 -146zM238 43c44 0 98 6 137 12l6 -43c-35 -16 -105 -24 -151 -24c-133 0 -185 70 -185 256c0 189 53 253 179 253c116 0 166 -51 166 -151c1 -87 -27 -135 -92 -135h-185c5 -132 41 -168 125 -168zM227 442c-85 0 -113 -44 -115 -181h170
c36 0 45 36 44 84c0 68 -28 97 -99 97z" />
    <glyph glyph-name="emacron" unicode="&#x113;" horiz-adv-x="432" 
d="M336 612h-224v49h224v-49zM238 43c44 0 98 6 137 12l6 -43c-35 -16 -105 -24 -151 -24c-133 0 -185 70 -185 256c0 189 53 253 179 253c116 0 166 -51 166 -151c1 -87 -27 -135 -92 -135h-185c5 -132 41 -168 125 -168zM227 442c-85 0 -113 -44 -115 -181h170
c36 0 45 36 44 84c0 68 -28 97 -99 97z" />
    <glyph glyph-name="eogonek" unicode="&#x119;" horiz-adv-x="432" 
d="M385 -154l8 -28c-100 -50 -137 6 -118 74c9 30 27 67 63 107c-35 -7 -77 -11 -108 -11c-133 0 -185 70 -185 256c0 189 53 253 179 253c116 0 166 -51 166 -151c1 -87 -27 -135 -92 -135h-185c5 -132 41 -168 125 -168c44 0 98 6 137 12l6 -43c-24 -35 -46 -71 -60 -118
c-17 -54 12 -71 64 -48zM227 442c-85 0 -113 -44 -115 -181h170c36 0 45 36 44 84c0 68 -28 97 -99 97z" />
    <glyph glyph-name="f" unicode="f" horiz-adv-x="304" 
d="M310 663h-81c-53 0 -71 -25 -71 -92v-87h127v-50h-127v-434h-64v434h-71v45l71 5v93c0 89 30 139 113 139c25 0 78 -2 108 -6z" />
    <glyph glyph-name="g" unicode="g" horiz-adv-x="448" 
d="M426 448l-64 -5c15 -24 22 -57 22 -99c0 -105 -42 -152 -166 -152c-34 0 -62 3 -84 11c-19 -38 -17 -88 28 -98l147 -31c72 -14 98 -52 98 -134c0 -109 -46 -145 -185 -145c-140 0 -188 36 -188 144c0 61 16 94 70 127c-49 33 -42 115 -3 152c-36 24 -50 65 -50 126
c0 105 43 153 167 153c37 0 67 -4 90 -13h122zM218 241c80 0 106 31 106 103s-26 103 -106 103c-81 0 -109 -31 -109 -103s28 -103 109 -103zM345 -56c0 55 -14 71 -68 82l-131 26l-1 -1c-40 -35 -48 -62 -48 -105c0 -76 25 -97 122 -97c101 0 126 21 126 95z" />
    <glyph glyph-name="gbreve" unicode="&#x11f;" horiz-adv-x="448" 
d="M219 568c-77 0 -124 50 -120 125l33 6c0 -52 31 -82 87 -82c54 0 86 30 86 82l33 -6c3 -75 -43 -125 -119 -125zM426 448l-64 -5c15 -24 22 -57 22 -99c0 -105 -42 -152 -166 -152c-34 0 -62 3 -84 11c-19 -38 -17 -88 28 -98l147 -31c72 -14 98 -52 98 -134
c0 -109 -46 -145 -185 -145c-140 0 -188 36 -188 144c0 61 16 94 70 127c-49 33 -42 115 -3 152c-36 24 -50 65 -50 126c0 105 43 153 167 153c37 0 67 -4 90 -13h122zM218 241c80 0 106 31 106 103s-26 103 -106 103c-81 0 -109 -31 -109 -103s28 -103 109 -103zM345 -56
c0 55 -14 71 -68 82l-131 26l-1 -1c-40 -35 -48 -62 -48 -105c0 -76 25 -97 122 -97c101 0 126 21 126 95z" />
    <glyph glyph-name="gcommaaccent" unicode="&#x123;" horiz-adv-x="448" 
d="M236 560h-17c-16 0 -21 5 -21 21v56c1 44 9 89 24 127l28 -8c-5 -36 -7 -60 -7 -103c10 0 16 -7 16 -19v-53c-1 -16 -8 -21 -23 -21zM426 448l-64 -5c15 -24 22 -57 22 -99c0 -105 -42 -152 -166 -152c-34 0 -62 3 -84 11c-19 -38 -17 -88 28 -98l147 -31
c72 -14 98 -52 98 -134c0 -109 -46 -145 -185 -145c-140 0 -188 36 -188 144c0 61 16 94 70 127c-49 33 -42 115 -3 152c-36 24 -50 65 -50 126c0 105 43 153 167 153c37 0 67 -4 90 -13h122zM218 241c80 0 106 31 106 103s-26 103 -106 103c-81 0 -109 -31 -109 -103
s28 -103 109 -103zM345 -56c0 55 -14 71 -68 82l-131 26l-1 -1c-40 -35 -48 -62 -48 -105c0 -76 25 -97 122 -97c101 0 126 21 126 95z" />
    <glyph glyph-name="gdotaccent" unicode="&#x121;" horiz-adv-x="448" 
d="M230 584h-21c-13 0 -20 7 -20 20v59c0 14 7 21 20 21h21c12 0 19 -7 19 -21v-59c0 -13 -7 -20 -19 -20zM426 448l-64 -5c15 -24 22 -57 22 -99c0 -105 -42 -152 -166 -152c-34 0 -62 3 -84 11c-19 -38 -17 -88 28 -98l147 -31c72 -14 98 -52 98 -134
c0 -109 -46 -145 -185 -145c-140 0 -188 36 -188 144c0 61 16 94 70 127c-49 33 -42 115 -3 152c-36 24 -50 65 -50 126c0 105 43 153 167 153c37 0 67 -4 90 -13h122zM218 241c80 0 106 31 106 103s-26 103 -106 103c-81 0 -109 -31 -109 -103s28 -103 109 -103zM345 -56
c0 55 -14 71 -68 82l-131 26l-1 -1c-40 -35 -48 -62 -48 -105c0 -76 25 -97 122 -97c101 0 126 21 126 95z" />
    <glyph glyph-name="h" unicode="h" horiz-adv-x="466" 
d="M298 497c70 0 106 -46 106 -133v-364h-63v347c0 69 -17 95 -60 95c-47 0 -89 -29 -153 -82v-360h-64v700h64v-201c0 -35 -2 -67 -5 -94c59 57 117 92 175 92z" />
    <glyph glyph-name="hbar" unicode="&#x127;" horiz-adv-x="469" 
d="M301 497c70 0 106 -46 106 -133v-364h-63v347c0 69 -17 95 -60 95c-47 0 -89 -29 -153 -82v-360h-64v579h-62v39h62v82h64v-82h118v-39h-118v-80c0 -35 -2 -67 -5 -94c59 57 117 92 175 92z" />
    <glyph glyph-name="i" unicode="i" horiz-adv-x="199" 
d="M84 688h30c13 0 20 -7 20 -21v-58c0 -14 -7 -21 -20 -21h-30c-13 0 -19 7 -19 21v58c0 14 6 21 19 21zM131 0h-63v484h63v-484z" />
    <glyph glyph-name="dotlessi" unicode="&#x131;" horiz-adv-x="199" 
d="M132 0h-64v484h64v-484z" />
    <glyph glyph-name="iacute" unicode="&#xed;" horiz-adv-x="199" 
d="M222 678l-151 -128l-23 30l137 146zM132 0h-64v484h64v-484z" />
    <glyph glyph-name="icircumflex" unicode="&#xee;" horiz-adv-x="199" 
d="M229 586l-23 -28l-104 99h-6l-105 -99l-21 28l106 124h47zM132 0h-64v484h64v-484z" />
    <glyph glyph-name="idieresis" unicode="&#xef;" horiz-adv-x="199" 
d="M17 685h22c12 0 18 -8 18 -20v-55c0 -13 -6 -19 -18 -19h-22c-12 0 -17 6 -17 19v55c0 12 5 20 17 20zM160 685h21c12 0 19 -8 19 -20v-55c0 -13 -7 -19 -19 -19h-21c-13 0 -18 6 -18 19v55c0 12 5 20 18 20zM132 0h-64v484h64v-484z" />
    <glyph glyph-name="igrave" unicode="&#xec;" horiz-adv-x="199" 
d="M139 580l-23 -30l-151 128l37 48zM132 0h-64v484h64v-484z" />
    <glyph glyph-name="ij" unicode="&#x133;" horiz-adv-x="398" 
d="M84 688h30c13 0 20 -7 20 -21v-58c0 -14 -7 -21 -20 -21h-30c-13 0 -19 7 -19 21v58c0 14 6 21 19 21zM284 688h30c13 0 20 -7 20 -21v-58c0 -14 -7 -21 -20 -21h-30c-13 0 -20 7 -20 21v58c0 14 7 21 20 21zM131 0h-63v484h63v-484zM331 484v-508
c0 -73 -28 -138 -74 -182l-35 28c30 46 45 91 45 154v508h64z" />
    <glyph glyph-name="imacron" unicode="&#x12b;" horiz-adv-x="199" 
d="M211 612h-224v49h224v-49zM132 0h-64v484h64v-484z" />
    <glyph glyph-name="iogonek" unicode="&#x12f;" horiz-adv-x="199" 
d="M110 584h-21c-13 0 -20 7 -20 20v59c0 14 7 21 20 21h21c12 0 19 -7 19 -21v-59c0 -13 -7 -20 -19 -20zM129 -166l8 -28c-100 -50 -137 6 -118 74c10 34 31 75 75 120h-26v484h64v-484h-7c-24 -35 -46 -71 -60 -118c-17 -54 12 -71 64 -48z" />
    <glyph glyph-name="j" unicode="j" horiz-adv-x="199" 
d="M85 688h30c13 0 20 -7 20 -21v-58c0 -14 -7 -21 -20 -21h-30c-13 0 -20 7 -20 21v58c0 14 7 21 20 21zM132 484v-508c0 -73 -28 -138 -74 -182l-35 28c30 46 45 91 45 154v508h64z" />
    <glyph glyph-name="k" unicode="k" horiz-adv-x="407" 
d="M176 251h-52c2 -28 4 -55 4 -81v-170h-64v700h64v-318c0 -31 -1 -56 -4 -83h52l129 185h73l-124 -181c-7 -10 -20 -23 -27 -28v-2c7 -6 20 -22 27 -34l137 -239h-72z" />
    <glyph glyph-name="kcommaaccent" unicode="&#x137;" horiz-adv-x="407" 
d="M391 0h-72l-143 251h-52c2 -28 4 -55 4 -81v-170h-64v700h64v-318c0 -31 -1 -56 -4 -83h52l129 185h73l-124 -181c-7 -10 -20 -23 -27 -28v-2c7 -6 20 -22 27 -34zM213 -61h17c16 0 21 -5 21 -21v-56c-1 -44 -9 -89 -24 -127l-28 8c5 36 7 60 7 103c-10 0 -16 7 -16 19
v53c1 16 8 21 23 21z" />
    <glyph glyph-name="l" unicode="l" horiz-adv-x="237" 
d="M129 700l-1 -580c0 -46 19 -70 54 -70h39l8 -48c-15 -6 -51 -10 -70 -10c-57 0 -94 41 -94 116v592h64z" />
    <glyph glyph-name="lacute" unicode="&#x13a;" horiz-adv-x="237" 
d="M220 881l-151 -128l-23 30l137 146zM129 700l-1 -580c0 -46 19 -70 54 -70h39l8 -48c-15 -6 -51 -10 -70 -10c-57 0 -94 41 -94 116v592h64z" />
    <glyph glyph-name="lcaron" unicode="&#x13e;" horiz-adv-x="237" 
d="M201 703h17c16 0 21 -6 21 -21v-53c-1 -41 -10 -85 -24 -120l-27 7c5 34 7 57 7 98c-10 0 -17 7 -16 18v50c1 15 7 21 22 21zM129 700l-1 -580c0 -46 19 -70 54 -70h39l8 -48c-15 -6 -51 -10 -70 -10c-57 0 -94 41 -94 116v592h64z" />
    <glyph glyph-name="lcommaaccent" unicode="&#x13c;" horiz-adv-x="237" 
d="M129 700l-1 -580c0 -46 19 -70 54 -70h39l8 -48c-15 -6 -51 -10 -70 -10c-57 0 -94 41 -94 116v592h64zM131 -66h17c16 0 21 -5 21 -21v-56c-1 -44 -9 -89 -24 -127l-28 8c5 36 7 60 7 103c-10 0 -16 7 -16 19v53c1 16 8 21 23 21z" />
    <glyph glyph-name="ldot" unicode="&#x140;" horiz-adv-x="257" 
d="M129 700l-1 -580c0 -46 19 -70 54 -70h39l8 -48c-15 -6 -51 -10 -70 -10c-57 0 -94 41 -94 116v592h64zM233 339h-21c-13 0 -20 8 -20 21v59c0 14 7 21 20 21h21c12 0 19 -7 19 -21v-59c0 -13 -7 -21 -19 -21z" />
    <glyph glyph-name="lslash" unicode="&#x142;" horiz-adv-x="261" 
d="M239 50l8 -48c-15 -6 -51 -10 -70 -10c-57 0 -94 41 -94 116v234l-65 -33v43l65 33v315h64v-283l87 45v-43l-88 -45v-254c0 -46 19 -70 54 -70h39z" />
    <glyph glyph-name="m" unicode="m" horiz-adv-x="705" 
d="M539 497c68 0 104 -46 104 -133v-364h-62v347c-1 66 -19 95 -63 95c-42 0 -73 -26 -133 -82v-360h-62v347c1 68 -20 95 -63 95c-40 0 -72 -25 -132 -82v-360h-64v484h52l4 -79c55 61 107 92 161 92c55 0 89 -31 100 -89c54 60 105 89 158 89z" />
    <glyph glyph-name="n" unicode="n" horiz-adv-x="466" 
d="M299 497c69 0 106 -46 106 -133v-364h-64v347c0 69 -17 95 -59 95c-47 0 -90 -30 -154 -83v-359h-64v484h54l4 -79c61 59 118 92 177 92z" />
    <glyph glyph-name="nacute" unicode="&#x144;" horiz-adv-x="466" 
d="M209 550l-23 30l137 146l37 -48zM299 497c69 0 106 -46 106 -133v-364h-64v347c0 69 -17 95 -59 95c-47 0 -90 -30 -154 -83v-359h-64v484h54l4 -79c61 59 118 92 177 92z" />
    <glyph glyph-name="ncaron" unicode="&#x148;" horiz-adv-x="466" 
d="M223 566l-114 123l21 28l105 -92h6l105 92l22 -28l-115 -123h-30zM299 497c69 0 106 -46 106 -133v-364h-64v347c0 69 -17 95 -59 95c-47 0 -90 -30 -154 -83v-359h-64v484h54l4 -79c61 59 118 92 177 92z" />
    <glyph glyph-name="ncommaaccent" unicode="&#x146;" horiz-adv-x="466" 
d="M299 497c69 0 106 -46 106 -133v-364h-64v347c0 69 -17 95 -59 95c-47 0 -90 -30 -154 -83v-359h-64v484h54l4 -79c61 59 118 92 177 92zM226 -60h17c17 0 21 -6 21 -22v-56c0 -44 -9 -89 -24 -127l-28 9c5 35 7 59 7 102c-10 0 -16 7 -16 19v53c1 16 8 22 23 22z" />
    <glyph glyph-name="eng" unicode="&#x14b;" horiz-adv-x="466" 
d="M298 497c71 0 107 -46 107 -133v-439c0 -86 -33 -132 -99 -132c-18 0 -45 4 -66 11l7 40h35c39 0 59 28 59 85v418c0 64 -16 91 -61 91c-44 0 -93 -30 -152 -81v-357h-64v484h50l6 -83c61 63 121 96 178 96z" />
    <glyph glyph-name="ntilde" unicode="&#xf1;" horiz-adv-x="466" 
d="M141 589h-30c-7 73 23 109 62 105c50 -5 74 -54 120 -60c30 -4 39 14 39 55h31c6 -69 -22 -106 -63 -102c-54 5 -80 55 -120 61c-30 4 -39 -16 -39 -59zM299 497c69 0 106 -46 106 -133v-364h-64v347c0 69 -17 95 -59 95c-47 0 -90 -30 -154 -83v-359h-64v484h54l4 -79
c61 59 118 92 177 92z" />
    <glyph glyph-name="o" unicode="o" horiz-adv-x="456" 
d="M228 497c134 0 183 -69 183 -255s-49 -254 -183 -254c-133 0 -183 68 -183 254s50 255 183 255zM228 442c-87 0 -116 -47 -116 -200s29 -200 116 -200c88 0 117 47 117 200s-29 200 -117 200z" />
    <glyph glyph-name="oacute" unicode="&#xf3;" horiz-adv-x="456" 
d="M351 678l-151 -128l-23 30l137 146zM228 497c134 0 183 -69 183 -255s-49 -254 -183 -254c-133 0 -183 68 -183 254s50 255 183 255zM228 442c-87 0 -116 -47 -116 -200s29 -200 116 -200c88 0 117 47 117 200s-29 200 -117 200z" />
    <glyph glyph-name="ocircumflex" unicode="&#xf4;" horiz-adv-x="456" 
d="M358 586l-23 -28l-104 99h-6l-105 -99l-21 28l106 124h47zM228 497c134 0 183 -69 183 -255s-49 -254 -183 -254c-133 0 -183 68 -183 254s50 255 183 255zM228 442c-87 0 -116 -47 -116 -200s29 -200 116 -200c88 0 117 47 117 200s-29 200 -117 200z" />
    <glyph glyph-name="odieresis" unicode="&#xf6;" horiz-adv-x="456" 
d="M146 685h22c12 0 18 -8 18 -20v-55c0 -13 -6 -19 -18 -19h-22c-12 0 -17 6 -17 19v55c0 12 5 20 17 20zM289 685h21c12 0 19 -8 19 -20v-55c0 -13 -7 -19 -19 -19h-21c-13 0 -18 6 -18 19v55c0 12 5 20 18 20zM228 497c134 0 183 -69 183 -255s-49 -254 -183 -254
c-133 0 -183 68 -183 254s50 255 183 255zM228 442c-87 0 -116 -47 -116 -200s29 -200 116 -200c88 0 117 47 117 200s-29 200 -117 200z" />
    <glyph glyph-name="ograve" unicode="&#xf2;" horiz-adv-x="456" 
d="M268 580l-23 -30l-151 128l37 48zM228 497c134 0 183 -69 183 -255s-49 -254 -183 -254c-133 0 -183 68 -183 254s50 255 183 255zM228 442c-87 0 -116 -47 -116 -200s29 -200 116 -200c88 0 117 47 117 200s-29 200 -117 200z" />
    <glyph glyph-name="ohungarumlaut" unicode="&#x151;" horiz-adv-x="456" 
d="M261 702l-107 -156l-29 21l89 168zM391 702l-107 -156l-28 21l88 168zM228 497c134 0 183 -69 183 -255s-49 -254 -183 -254c-133 0 -183 68 -183 254s50 255 183 255zM228 442c-87 0 -116 -47 -116 -200s29 -200 116 -200c88 0 117 47 117 200s-29 200 -117 200z" />
    <glyph glyph-name="omacron" unicode="&#x14d;" horiz-adv-x="456" 
d="M340 612h-224v49h224v-49zM228 497c134 0 183 -69 183 -255s-49 -254 -183 -254c-133 0 -183 68 -183 254s50 255 183 255zM228 442c-87 0 -116 -47 -116 -200s29 -200 116 -200c88 0 117 47 117 200s-29 200 -117 200z" />
    <glyph glyph-name="oslash" unicode="&#xf8;" horiz-adv-x="457" 
d="M356 537l-24 -63c56 -33 79 -106 79 -232c0 -186 -49 -254 -183 -254c-29 0 -55 3 -76 10l-26 -68l-31 15l26 68c-54 34 -76 106 -76 229c0 186 50 255 183 255c28 0 52 -3 72 -9l25 65zM112 242c0 -85 9 -138 32 -167l136 359c-15 5 -32 8 -52 8
c-87 0 -116 -47 -116 -200zM228 42c88 0 117 47 117 200c0 90 -10 143 -36 172l-137 -362c15 -7 34 -10 56 -10z" />
    <glyph glyph-name="otilde" unicode="&#xf5;" horiz-adv-x="456" 
d="M164 694c50 -5 74 -54 120 -60c30 -4 39 14 39 55h31c6 -69 -22 -106 -63 -102c-54 5 -80 55 -120 61c-30 4 -39 -16 -39 -59h-30c-7 73 23 109 62 105zM228 497c134 0 183 -69 183 -255s-49 -254 -183 -254c-133 0 -183 68 -183 254s50 255 183 255zM228 442
c-87 0 -116 -47 -116 -200s29 -200 116 -200c88 0 117 47 117 200s-29 200 -117 200z" />
    <glyph glyph-name="oe" unicode="&#x153;" horiz-adv-x="731" 
d="M539 43c42 0 96 6 135 12l6 -43c-35 -16 -106 -24 -150 -24c-74 0 -123 21 -152 71c-28 -50 -76 -71 -150 -71c-133 0 -183 68 -183 254s50 255 183 255c73 0 121 -20 149 -69c27 49 73 69 142 69c120 0 171 -53 171 -145c0 -105 -34 -139 -121 -139h-158
c5 -134 42 -170 128 -170zM228 42c82 0 113 41 117 170l-1 33v30c-4 127 -35 167 -116 167c-87 0 -116 -47 -116 -200s29 -200 116 -200zM521 442c-78 0 -107 -43 -111 -166v-14h155c46 0 64 23 61 89c-2 61 -33 91 -105 91z" />
    <glyph glyph-name="p" unicode="p" horiz-adv-x="466" 
d="M284 497c97 0 136 -83 136 -257c0 -185 -48 -252 -149 -252c-50 0 -99 17 -146 50c3 -33 3 -61 3 -95v-147h-64v688h52l6 -79c44 58 106 92 162 92zM256 44c71 0 97 45 97 197c0 148 -25 200 -89 200c-43 0 -82 -26 -136 -83v-278c50 -22 86 -36 128 -36z" />
    <glyph glyph-name="thorn" unicode="&#xfe;" horiz-adv-x="459" 
d="M272 496c103 0 142 -75 142 -256c0 -187 -43 -252 -143 -252c-49 0 -99 15 -146 44c3 -30 3 -57 3 -89v-147h-64v904h64v-182c0 -34 0 -61 -3 -93c43 45 91 71 147 71zM251 41c70 0 97 50 97 199c0 152 -28 201 -94 201c-40 0 -78 -25 -126 -74v-286
c48 -26 86 -40 123 -40z" />
    <glyph glyph-name="q" unicode="q" horiz-adv-x="458" 
d="M220 497c50 0 122 -12 175 -34v-667h-63l-1 178c0 38 1 65 6 96c-49 -51 -101 -82 -157 -82c-92 0 -135 77 -135 253c0 175 40 256 175 256zM200 44c48 0 83 26 132 73v306c-40 14 -81 20 -112 19c-80 -1 -109 -47 -109 -205c0 -135 20 -193 89 -193z" />
    <glyph glyph-name="r" unicode="r" horiz-adv-x="321" 
d="M306 497l-7 -60h-22c-45 0 -86 -27 -149 -74v-363h-64v484h50l6 -80c58 59 115 93 169 93h17z" />
    <glyph glyph-name="racute" unicode="&#x155;" horiz-adv-x="321" 
d="M155 550l-23 30l137 146l37 -48zM114 484l6 -80c58 59 115 93 169 93h17l-7 -60h-22c-45 0 -86 -27 -149 -74v-363h-64v484h50z" />
    <glyph glyph-name="rcaron" unicode="&#x159;" horiz-adv-x="321" 
d="M169 566l-114 123l21 28l105 -92h6l105 92l22 -28l-115 -123h-30zM114 484l6 -80c58 59 115 93 169 93h17l-7 -60h-22c-45 0 -86 -27 -149 -74v-363h-64v484h50z" />
    <glyph glyph-name="rcommaaccent" unicode="&#x157;" horiz-adv-x="321" 
d="M306 497l-7 -60h-22c-45 0 -86 -27 -149 -74v-363h-64v484h50l6 -80c58 59 115 93 169 93h17zM82 -61h17c16 0 21 -5 21 -21v-56c-1 -44 -9 -89 -24 -127l-28 8c5 36 7 60 7 103c-10 0 -16 7 -16 19v53c1 16 8 21 23 21z" />
    <glyph glyph-name="s" unicode="s" horiz-adv-x="408" 
d="M193 497c51 -1 116 -6 164 -15l-6 -46c-49 3 -100 6 -149 6c-74 1 -98 -1 -98 -77c0 -58 19 -71 57 -81l116 -28c61 -15 91 -49 91 -130c0 -120 -54 -137 -167 -137c-29 0 -86 1 -152 13l5 47c39 -5 85 -7 135 -6c89 1 117 12 117 83c0 57 -25 70 -62 79l-114 28
c-63 15 -89 51 -89 132c0 116 47 133 152 132z" />
    <glyph glyph-name="sacute" unicode="&#x15b;" horiz-adv-x="408" 
d="M334 678l-151 -128l-23 30l137 146zM193 497c51 -1 116 -6 164 -15l-6 -46c-49 3 -100 6 -149 6c-74 1 -98 -1 -98 -77c0 -58 19 -71 57 -81l116 -28c61 -15 91 -49 91 -130c0 -120 -54 -137 -167 -137c-29 0 -86 1 -152 13l5 47c39 -5 85 -7 135 -6c89 1 117 12 117 83
c0 57 -25 70 -62 79l-114 28c-63 15 -89 51 -89 132c0 116 47 133 152 132z" />
    <glyph glyph-name="scaron" unicode="&#x161;" horiz-adv-x="408" 
d="M342 689l-115 -123h-30l-114 123l21 28l105 -92h6l105 92zM193 497c51 -1 116 -6 164 -15l-6 -46c-49 3 -100 6 -149 6c-74 1 -98 -1 -98 -77c0 -58 19 -71 57 -81l116 -28c61 -15 91 -49 91 -130c0 -120 -54 -137 -167 -137c-29 0 -86 1 -152 13l5 47
c39 -5 85 -7 135 -6c89 1 117 12 117 83c0 57 -25 70 -62 79l-114 28c-63 15 -89 51 -89 132c0 116 47 133 152 132z" />
    <glyph glyph-name="scedilla" unicode="&#x15f;" horiz-adv-x="408" 
d="M193 497c51 -1 116 -6 164 -15l-6 -46c-49 3 -100 6 -149 6c-74 1 -98 -1 -98 -77c0 -58 19 -71 57 -81l116 -28c61 -15 91 -49 91 -130c0 -120 -54 -137 -167 -137c-29 0 -86 1 -152 13l5 47c39 -5 85 -7 135 -6c89 1 117 12 117 83c0 57 -25 70 -62 79l-114 28
c-63 15 -89 51 -89 132c0 116 47 133 152 132zM160 -87l6 31c61 6 89 -9 88 -65c-2 -79 -57 -128 -133 -116l10 35c45 -2 75 32 76 77c1 28 -9 37 -47 38z" />
    <glyph glyph-name="scommaaccent" unicode="&#x219;" horiz-adv-x="408" 
d="M193 497c51 -1 116 -6 164 -15l-6 -46c-49 3 -100 6 -149 6c-74 1 -98 -1 -98 -77c0 -58 19 -71 57 -81l116 -28c61 -15 91 -49 91 -130c0 -120 -54 -137 -167 -137c-29 0 -86 1 -152 13l5 47c39 -5 85 -7 135 -6c89 1 117 12 117 83c0 57 -25 70 -62 79l-114 28
c-63 15 -89 51 -89 132c0 116 47 133 152 132zM202 -61h17c16 0 21 -5 21 -21v-56c-1 -44 -9 -89 -24 -127l-28 8c5 36 7 60 7 103c-10 0 -16 7 -16 19v53c1 16 8 21 23 21z" />
    <glyph glyph-name="germandbls" unicode="&#xdf;" horiz-adv-x="541" 
d="M353 295l87 -43c48 -25 70 -54 70 -127c0 -117 -49 -136 -140 -136c-34 0 -78 2 -130 11l5 48c41 -5 80 -6 113 -6c63 1 90 9 90 85c0 54 -19 67 -54 84l-88 45c-40 20 -66 51 -66 109c0 80 45 96 101 131c40 25 53 45 53 96c0 52 -27 73 -117 73
c-92 0 -119 -25 -119 -132v-533h-64v433h-71v49l71 2v55c0 160 67 179 180 179c127 0 180 -29 180 -125c0 -65 -15 -95 -71 -131c-54 -33 -82 -39 -82 -96c0 -40 20 -54 52 -71z" />
    <glyph glyph-name="t" unicode="t" horiz-adv-x="304" 
d="M156 434v-314c0 -49 16 -70 54 -70h61l8 -48c-25 -6 -68 -10 -87 -10c-66 0 -99 43 -99 121v321h-71v45l71 5v147h63v-147h127v-50h-127z" />
    <glyph glyph-name="tbar" unicode="&#x167;" horiz-adv-x="305" 
d="M156 434v-104h108v-38h-108v-172c0 -49 16 -70 54 -70h61l8 -48c-25 -6 -68 -10 -87 -10c-66 0 -99 43 -99 121v179h-53v38h53v104h-71v45l71 5v147h63v-147h127v-50h-127z" />
    <glyph glyph-name="tcaron" unicode="&#x165;" horiz-adv-x="304" 
d="M231 669c-10 0 -16 7 -16 19v53c1 16 8 21 23 21h17c16 0 21 -5 21 -21v-56c-1 -44 -9 -89 -24 -127l-28 8c5 36 7 60 7 103zM156 434v-314c0 -49 16 -70 54 -70h61l8 -48c-25 -6 -68 -10 -87 -10c-66 0 -99 43 -99 121v321h-71v45l71 5v147h63v-147h127v-50h-127z" />
    <glyph glyph-name="tcedilla" unicode="&#x163;" horiz-adv-x="304" 
d="M156 434v-314c0 -49 16 -70 54 -70h61l8 -48c-25 -6 -68 -10 -87 -10c-66 0 -99 43 -99 121v321h-71v45l71 5v147h63v-147h127v-50h-127zM152 -84l6 31c61 6 89 -9 88 -65c-2 -79 -57 -128 -133 -116l10 35c45 -2 75 32 76 77c1 28 -9 37 -47 38z" />
    <glyph glyph-name="uni021B" unicode="&#x21b;" horiz-adv-x="304" 
d="M156 434v-314c0 -49 16 -70 54 -70h61l8 -48c-25 -6 -68 -10 -87 -10c-66 0 -99 43 -99 121v321h-71v45l71 5v147h63v-147h127v-50h-127zM177 -61h17c16 0 21 -5 21 -21v-56c-1 -44 -9 -89 -24 -127l-28 8c5 36 7 60 7 103c-10 0 -16 7 -16 19v53c1 16 8 21 23 21z" />
    <glyph glyph-name="u" unicode="u" horiz-adv-x="458" 
d="M394 484v-484h-51l-6 73c-59 -57 -112 -85 -169 -85c-70 0 -106 45 -106 132v364h64v-347c-1 -67 17 -94 63 -94c44 0 83 27 142 79v362h63z" />
    <glyph glyph-name="uacute" unicode="&#xfa;" horiz-adv-x="458" 
d="M202 553l-23 30l137 146l37 -48zM394 484v-484h-51l-6 73c-59 -57 -112 -85 -169 -85c-70 0 -106 45 -106 132v364h64v-347c-1 -67 17 -94 63 -94c44 0 83 27 142 79v362h63z" />
    <glyph glyph-name="ucircumflex" unicode="&#xfb;" horiz-adv-x="458" 
d="M122 560l-21 28l106 124h47l106 -124l-23 -28l-104 99h-6zM394 484v-484h-51l-6 73c-59 -57 -112 -85 -169 -85c-70 0 -106 45 -106 132v364h64v-347c-1 -67 17 -94 63 -94c44 0 83 27 142 79v362h63z" />
    <glyph glyph-name="udieresis" unicode="&#xfc;" horiz-adv-x="458" 
d="M169 593h-22c-12 0 -17 6 -17 19v55c0 12 5 20 17 20h22c12 0 18 -8 18 -20v-55c0 -13 -6 -19 -18 -19zM311 593h-21c-13 0 -18 6 -18 19v55c0 12 5 20 18 20h21c12 0 19 -8 19 -20v-55c0 -13 -7 -19 -19 -19zM394 484v-484h-51l-6 73c-59 -57 -112 -85 -169 -85
c-70 0 -106 45 -106 132v364h64v-347c-1 -67 17 -94 63 -94c44 0 83 27 142 79v362h63z" />
    <glyph glyph-name="ugrave" unicode="&#xf9;" horiz-adv-x="458" 
d="M247 553l-151 128l37 48l137 -146zM394 484v-484h-51l-6 73c-59 -57 -112 -85 -169 -85c-70 0 -106 45 -106 132v364h64v-347c-1 -67 17 -94 63 -94c44 0 83 27 142 79v362h63z" />
    <glyph glyph-name="uhungarumlaut" unicode="&#x171;" horiz-adv-x="458" 
d="M156 549l-29 21l89 168l47 -33zM258 570l88 168l47 -33l-107 -156zM394 484v-484h-51l-6 73c-59 -57 -112 -85 -169 -85c-70 0 -106 45 -106 132v364h64v-347c-1 -67 17 -94 63 -94c44 0 83 27 142 79v362h63z" />
    <glyph glyph-name="umacron" unicode="&#x16b;" horiz-adv-x="458" 
d="M342 614h-224v49h224v-49zM394 484v-484h-51l-6 73c-59 -57 -112 -85 -169 -85c-70 0 -106 45 -106 132v364h64v-347c-1 -67 17 -94 63 -94c44 0 83 27 142 79v362h63z" />
    <glyph glyph-name="uogonek" unicode="&#x173;" horiz-adv-x="458" 
d="M399 -166l8 -28c-100 -50 -137 6 -118 74c10 34 31 75 75 120h-21l-6 73c-59 -57 -112 -85 -169 -85c-70 0 -106 45 -106 132v364h64v-347c-1 -67 17 -94 63 -94c44 0 83 27 142 79v362h63v-484h1c-24 -35 -46 -71 -60 -118c-17 -54 12 -71 64 -48z" />
    <glyph glyph-name="uring" unicode="&#x16f;" horiz-adv-x="458" 
d="M230 538c-47 0 -85 44 -85 101s39 102 85 102c47 0 86 -45 86 -102s-38 -101 -86 -101zM230 706c-28 0 -49 -28 -49 -67c0 -40 22 -66 49 -66c28 0 49 26 49 66c0 39 -21 67 -49 67zM394 484v-484h-51l-6 73c-59 -57 -112 -85 -169 -85c-70 0 -106 45 -106 132v364h64
v-347c-1 -67 17 -94 63 -94c44 0 83 27 142 79v362h63z" />
    <glyph glyph-name="v" unicode="v" horiz-adv-x="425" 
d="M410 484l-146 -468c-4 -10 -11 -16 -22 -16h-59c-10 0 -19 6 -22 16l-145 468h68l99 -350l24 -87h10c9 29 18 59 26 88l99 349h68z" />
    <glyph glyph-name="w" unicode="w" horiz-adv-x="662" 
d="M641 484l-116 -465c-3 -12 -13 -19 -25 -19h-59c-12 0 -24 8 -26 21l-66 347c-4 25 -8 50 -14 75h-9c-4 -25 -9 -50 -14 -75l-66 -347c-1 -13 -12 -21 -26 -21h-58c-12 0 -22 7 -25 19l-117 465h66l85 -371c5 -23 9 -47 14 -70h10c5 24 10 47 14 70l67 351
c2 12 12 20 25 20h61c12 0 22 -8 24 -21l66 -350c5 -23 10 -46 14 -70h12c4 24 7 46 13 70l84 371h66z" />
    <glyph glyph-name="wacute" unicode="&#x1e83;" horiz-adv-x="662" 
d="M454 678l-151 -128l-23 30l137 146zM641 484l-116 -465c-3 -12 -13 -19 -25 -19h-59c-12 0 -24 8 -26 21l-66 347c-4 25 -8 50 -14 75h-9c-4 -25 -9 -50 -14 -75l-66 -347c-1 -13 -12 -21 -26 -21h-58c-12 0 -22 7 -25 19l-117 465h66l85 -371c5 -23 9 -47 14 -70h10
c5 24 10 47 14 70l67 351c2 12 12 20 25 20h61c12 0 22 -8 24 -21l66 -350c5 -23 10 -46 14 -70h12c4 24 7 46 13 70l84 371h66z" />
    <glyph glyph-name="wcircumflex" unicode="&#x175;" horiz-adv-x="662" 
d="M461 586l-23 -28l-104 99h-6l-105 -99l-21 28l106 124h47zM641 484l-116 -465c-3 -12 -13 -19 -25 -19h-59c-12 0 -24 8 -26 21l-66 347c-4 25 -8 50 -14 75h-9c-4 -25 -9 -50 -14 -75l-66 -347c-1 -13 -12 -21 -26 -21h-58c-12 0 -22 7 -25 19l-117 465h66l85 -371
c5 -23 9 -47 14 -70h10c5 24 10 47 14 70l67 351c2 12 12 20 25 20h61c12 0 22 -8 24 -21l66 -350c5 -23 10 -46 14 -70h12c4 24 7 46 13 70l84 371h66z" />
    <glyph glyph-name="wdieresis" unicode="&#x1e85;" horiz-adv-x="662" 
d="M248 685h22c12 0 18 -8 18 -20v-55c0 -13 -6 -19 -18 -19h-22c-12 0 -17 6 -17 19v55c0 12 5 20 17 20zM391 685h21c12 0 19 -8 19 -20v-55c0 -13 -7 -19 -19 -19h-21c-13 0 -18 6 -18 19v55c0 12 5 20 18 20zM641 484l-116 -465c-3 -12 -13 -19 -25 -19h-59
c-12 0 -24 8 -26 21l-66 347c-4 25 -8 50 -14 75h-9c-4 -25 -9 -50 -14 -75l-66 -347c-1 -13 -12 -21 -26 -21h-58c-12 0 -22 7 -25 19l-117 465h66l85 -371c5 -23 9 -47 14 -70h10c5 24 10 47 14 70l67 351c2 12 12 20 25 20h61c12 0 22 -8 24 -21l66 -350
c5 -23 10 -46 14 -70h12c4 24 7 46 13 70l84 371h66z" />
    <glyph glyph-name="wgrave" unicode="&#x1e81;" horiz-adv-x="662" 
d="M371 580l-23 -30l-151 128l37 48zM641 484l-116 -465c-3 -12 -13 -19 -25 -19h-59c-12 0 -24 8 -26 21l-66 347c-4 25 -8 50 -14 75h-9c-4 -25 -9 -50 -14 -75l-66 -347c-1 -13 -12 -21 -26 -21h-58c-12 0 -22 7 -25 19l-117 465h66l85 -371c5 -23 9 -47 14 -70h10
c5 24 10 47 14 70l67 351c2 12 12 20 25 20h61c12 0 22 -8 24 -21l66 -350c5 -23 10 -46 14 -70h12c4 24 7 46 13 70l84 371h66z" />
    <glyph glyph-name="x" unicode="x" horiz-adv-x="422" 
d="M219 227h-15l-115 -227h-70l133 251l-123 233h69l104 -206h19l104 206h69l-123 -233l132 -251h-69z" />
    <glyph glyph-name="y" unicode="y" horiz-adv-x="423" 
d="M408 484l-158 -518c-27 -84 -72 -161 -168 -173l-6 41c64 27 94 75 114 139l10 27h-17c-11 0 -20 6 -24 17l-143 467h68l107 -378c5 -18 11 -37 15 -56h11c6 19 12 39 17 57l105 377h69z" />
    <glyph glyph-name="yacute" unicode="&#xfd;" horiz-adv-x="423" 
d="M185 550l-23 30l137 146l37 -48zM408 484l-158 -518c-27 -84 -72 -161 -168 -173l-6 41c64 27 94 75 114 139l10 27h-17c-11 0 -20 6 -24 17l-143 467h68l107 -378c5 -18 11 -37 15 -56h11c6 19 12 39 17 57l105 377h69z" />
    <glyph glyph-name="ycircumflex" unicode="&#x177;" horiz-adv-x="423" 
d="M105 558l-21 28l106 124h47l106 -124l-23 -28l-104 99h-6zM408 484l-158 -518c-27 -84 -72 -161 -168 -173l-6 41c64 27 94 75 114 139l10 27h-17c-11 0 -20 6 -24 17l-143 467h68l107 -378c5 -18 11 -37 15 -56h11c6 19 12 39 17 57l105 377h69z" />
    <glyph glyph-name="ydieresis" unicode="&#xff;" horiz-adv-x="423" 
d="M153 591h-22c-12 0 -17 6 -17 19v55c0 12 5 20 17 20h22c12 0 18 -8 18 -20v-55c0 -13 -6 -19 -18 -19zM295 591h-21c-13 0 -18 6 -18 19v55c0 12 5 20 18 20h21c12 0 19 -8 19 -20v-55c0 -13 -7 -19 -19 -19zM408 484l-158 -518c-27 -84 -72 -161 -168 -173l-6 41
c64 27 94 75 114 139l10 27h-17c-11 0 -20 6 -24 17l-143 467h68l107 -378c5 -18 11 -37 15 -56h11c6 19 12 39 17 57l105 377h69z" />
    <glyph glyph-name="ygrave" unicode="&#x1ef3;" horiz-adv-x="423" 
d="M230 550l-151 128l37 48l137 -146zM408 484l-158 -518c-27 -84 -72 -161 -168 -173l-6 41c64 27 94 75 114 139l10 27h-17c-11 0 -20 6 -24 17l-143 467h68l107 -378c5 -18 11 -37 15 -56h11c6 19 12 39 17 57l105 377h69z" />
    <glyph glyph-name="z" unicode="z" horiz-adv-x="410" 
d="M370 53v-53h-330v53l259 379h-257v52h325v-52l-258 -379h261z" />
    <glyph glyph-name="zacute" unicode="&#x17a;" horiz-adv-x="410" 
d="M178 550l-23 30l137 146l37 -48zM370 53v-53h-330v53l259 379h-257v52h325v-52l-258 -379h261z" />
    <glyph glyph-name="zcaron" unicode="&#x17e;" horiz-adv-x="410" 
d="M192 566l-114 123l21 28l105 -92h6l105 92l22 -28l-115 -123h-30zM370 53v-53h-330v53l259 379h-257v52h325v-52l-258 -379h261z" />
    <glyph glyph-name="zdotaccent" unicode="&#x17c;" horiz-adv-x="410" 
d="M218 584h-21c-13 0 -20 7 -20 20v59c0 14 7 21 20 21h21c12 0 19 -7 19 -21v-59c0 -13 -7 -20 -19 -20zM370 53v-53h-330v53l259 379h-257v52h325v-52l-258 -379h261z" />
    <glyph glyph-name="c_t" horiz-adv-x="663" 
d="M516 434v-314c0 -49 16 -70 54 -70h61l7 -48c-25 -6 -67 -10 -86 -10c-66 0 -99 43 -99 121v321h-212c-95 0 -129 -44 -129 -192c0 -155 33 -199 126 -199c22 0 68 2 104 11l7 -44c-36 -14 -80 -22 -122 -22c-133 0 -182 67 -182 254c0 176 57 242 186 242h222v147h63
v-147h127v-50h-127z" />
    <glyph glyph-name="f_f_y" horiz-adv-x="963" 
d="M947 484l-158 -518c-27 -84 -73 -161 -167 -173l-7 41c64 27 93 75 114 139l10 27h-17c-11 0 -20 6 -23 17l-111 368c-10 33 -27 49 -53 49h-113v-434h-64v434h-200v-434h-64v434h-71v45l71 5v77c0 90 35 140 113 140c22 0 70 -2 97 -6l-4 -47h-71c-53 0 -71 -22 -71 -93
v-71h200v93c0 89 30 139 113 139c25 0 78 -2 109 -6l-5 -47h-82c-53 0 -71 -25 -71 -92v-87h125c52 0 84 -26 102 -83l81 -295c6 -18 11 -37 15 -56h12c5 19 10 38 16 57l106 377h68z" />
    <glyph glyph-name="f_t" horiz-adv-x="571" 
d="M424 434v-314c0 -49 16 -70 54 -70h60l7 -48c-24 -6 -67 -10 -86 -10c-65 0 -99 43 -99 121v321h-202v-434h-64v434h-71v45l71 5v93c0 89 30 139 113 139c23 0 74 -2 103 -6l-5 -47h-76c-53 0 -71 -25 -71 -92v-87h202v147h64v-147h126v-50h-126z" />
    <glyph glyph-name="f_y" horiz-adv-x="699" 
d="M683 484l-159 -518c-26 -84 -72 -161 -167 -173l-7 41c64 27 95 75 115 139l10 27h-17c-11 0 -20 6 -24 17l-111 368c-9 33 -26 49 -52 49h-113v-434h-64v434h-71v45l71 5v93c0 89 30 139 113 139c25 0 78 -2 108 -6l-5 -47h-81c-53 0 -71 -25 -71 -92v-87h125
c52 0 84 -26 101 -83l82 -295c5 -18 11 -37 15 -56h11c5 15 9 30 14 43l108 391h69z" />
    <glyph glyph-name="s_t" horiz-adv-x="690" 
d="M542 434v-314c0 -49 15 -70 54 -70h61l7 -48c-25 -6 -67 -10 -86 -10c-66 0 -100 43 -100 121v321h-276c-73 0 -98 -1 -98 -69c0 -58 19 -71 57 -81l116 -28c62 -15 91 -49 91 -130c0 -120 -54 -137 -167 -137c-29 0 -86 1 -152 13l5 47c39 -5 85 -7 135 -6
c89 1 117 12 117 83c0 57 -25 70 -62 79l-114 28c-63 15 -89 51 -89 132c0 104 47 120 152 119h285v147h64v-147h127v-50h-127z" />
    <glyph glyph-name="t_t" horiz-adv-x="580" 
d="M433 434v-314c0 -49 15 -70 54 -70h61l7 -48c-25 -6 -67 -10 -87 -10c-65 0 -99 43 -99 121v321h-213v-314c0 -49 16 -70 54 -70h61l8 -48c-25 -6 -68 -10 -87 -10c-66 0 -99 43 -99 121v321h-71v45l71 5v147h63v-147h213v147h64v-147h126v-50h-126z" />
    <glyph glyph-name="t_y" horiz-adv-x="717" 
d="M701 484l-159 -518c-26 -84 -71 -161 -167 -173l-6 41c64 27 93 75 114 139l9 27h-16c-11 0 -20 6 -23 17l-112 368c-9 33 -26 49 -52 49h-133v-314c0 -49 16 -70 54 -70h61l8 -48c-25 -6 -68 -10 -87 -10c-66 0 -99 43 -99 121v321h-71v45l71 5v147h63v-147h145
c52 0 84 -26 101 -82l81 -296c6 -18 12 -37 16 -56h10l16 49l107 385h69z" />
    <glyph glyph-name="ordfeminine" unicode="&#xaa;" horiz-adv-x="355" 
d="M205 605c57 0 90 -27 90 -103v-231h-38l-7 59c-23 -28 -67 -64 -119 -64c-47 0 -78 30 -78 85v39c0 50 27 79 74 79h120v34c0 35 -12 60 -52 60c-38 0 -83 -4 -125 -9l-5 36c38 7 87 15 140 15zM146 309c32 -1 73 23 101 51v80l-105 -6c-31 -2 -41 -18 -41 -47v-27
c0 -36 15 -51 45 -51z" />
    <glyph glyph-name="ordmasculine" unicode="&#xba;" horiz-adv-x="358" 
d="M179 605c96 0 130 -46 130 -171s-34 -171 -130 -171s-130 46 -130 171s34 171 130 171zM179 564c-60 0 -80 -30 -80 -130c0 -99 20 -129 80 -129c59 0 79 30 79 129c0 100 -20 130 -79 130z" />
    <glyph glyph-name="uni0410" unicode="&#x410;" horiz-adv-x="499" 
d="M364 228h-229l-58 -228h-68l180 671c3 12 13 19 25 19h71c12 0 21 -7 24 -19l181 -671h-68zM349 285l-75 297c-5 19 -10 38 -14 56h-21c-4 -18 -9 -37 -14 -56l-76 -297h200z" />
    <glyph glyph-name="uni0411" unicode="&#x411;" horiz-adv-x="482" 
d="M138 385h121c136 0 181 -52 181 -198c0 -168 -62 -195 -192 -195c-62 0 -113 1 -175 8h-1v690c57 3 114 5 171 5c56 0 111 -2 167 -5l-6 -54h-266v-251zM259 48c90 0 114 26 114 141c0 107 -21 143 -114 143h-121v-283c32 -1 73 -1 121 -1z" />
    <glyph glyph-name="uni0412" unicode="&#x412;" horiz-adv-x="499" 
d="M340 360v-4c83 -9 110 -74 110 -184c0 -142 -48 -180 -176 -180c-93 0 -140 1 -202 8v690c55 7 96 8 177 8c137 0 185 -38 185 -180c0 -99 -28 -150 -94 -158zM370 511c0 106 -32 131 -123 131c-44 0 -81 0 -110 -1v-258h121c83 1 112 26 112 128zM264 48
c90 0 120 25 120 133c0 118 -32 149 -125 151h-122v-283c33 -1 77 -1 127 -1z" />
    <glyph glyph-name="uni0413" unicode="&#x413;" horiz-adv-x="416" 
d="M169 691c77 0 157 0 230 -6l-3 -50h-206c-38 0 -55 -25 -55 -75v-560h-66v571c0 70 42 120 100 120z" />
    <glyph glyph-name="uni0403" unicode="&#x403;" horiz-adv-x="416" 
d="M364 859l-151 -128l-23 30l137 146zM169 691c77 0 157 0 230 -6l-3 -50h-206c-38 0 -55 -25 -55 -75v-560h-66v571c0 70 42 120 100 120z" />
    <glyph glyph-name="uni0490" unicode="&#x490;" horiz-adv-x="420" 
d="M402 841v-161l-3 -45h-209c-38 0 -55 -25 -55 -75v-560h-66v571c0 70 42 120 100 120c61 0 124 0 183 -5l7 155h43z" />
    <glyph glyph-name="uni0414" unicode="&#x414;" horiz-adv-x="555" 
d="M529 54v-205h-46l-7 151h-405l-7 -151h-46v205h48c63 155 81 337 87 516c3 76 43 120 111 120h196v-636h69zM395 54v582h-120c-40 0 -56 -22 -59 -74c-8 -195 -26 -362 -86 -508h265z" />
    <glyph glyph-name="uni0415" unicode="&#x415;" horiz-adv-x="450" 
d="M405 55l4 -50c-75 -6 -159 -6 -238 -6c-64 0 -104 45 -104 114v464c0 69 40 114 104 114c79 0 163 0 238 -6l-4 -50h-223c-34 0 -49 -25 -49 -73v-169h241v-53h-241v-213c0 -47 15 -72 49 -72h223z" />
    <glyph glyph-name="uni0401" unicode="&#x401;" horiz-adv-x="450" 
d="M189 793h-22c-12 0 -18 6 -18 20v55c0 12 6 19 18 19h22c11 0 17 -7 17 -19v-55c0 -14 -6 -20 -17 -20zM331 793h-21c-13 0 -19 6 -19 20v55c0 12 6 19 19 19h21c11 0 18 -7 18 -19v-55c0 -14 -7 -20 -18 -20zM405 55l4 -50c-75 -6 -159 -6 -238 -6
c-64 0 -104 45 -104 114v464c0 69 40 114 104 114c79 0 163 0 238 -6l-4 -50h-223c-34 0 -49 -25 -49 -73v-169h241v-53h-241v-213c0 -47 15 -72 49 -72h223z" />
    <glyph glyph-name="uni0416" unicode="&#x416;" horiz-adv-x="728" 
d="M505 361v-2c105 -11 136 -157 197 -359h-69c-62 199 -89 332 -185 333h-56c3 -27 6 -53 6 -78v-255h-63v255c0 25 2 51 5 78h-60c-96 -1 -123 -134 -185 -333h-69c61 202 92 348 196 359v2c-97 12 -131 162 -182 329h67c50 -161 85 -303 173 -303h60c-4 26 -5 51 -5 80
v223h63v-223c0 -29 -2 -54 -6 -80h55c89 0 124 142 174 303h67c-51 -167 -86 -317 -183 -329z" />
    <glyph glyph-name="uni0417" unicode="&#x417;" horiz-adv-x="442" 
d="M194 698c135 0 183 -38 183 -180c0 -99 -28 -150 -94 -158v-4c83 -9 110 -74 110 -184c0 -142 -49 -180 -174 -180c-75 0 -135 5 -189 19l6 48c39 -4 101 -12 172 -12c87 0 117 25 117 134c0 118 -31 150 -123 150h-92v53h92c80 0 108 26 108 127c0 108 -31 132 -119 132
c-63 0 -110 -7 -143 -9l-5 49c49 11 92 15 151 15z" />
    <glyph glyph-name="uni0418" unicode="&#x418;" horiz-adv-x="556" 
d="M485 0h-65v520c0 27 1 53 3 80h-3c-8 -24 -19 -53 -29 -74l-238 -526h-81v690h64v-516c0 -28 -2 -55 -4 -83h4c9 25 20 53 30 77l237 522h82v-690z" />
    <glyph glyph-name="uni0419" unicode="&#x419;" horiz-adv-x="556" 
d="M354 881h49c3 -75 -42 -132 -119 -132s-124 57 -120 132h49c0 -61 26 -95 71 -95c44 0 70 34 70 95zM485 0h-65v520c0 27 1 53 3 80h-3c-8 -24 -19 -53 -29 -74l-238 -526h-81v690h64v-516c0 -28 -2 -55 -4 -83h4c9 25 20 53 30 77l237 522h82v-690z" />
    <glyph glyph-name="uni040D" unicode="&#x40d;" horiz-adv-x="556" 
d="M324 761l-23 -30l-151 128l37 48zM485 0h-65v520c0 27 1 53 3 80h-3c-8 -24 -19 -53 -29 -74l-238 -526h-81v690h64v-516c0 -28 -2 -55 -4 -83h4c9 25 20 53 30 77l237 522h82v-690z" />
    <glyph glyph-name="uni041A" unicode="&#x41a;" horiz-adv-x="481" 
d="M258 361v-2c105 -11 133 -157 197 -359h-70c-60 199 -86 332 -189 333h-64c3 -27 5 -53 5 -78v-255h-65v690h65v-223c0 -29 -2 -54 -5 -80h63c96 0 131 142 179 303h67c-51 -167 -85 -317 -183 -329z" />
    <glyph glyph-name="uni040C" unicode="&#x40c;" horiz-adv-x="481" 
d="M224 731l-23 30l137 146l37 -48zM258 361v-2c105 -11 133 -157 197 -359h-70c-60 199 -86 332 -189 333h-64c3 -27 5 -53 5 -78v-255h-65v690h65v-223c0 -29 -2 -54 -5 -80h63c96 0 131 142 179 303h67c-51 -167 -85 -317 -183 -329z" />
    <glyph glyph-name="uni041B" unicode="&#x41b;" horiz-adv-x="523" 
d="M451 690v-690h-66v636h-116c-37 0 -56 -25 -59 -75c-17 -255 -22 -345 -60 -437c-28 -71 -74 -118 -135 -125l-6 51c33 14 59 37 79 93c33 89 40 159 57 429c5 78 42 118 108 118h198z" />
    <glyph glyph-name="uni041C" unicode="&#x41c;" horiz-adv-x="703" 
d="M517 690h76c18 0 27 -11 28 -29l23 -661h-66l-21 635h-17l-128 -541c-5 -15 -14 -22 -29 -22h-62c-16 0 -25 7 -30 22l-129 541h-16l-20 -635h-66l22 661c1 18 10 29 28 29h77c15 0 24 -8 28 -23l107 -450c8 -32 15 -62 22 -94h15c7 32 14 63 22 95l107 449
c4 15 14 23 29 23z" />
    <glyph glyph-name="uni041D" unicode="&#x41d;" horiz-adv-x="538" 
d="M466 690v-690h-66v341h-262v-341h-66v690h66v-293h262v293h66z" />
    <glyph glyph-name="uni041E" unicode="&#x41e;" 
d="M269 702c160 0 218 -90 218 -357s-58 -357 -218 -357c-162 0 -218 90 -218 357s56 357 218 357zM269 644c-112 0 -149 -75 -149 -299s37 -299 149 -299c111 0 148 75 148 299s-37 299 -148 299z" />
    <glyph glyph-name="uni041F" unicode="&#x41f;" horiz-adv-x="538" 
d="M467 690v-690h-66v636h-263v-636h-66v690h395z" />
    <glyph glyph-name="uni0420" unicode="&#x420;" horiz-adv-x="474" 
d="M262 698c131 0 175 -46 175 -211c0 -166 -44 -211 -168 -211c-50 0 -96 3 -131 7v-283h-66v690c60 7 100 8 190 8zM138 333h122c83 0 111 32 111 154c0 123 -28 155 -111 155c-48 0 -90 0 -122 -1v-308z" />
    <glyph glyph-name="uni0421" unicode="&#x421;" horiz-adv-x="458" 
d="M267 702c70 0 105 -5 150 -19l-7 -49c-48 7 -79 9 -143 9c-110 0 -147 -74 -147 -298s37 -298 147 -298c68 0 110 3 154 11l8 -49c-47 -15 -89 -21 -162 -21c-160 0 -216 94 -216 357s56 357 216 357z" />
    <glyph glyph-name="uni0422" unicode="&#x422;" horiz-adv-x="466" 
d="M446 632h-180v-632h-67v632h-179v58h426v-58z" />
    <glyph glyph-name="uni0423" unicode="&#x423;" horiz-adv-x="450" 
d="M440 690l-151 -523c-27 -88 -56 -168 -122 -173c-27 -3 -72 3 -98 13l8 47c106 -15 111 -4 146 114l11 34h-32c-29 0 -46 15 -54 43l-130 445h68l116 -414c3 -11 9 -18 18 -18h31l121 432h68z" />
    <glyph glyph-name="uni040E" unicode="&#x40e;" horiz-adv-x="450" 
d="M226 749c-77 0 -124 50 -120 125l33 6c0 -52 31 -82 87 -82c54 0 86 30 86 82l33 -6c3 -75 -43 -125 -119 -125zM440 690l-151 -523c-27 -88 -56 -168 -122 -173c-27 -3 -72 3 -98 13l8 47c106 -15 111 -4 146 114l11 34h-32c-29 0 -46 15 -54 43l-130 445h68l116 -414
c3 -11 9 -18 18 -18h31l121 432h68z" />
    <glyph glyph-name="uni0424" unicode="&#x424;" horiz-adv-x="660" 
d="M618 353c0 -208 -68 -285 -254 -293v-101h-67v101c-187 7 -255 85 -255 293c0 212 68 290 255 297v100h66l1 -100c186 -8 254 -85 254 -297zM110 353c0 -174 46 -232 189 -238v479c-143 -6 -189 -63 -189 -241zM361 594v-479c143 6 189 64 189 238
c0 178 -46 235 -189 241z" />
    <glyph glyph-name="uni0425" unicode="&#x425;" horiz-adv-x="489" 
d="M253 334h-17l-144 -334h-71l157 358l-147 332h70l133 -305h21l132 305h72l-149 -332l159 -358h-72z" />
    <glyph glyph-name="uni0427" unicode="&#x427;" horiz-adv-x="503" 
d="M431 690v-690h-66v326c-68 -50 -138 -69 -193 -69c-83 0 -123 50 -123 152v281h66v-268c0 -74 23 -106 80 -106c59 0 104 16 170 64v310h66z" />
    <glyph glyph-name="uni0426" unicode="&#x426;" horiz-adv-x="555" 
d="M529 54v-205h-46l-7 151h-404v690h66v-636h256v636h67v-636h68z" />
    <glyph glyph-name="uni0428" unicode="&#x428;" horiz-adv-x="747" 
d="M675 690v-690h-603v690h65v-636h204v636h65v-636h204v636h65z" />
    <glyph glyph-name="uni0429" unicode="&#x429;" horiz-adv-x="763" 
d="M737 54v-205h-46l-6 151h-613v690h65v-636h201v636h65v-636h202v636h64v-636h68z" />
    <glyph glyph-name="uni040F" unicode="&#x40f;" horiz-adv-x="542" 
d="M471 690v-690h-172l-3 -151h-45l-4 151h-175v690h66v-636h266v636h67z" />
    <glyph glyph-name="uni042F" unicode="&#x42f;" horiz-adv-x="493" 
d="M234 698c87 0 128 -1 187 -8v-690h-66v288c-31 0 -72 -1 -125 -1c-37 0 -61 -22 -75 -79l-49 -208h-71l52 211c15 57 45 87 75 96l-1 6c-73 13 -102 86 -102 183c0 149 52 202 175 202zM355 344v297c-31 1 -72 1 -120 1c-79 0 -109 -34 -109 -149c0 -91 26 -149 104 -149
h125z" />
    <glyph glyph-name="uni042C" unicode="&#x42c;" horiz-adv-x="478" 
d="M138 402h120c137 0 182 -55 182 -206c0 -161 -49 -204 -172 -204c-91 0 -134 1 -195 8h-1v690h66v-288zM258 50c90 0 115 28 115 146c0 110 -21 150 -115 150h-120v-295c31 -1 73 -1 120 -1z" />
    <glyph glyph-name="uni042A" unicode="&#x42a;" horiz-adv-x="601" 
d="M263 402h120c136 0 180 -55 180 -206c0 -161 -48 -204 -171 -204c-91 0 -134 1 -195 8v632h-178v58h244v-288zM383 50c89 0 114 28 114 146c0 110 -21 150 -114 150h-120v-295c31 -1 72 -1 120 -1z" />
    <glyph glyph-name="uni042B" unicode="&#x42b;" horiz-adv-x="679" 
d="M138 402h120c137 0 182 -55 182 -206c0 -161 -49 -204 -172 -204c-91 0 -134 1 -195 8h-1v690h66v-288zM607 690v-690h-65v690h65zM258 50c90 0 115 28 115 146c0 110 -21 150 -115 150h-120v-295c31 -1 73 -1 120 -1z" />
    <glyph glyph-name="uni0409" unicode="&#x409;" horiz-adv-x="780" 
d="M443 402h118c137 0 181 -55 181 -206c0 -161 -49 -204 -171 -204c-90 0 -133 1 -193 8l1 5v631h-108c-37 0 -52 -27 -55 -75c-18 -260 -23 -344 -60 -437c-27 -73 -67 -117 -132 -125l-6 45c26 14 51 37 78 99c39 94 42 180 56 427c5 80 41 120 112 120h179v-288zM561 50
c89 0 114 28 114 147c0 110 -21 149 -114 149h-118v-295c31 -1 71 -1 118 -1z" />
    <glyph glyph-name="uni040A" unicode="&#x40a;" horiz-adv-x="788" 
d="M452 400h117c137 0 181 -54 181 -204c0 -161 -48 -204 -171 -204c-90 0 -133 1 -193 8v345h-248v-345h-66v690h66v-290h248v290h66v-290zM569 50c90 0 114 28 114 146c0 109 -20 149 -114 149h-117v-294c31 -1 71 -1 117 -1z" />
    <glyph glyph-name="uni0405" unicode="&#x405;" horiz-adv-x="452" 
d="M224 701c52 0 109 -4 164 -16l-5 -48c-46 3 -105 6 -155 6c-83 0 -116 -4 -116 -123c0 -85 22 -114 72 -127l113 -30c85 -21 113 -78 113 -189c0 -161 -57 -185 -185 -185c-37 0 -97 1 -172 15l5 49c91 -5 122 -6 169 -6c87 1 116 18 116 128c0 90 -22 116 -72 129
l-116 31c-80 20 -110 79 -110 187c0 162 56 181 179 179z" />
    <glyph glyph-name="uni0404" unicode="&#x404;" horiz-adv-x="464" 
d="M423 59l7 -50c-45 -15 -86 -21 -158 -21c-163 0 -221 94 -221 357s58 357 221 357c70 0 108 -5 153 -19l-7 -50c-48 7 -81 10 -146 10c-106 0 -147 -64 -152 -249l239 -1v-51l-240 -1c0 -220 39 -294 153 -294c68 0 107 3 151 12z" />
    <glyph glyph-name="uni042D" unicode="&#x42d;" horiz-adv-x="464" 
d="M191 702c164 0 222 -94 222 -357s-58 -357 -222 -357c-72 0 -112 6 -158 21l8 50c43 -9 83 -12 151 -12c113 0 153 74 153 294l-240 1v51l239 1c-5 185 -47 249 -152 249c-65 0 -98 -3 -146 -10l-8 50c46 14 83 19 153 19z" />
    <glyph glyph-name="uni0406" unicode="&#x406;" horiz-adv-x="209" 
d="M138 0h-66v690h66v-690z" />
    <glyph glyph-name="uni0407" unicode="&#x407;" horiz-adv-x="208" 
d="M22 864h22c12 0 17 -7 17 -19v-55c0 -13 -5 -20 -17 -20h-22c-12 0 -18 7 -18 20v55c0 12 6 19 18 19zM165 864h21c12 0 18 -7 18 -19v-55c0 -13 -6 -20 -18 -20h-21c-13 0 -18 7 -18 20v55c0 12 5 19 18 19zM137 0h-65v690h65v-690z" />
    <glyph glyph-name="uni0408" unicode="&#x408;" horiz-adv-x="272" 
d="M204 690v-556c0 -93 -38 -142 -107 -142c-20 0 -54 5 -72 10l7 46h41c44 0 65 29 65 84v558h66z" />
    <glyph glyph-name="uni040B" unicode="&#x40b;" horiz-adv-x="625" 
d="M453 439c86 0 126 -50 126 -152v-287h-65v274c0 76 -23 106 -83 106c-58 0 -101 -16 -165 -62v-318h-67v632h-179v58h426v-58h-180v-259c65 47 132 66 187 66z" />
    <glyph glyph-name="uni042E" unicode="&#x42e;" horiz-adv-x="742" 
d="M473 702c162 0 218 -90 218 -357s-56 -357 -218 -357c-150 0 -205 87 -207 344h-128v-332h-66v690h66v-304h128c6 235 62 316 207 316zM473 46c112 0 149 75 149 299s-37 299 -149 299c-107 0 -142 -75 -142 -299s35 -299 142 -299z" />
    <glyph glyph-name="uni0402" unicode="&#x402;" horiz-adv-x="605" 
d="M431 439c78 0 138 -45 138 -209c0 -177 -80 -238 -206 -232l-6 47c94 8 146 41 146 179c0 130 -30 157 -93 157c-50 0 -89 -19 -144 -61v-320h-67v632h-179v58h426v-58h-180v-258c59 49 114 65 165 65z" />
    <glyph glyph-name="uni04B0" unicode="&#x4b0;" horiz-adv-x="465" 
d="M276 271h112v-41h-122v-230h-65v230h-122v41h112l-176 419h71l119 -306c10 -24 18 -50 26 -74h6c7 24 16 50 25 73l119 307h69z" />
    <glyph glyph-name="uni04B6" unicode="&#x4b6;" horiz-adv-x="523" 
d="M497 47v-198h-46l-7 151h-79v322c-67 -47 -136 -65 -189 -65c-86 0 -127 50 -127 152v281h67v-268c-1 -75 23 -107 82 -107c58 0 102 16 167 63v312h67v-643h65z" />
    <glyph glyph-name="uni04BA" unicode="&#x4ba;" horiz-adv-x="503" 
d="M327 433c86 0 127 -50 127 -152v-281h-66v268c0 75 -24 107 -83 107c-57 0 -104 -16 -167 -63v-312h-66v690h66v-321c66 46 137 64 189 64z" />
    <glyph glyph-name="uni04C0" unicode="&#x4c0;" horiz-adv-x="210" 
d="M138 0h-66v690h66v-690z" />
    <glyph glyph-name="uni0430" unicode="&#x430;" horiz-adv-x="443" 
d="M249 497c86 0 132 -38 132 -149v-348h-50l-8 80c-31 -39 -92 -88 -164 -88c-70 0 -116 46 -116 131v56c0 75 39 118 107 118h167v51c-1 61 -18 94 -80 94c-44 0 -110 -6 -171 -14l-6 47c55 10 129 22 189 22zM171 48c41 -1 100 28 146 78v122l-155 -2
c-39 -2 -53 -28 -53 -75v-42c0 -55 19 -81 62 -81z" />
    <glyph glyph-name="uni0431" unicode="&#x431;" horiz-adv-x="461" 
d="M379 736l16 -49c-63 -50 -109 -49 -167 -69c-85 -31 -106 -101 -115 -188c-4 -28 -6 -53 -7 -70h2c17 50 46 110 151 110c115 0 155 -66 155 -236c0 -150 -34 -246 -178 -246c-167 0 -178 126 -178 307c0 215 19 324 149 372c62 22 108 20 172 69zM242 415
c-100 0 -117 -68 -117 -180c0 -146 29 -192 112 -192c81 0 110 46 110 192c0 138 -25 180 -105 180z" />
    <glyph glyph-name="uni0432" unicode="&#x432;" horiz-adv-x="445" 
d="M302 250v-2c73 -7 99 -51 99 -128c0 -99 -44 -126 -157 -126c-82 0 -124 1 -179 6v483c49 5 85 6 157 6c121 0 164 -27 164 -129c0 -68 -24 -104 -84 -110zM326 355c0 67 -29 84 -106 84h-95v-166h105c71 0 96 16 96 82zM125 45h109c76 0 102 16 102 86
c0 73 -27 95 -106 95h-105v-181z" />
    <glyph glyph-name="uni0433" unicode="&#x433;" horiz-adv-x="370" 
d="M148 486c69 0 140 0 204 -6l-2 -46h-175c-34 0 -48 -20 -48 -65v-369h-64v384c0 66 30 102 85 102z" />
    <glyph glyph-name="uni0453" unicode="&#x453;" horiz-adv-x="370" 
d="M337 678l-151 -128l-23 30l137 146zM148 486c69 0 140 0 204 -6l-2 -46h-175c-34 0 -48 -20 -48 -65v-369h-64v384c0 66 30 102 85 102z" />
    <glyph glyph-name="uni0491" unicode="&#x491;" horiz-adv-x="372" 
d="M353 631v-151l-3 -46h-175c-33 0 -48 -20 -48 -65v-369h-63v384c0 66 29 102 85 102c53 0 104 0 154 -3l8 148h42z" />
    <glyph glyph-name="uni0434" unicode="&#x434;" horiz-adv-x="469" 
d="M438 52v-197h-42l-6 145h-319l-5 -145h-43v197h40c44 101 59 214 65 328c3 68 35 104 98 104h159v-432h53zM324 52v382h-88c-32 0 -48 -22 -50 -63c-6 -119 -23 -225 -66 -319h204z" />
    <glyph glyph-name="uni0435" unicode="&#x435;" horiz-adv-x="434" 
d="M239 43c44 0 98 6 137 12l6 -43c-36 -16 -105 -24 -151 -24c-133 0 -185 70 -185 256c0 189 53 253 179 253c116 0 166 -51 166 -151c1 -87 -27 -135 -92 -135h-185c5 -132 41 -168 125 -168zM228 442c-85 0 -113 -44 -115 -181h170c36 0 45 36 44 84c0 68 -28 97 -99 97
z" />
    <glyph glyph-name="uni0451" unicode="&#x451;" horiz-adv-x="434" 
d="M165 590h-21c-12 0 -18 7 -18 20v55c0 12 6 19 18 19h21c13 0 18 -7 18 -19v-55c0 -13 -5 -20 -18 -20zM308 590h-21c-13 0 -19 7 -19 20v55c0 12 6 19 19 19h21c11 0 18 -7 18 -19v-55c0 -13 -7 -20 -18 -20zM239 43c44 0 98 6 137 12l6 -43c-36 -16 -105 -24 -151 -24
c-133 0 -185 70 -185 256c0 189 53 253 179 253c116 0 166 -51 166 -151c1 -87 -27 -135 -92 -135h-185c5 -132 41 -168 125 -168zM228 442c-85 0 -113 -44 -115 -181h170c36 0 45 36 44 84c0 68 -28 97 -99 97z" />
    <glyph glyph-name="uni0436" unicode="&#x436;" horiz-adv-x="633" 
d="M450 254v-2c83 -10 106 -98 155 -252h-65c-49 146 -69 227 -138 228h-60c3 -18 5 -35 5 -52v-176h-57v176c0 17 2 34 5 52h-63c-69 -1 -88 -82 -138 -228h-65c48 154 71 242 155 252v2c-79 9 -102 101 -144 230h64c40 -119 65 -207 131 -207h59c-3 19 -4 37 -4 57v150h57
v-150c0 -20 -1 -38 -4 -57h55c67 0 92 88 131 207h65c-42 -129 -65 -221 -144 -230z" />
    <glyph glyph-name="uni0437" unicode="&#x437;" horiz-adv-x="398" 
d="M164 492c127 0 174 -25 174 -128c0 -70 -20 -107 -82 -114v-2c68 -7 96 -47 96 -129c0 -96 -48 -127 -166 -127c-48 0 -106 4 -154 13l5 49c34 -3 92 -8 144 -8c81 0 105 22 105 86c0 71 -26 91 -104 92h-92v47l92 1c72 0 93 18 93 84c0 68 -26 82 -112 82
c-41 0 -85 -3 -114 -8l-5 48c43 12 86 14 120 14z" />
    <glyph glyph-name="uni0438" unicode="&#x438;" horiz-adv-x="472" 
d="M407 0h-58v338c0 22 1 42 2 66h-2c-7 -20 -18 -40 -27 -56l-192 -348h-65v484h58v-337c0 -20 -1 -44 -2 -66h2c8 21 19 41 27 57l192 346h65v-484z" />
    <glyph glyph-name="uni0439" unicode="&#x439;" horiz-adv-x="472" 
d="M305 700h49c3 -75 -42 -132 -119 -132s-124 57 -120 132h49c0 -61 26 -95 71 -95c44 0 70 34 70 95zM407 0h-58v338c0 22 1 42 2 66h-2c-7 -20 -18 -40 -27 -56l-192 -348h-65v484h58v-337c0 -20 -1 -44 -2 -66h2c8 21 19 41 27 57l192 346h65v-484z" />
    <glyph glyph-name="uni045D" unicode="&#x45d;" horiz-adv-x="472" 
d="M275 580l-23 -30l-151 128l37 48zM407 0h-58v338c0 22 1 42 2 66h-2c-7 -20 -18 -40 -27 -56l-192 -348h-65v484h58v-337c0 -20 -1 -44 -2 -66h2c8 21 19 41 27 57l192 346h65v-484z" />
    <glyph glyph-name="uni043A" unicode="&#x43a;" horiz-adv-x="430" 
d="M240 253v-2c88 -9 111 -97 162 -251h-67c-49 147 -70 226 -150 227h-61c3 -18 5 -35 5 -51v-176h-64v484h64v-150c0 -20 -1 -38 -4 -57h57c78 0 103 88 143 207h65c-44 -130 -68 -220 -150 -231z" />
    <glyph glyph-name="uni045C" unicode="&#x45c;" horiz-adv-x="430" 
d="M196 550l-23 30l137 146l37 -48zM240 253v-2c88 -9 111 -97 162 -251h-67c-49 147 -70 226 -150 227h-61c3 -18 5 -35 5 -51v-176h-64v484h64v-150c0 -20 -1 -38 -4 -57h57c78 0 103 88 143 207h65c-44 -130 -68 -220 -150 -231z" />
    <glyph glyph-name="uni043B" unicode="&#x43b;" horiz-adv-x="450" 
d="M385 484v-484h-64v434h-89c-34 0 -47 -19 -51 -64c-9 -92 -17 -200 -40 -272c-17 -60 -57 -97 -118 -103l-7 50c42 16 58 40 68 73c23 70 31 196 37 261c6 70 35 105 99 105h165z" />
    <glyph glyph-name="uni043C" unicode="&#x43c;" horiz-adv-x="599" 
d="M433 484h68c16 0 25 -9 25 -25l17 -459h-60l-15 435h-14l-103 -364c-4 -14 -12 -21 -26 -21h-53c-13 0 -21 7 -25 21l-103 364h-14l-15 -435h-58l16 459c0 16 8 25 25 25h68c13 0 20 -7 25 -21l84 -301c6 -23 13 -46 18 -69h12c7 24 12 47 18 69l85 301c4 14 12 21 25 21
z" />
    <glyph glyph-name="uni043D" unicode="&#x43d;" horiz-adv-x="467" 
d="M402 484v-484h-62v233h-212v-233h-63v484h63v-201h212v201h62z" />
    <glyph glyph-name="uni043E" unicode="&#x43e;" horiz-adv-x="458" 
d="M229 497c134 0 183 -69 183 -255s-49 -254 -183 -254c-133 0 -183 68 -183 254s50 255 183 255zM229 442c-87 0 -116 -47 -116 -200s29 -200 116 -200c88 0 117 47 117 200s-29 200 -117 200z" />
    <glyph glyph-name="uni043F" unicode="&#x43f;" horiz-adv-x="462" 
d="M397 484v-484h-62v433h-207v-433h-63v484h332z" />
    <glyph glyph-name="uni0440" unicode="&#x440;" horiz-adv-x="467" 
d="M285 497c96 0 135 -83 135 -257c0 -185 -47 -252 -148 -252c-50 0 -99 17 -146 50c3 -33 3 -61 3 -95v-147h-64v688h52l6 -79c44 58 106 92 162 92zM257 44c71 0 97 45 97 197c0 148 -25 200 -89 200c-44 0 -82 -26 -136 -83v-278c50 -22 86 -36 128 -36z" />
    <glyph glyph-name="uni0441" unicode="&#x441;" horiz-adv-x="395" 
d="M231 497c35 0 87 -5 125 -22l-9 -41c-34 6 -78 8 -105 8c-96 0 -129 -45 -129 -200s33 -199 129 -199c23 0 75 2 115 11l6 -44c-38 -14 -87 -22 -132 -22c-135 0 -185 67 -185 254s50 255 185 255z" />
    <glyph glyph-name="uni0442" unicode="&#x442;" horiz-adv-x="394" 
d="M372 432h-144v-432h-63v432h-143v52h350v-52z" />
    <glyph glyph-name="uni0443" unicode="&#x443;" horiz-adv-x="425" 
d="M409 484l-158 -518c-13 -42 -36 -104 -74 -138c-39 -33 -87 -40 -142 -31l6 43c34 -2 69 2 95 26c23 23 41 64 55 107l10 27h-17c-11 0 -20 6 -24 17l-143 467h68l107 -378c5 -18 11 -37 15 -56h11c6 19 12 39 17 57l105 377h69z" />
    <glyph glyph-name="uni045E" unicode="&#x45e;" horiz-adv-x="425" 
d="M213 568c-77 0 -124 57 -120 132h49c0 -61 26 -95 71 -95c44 0 70 34 70 95h49c3 -75 -42 -132 -119 -132zM409 484l-158 -518c-13 -42 -36 -104 -74 -138c-39 -33 -87 -40 -142 -31l6 43c34 -2 69 2 95 26c23 23 41 64 55 107l10 27h-17c-11 0 -20 6 -24 17l-143 467h68
l107 -378c5 -18 11 -37 15 -56h11c6 19 12 39 17 57l105 377h69z" />
    <glyph glyph-name="uni0444" unicode="&#x444;" horiz-adv-x="576" 
d="M531 242c0 -172 -58 -245 -213 -253v-193h-59v193c-155 7 -214 80 -214 253c0 174 59 247 214 254v204h59v-204c155 -8 213 -81 213 -254zM107 242c0 -141 40 -192 153 -198v397c-113 -6 -153 -57 -153 -199zM316 441v-397c113 6 153 57 153 198c0 142 -40 193 -153 199z
" />
    <glyph glyph-name="uni0445" unicode="&#x445;" horiz-adv-x="426" 
d="M218 227h-10l-117 -227h-70l133 251l-124 233h70l106 -206h14l106 206h70l-123 -233l132 -251h-69z" />
    <glyph glyph-name="uni0447" unicode="&#x447;" horiz-adv-x="426" 
d="M361 484l-1 -484h-63v215c-55 -29 -115 -41 -155 -41c-64 0 -97 34 -97 105v205h63v-186c0 -51 15 -71 54 -71c46 0 83 10 135 40v217h64z" />
    <glyph glyph-name="uni0446" unicode="&#x446;" horiz-adv-x="476" 
d="M444 52v-195h-42l-7 143h-330v484h63v-432h200v432h64l-1 -432h53z" />
    <glyph glyph-name="uni0448" unicode="&#x448;" horiz-adv-x="646" 
d="M581 484v-484h-516v484h62v-432h167v432h58v-432h168v432h61z" />
    <glyph glyph-name="uni0449" unicode="&#x449;" horiz-adv-x="666" 
d="M635 52v-195h-43l-7 143h-520v484h62v-432h167v432h57v-432h169v432h61v-432h54z" />
    <glyph glyph-name="uni045F" unicode="&#x45f;" horiz-adv-x="465" 
d="M400 484v-484h-141l-5 -166h-43l-6 166h-140v484h63l2 -432h206v432h64z" />
    <glyph glyph-name="uni044F" unicode="&#x44f;" horiz-adv-x="436" 
d="M199 489c86 0 122 -1 172 -7v-482h-63v186h-107c-40 0 -64 -21 -72 -57l-30 -129h-66l36 143c10 42 45 59 76 64v3c-65 7 -90 59 -90 139c0 83 33 140 144 140zM308 234v201c-28 1 -65 1 -108 1c-67 0 -82 -35 -82 -97c0 -70 17 -105 86 -105h104z" />
    <glyph glyph-name="uni044C" unicode="&#x44c;" horiz-adv-x="414" 
d="M127 287h96c119 0 156 -38 156 -147c0 -115 -43 -146 -146 -146c-78 0 -115 1 -167 6h-1v484h62v-197zM223 45c66 0 90 18 90 98c0 72 -19 96 -90 96h-96v-193c26 -1 59 -1 96 -1z" />
    <glyph glyph-name="uni044A" unicode="&#x44a;" horiz-adv-x="509" 
d="M222 287h95c119 0 156 -38 156 -147c0 -115 -43 -146 -147 -146c-78 0 -115 1 -166 6v433h-139v51h201v-197zM317 45c66 0 90 18 90 98c0 72 -19 96 -90 96h-95v-193c25 -1 58 -1 95 -1z" />
    <glyph glyph-name="uni044B" unicode="&#x44b;" horiz-adv-x="576" 
d="M127 287h96c115 0 150 -38 150 -147c0 -115 -41 -146 -140 -146c-78 0 -115 1 -167 6h-1v484h62v-197zM511 484v-484h-63v484h63zM223 45c63 0 85 18 85 98c0 72 -18 96 -85 96h-96v-193c26 -1 59 -1 96 -1z" />
    <glyph glyph-name="uni0459" unicode="&#x459;" horiz-adv-x="644" 
d="M365 293h91c116 0 152 -39 152 -150c0 -127 -46 -149 -150 -149c-64 0 -105 1 -154 6v436h-69c-30 0 -44 -15 -47 -52c-13 -169 -18 -226 -44 -292c-20 -59 -66 -88 -115 -94l-6 45c23 13 46 27 63 66c27 63 30 110 44 286c5 59 35 89 89 89h146v-191zM365 46l83 -1
c70 0 95 12 95 100c0 74 -19 101 -87 101h-91v-200z" />
    <glyph glyph-name="uni045A" unicode="&#x45a;" horiz-adv-x="650" 
d="M371 292h91c117 0 152 -39 152 -148c0 -118 -41 -150 -142 -150c-76 0 -111 1 -161 6v244h-187v-244h-59v484h59v-193h187v193h60v-192zM371 46l91 -1c64 0 87 18 87 100c0 74 -19 100 -87 100h-91v-199z" />
    <glyph glyph-name="uni0455" unicode="&#x455;" horiz-adv-x="410" 
d="M194 497c51 -1 116 -6 164 -15l-6 -46c-49 3 -100 6 -149 6c-74 1 -98 -1 -98 -77c0 -58 19 -71 57 -81l116 -28c61 -15 91 -49 91 -130c0 -120 -54 -137 -167 -137c-29 0 -86 1 -152 13l5 47c39 -5 85 -7 135 -6c89 1 117 12 117 83c0 57 -25 70 -62 79l-114 28
c-63 15 -89 51 -89 132c0 116 46 133 152 132z" />
    <glyph glyph-name="uni0454" unicode="&#x454;" horiz-adv-x="406" 
d="M366 53l7 -45c-40 -12 -75 -17 -136 -17c-140 0 -190 66 -190 249c0 186 50 250 190 250c60 0 92 -3 131 -16l-7 -45c-41 5 -71 7 -124 7c-88 0 -120 -40 -124 -164l199 -1v-48h-200c3 -135 35 -177 125 -177c57 0 90 2 129 7z" />
    <glyph glyph-name="uni044D" unicode="&#x44d;" horiz-adv-x="406" 
d="M169 490c141 0 191 -64 191 -250c0 -183 -50 -249 -191 -249c-61 0 -97 5 -135 17l6 45c38 -5 73 -7 129 -7c92 0 124 42 126 177h-200v48l199 1c-4 124 -37 164 -125 164c-53 0 -83 -2 -124 -7l-7 45c39 13 71 16 131 16z" />
    <glyph glyph-name="uni0456" unicode="&#x456;" horiz-adv-x="201" 
d="M85 688h30c13 0 20 -7 20 -21v-58c0 -14 -7 -21 -20 -21h-30c-13 0 -20 7 -20 21v58c0 14 7 21 20 21zM132 0h-63v484h63v-484z" />
    <glyph glyph-name="uni0457" unicode="&#x457;" horiz-adv-x="200" 
d="M17 684h22c12 0 18 -7 18 -19v-55c0 -13 -6 -20 -18 -20h-22c-11 0 -17 7 -17 20v55c0 12 6 19 17 19zM160 684h21c12 0 19 -7 19 -19v-55c0 -13 -7 -20 -19 -20h-21c-13 0 -18 7 -18 20v55c0 12 5 19 18 19zM132 0h-64v484h64v-484z" />
    <glyph glyph-name="uni0458" unicode="&#x458;" horiz-adv-x="201" 
d="M85 688h31c13 0 19 -7 19 -21v-58c0 -14 -6 -21 -19 -21h-31c-13 0 -19 7 -19 21v58c0 14 6 21 19 21zM132 484v-508c0 -73 -27 -138 -73 -182l-35 28c30 46 45 91 45 154v508h63z" />
    <glyph glyph-name="uni045B" unicode="&#x45b;" horiz-adv-x="469" 
d="M317 399c71 0 107 -46 107 -133v-266h-64v250c0 65 -19 91 -70 91c-44 0 -84 -25 -143 -74v-267h-64v500h-61v39h61v161h64l1 -161h151v-39h-151v-99c0 -32 -2 -61 -5 -87c59 54 117 85 174 85z" />
    <glyph glyph-name="uni044E" unicode="&#x44e;" horiz-adv-x="638" 
d="M406 497c137 0 185 -60 185 -254c0 -191 -48 -251 -185 -251c-126 0 -173 56 -176 233h-101v-225h-64v484h64v-209h101c6 169 53 222 176 222zM405 46c91 0 120 48 120 198c0 151 -29 198 -120 198c-86 0 -113 -47 -113 -198c0 -150 27 -198 113 -198z" />
    <glyph glyph-name="uni0452" unicode="&#x452;" horiz-adv-x="469" 
d="M317 399c71 0 107 -46 107 -133v-290c0 -73 -28 -138 -73 -182l-36 28c31 46 45 91 45 154v274c0 64 -19 91 -70 91c-44 0 -84 -25 -143 -74v-267h-64v500h-61v39h61v161h64l1 -161h151v-39h-151v-99c0 -32 -2 -61 -5 -87c59 54 117 85 174 85z" />
    <glyph glyph-name="uni04B1" unicode="&#x4b1;" horiz-adv-x="468" 
d="M277 67h112v-42h-122v-229h-65v229h-123v42h113l-175 417h70l119 -302c9 -23 17 -50 26 -74h5c8 24 16 51 26 74l119 302h69z" />
    <glyph glyph-name="uni04B7" unicode="&#x4b7;" horiz-adv-x="445" 
d="M413 52v-195h-42l-7 143h-67v215c-55 -29 -115 -41 -155 -41c-64 0 -97 34 -97 105v205h63v-186c0 -51 15 -71 54 -71c46 0 83 10 135 40v217h64l-1 -432h53z" />
    <glyph glyph-name="Delta" unicode="&#x394;" horiz-adv-x="502" 
d="M481 32v-32h-460v32l197 658h66zM252 625c-7 -25 -12 -50 -19 -75l-136 -496h308l-135 497c-8 24 -13 50 -18 74z" />
    <glyph glyph-name="Omega" unicode="&#x3a9;" horiz-adv-x="578" 
d="M289 702c161 0 226 -113 226 -336c0 -154 -35 -238 -118 -312c19 2 35 4 52 4h87v-58h-200v55c83 75 110 160 110 304c0 198 -45 285 -157 285c-115 0 -158 -87 -158 -287c0 -158 34 -227 111 -302v-55h-200v58h87c17 0 34 -1 52 -4c-84 75 -118 162 -118 313
c0 222 63 335 226 335z" />
    <glyph glyph-name="mu" unicode="&#x3bc;" horiz-adv-x="477" 
d="M404 484v-484h-50l-7 77c-43 -50 -95 -89 -158 -89c-26 0 -48 7 -66 19c3 -21 4 -43 4 -64v-147h-57v688h64v-347c0 -61 22 -89 69 -89c43 0 80 24 137 72v364h64z" />
    <glyph glyph-name="pi" unicode="&#x3c0;" horiz-adv-x="517" 
d="M494 433h-76v-433h-64v433h-191v-433h-64v433h-77v51h473z" />
    <glyph glyph-name="zero" unicode="0" horiz-adv-x="484" 
d="M242 702c141 0 190 -108 190 -357s-49 -357 -190 -357s-190 108 -190 357s49 357 190 357zM241 645c-93 0 -124 -88 -124 -300s31 -300 124 -300c96 0 126 88 126 300s-30 300 -126 300z" />
    <glyph glyph-name="one" unicode="1" horiz-adv-x="328" 
d="M236 0h-66v572c0 19 1 37 3 55l-137 -56l-8 47l142 72h66v-690z" />
    <glyph glyph-name="two" unicode="2" horiz-adv-x="452" 
d="M218 702c105 0 170 -23 170 -145c0 -89 -28 -155 -102 -259l-163 -238c29 2 64 2 93 2h192v-62h-363v40c0 12 4 20 10 30l164 244c70 100 104 171 102 243c-2 78 -42 87 -107 87c-52 0 -90 -3 -159 -19l-5 51c76 22 119 26 168 26z" />
    <glyph glyph-name="three" unicode="3" horiz-adv-x="448" 
d="M207 702c122 0 171 -38 171 -159c0 -86 -18 -158 -83 -174v-4c74 -15 96 -81 98 -173c2 -138 -45 -204 -175 -204c-60 0 -120 8 -175 17l5 52c54 -6 102 -11 154 -11c91 0 126 40 126 152c0 78 -20 139 -113 140h-103v51l103 1c91 2 100 75 99 140
c-1 94 -28 114 -116 114c-52 0 -103 -4 -140 -9l-6 50c54 11 103 17 155 17z" />
    <glyph glyph-name="four" unicode="4" horiz-adv-x="494" 
d="M457 186l-70 -7v-179h-63v179h-233c-45 0 -70 50 -52 96l160 415h65l-157 -414c-10 -25 1 -43 20 -43h197v211l12 115h51v-326h70v-47z" />
    <glyph glyph-name="five" unicode="5" horiz-adv-x="430" 
d="M366 634h-235l-8 -215l58 -4c147 -10 204 -52 204 -210c0 -109 -26 -217 -178 -217c-45 0 -105 9 -164 26l8 52c50 -12 104 -20 141 -20c107 0 127 60 128 159c1 143 -51 150 -196 157l-34 3c-15 0 -26 13 -26 30l13 295h292z" />
    <glyph glyph-name="six" unicode="6" horiz-adv-x="460" 
d="M262 447c117 0 153 -60 153 -230c0 -140 -26 -229 -175 -229c-155 0 -185 81 -185 330c0 334 67 384 214 384c22 0 66 0 110 -14l-6 -48c-35 6 -57 6 -104 6c-104 0 -144 -39 -149 -275c41 58 79 76 142 76zM241 44c98 0 110 63 110 174c0 126 -21 175 -105 175
c-47 0 -80 -15 -127 -70v-8c0 -202 10 -271 122 -271z" />
    <glyph glyph-name="seven" unicode="7" horiz-adv-x="401" 
d="M17 690h314c32 0 45 -19 35 -54l-174 -636h-66l159 588c4 15 10 31 16 46h-280z" />
    <glyph glyph-name="eight" unicode="8" horiz-adv-x="489" 
d="M244 699c141 0 176 -56 176 -181c0 -93 -23 -150 -80 -158v-4c70 -9 92 -73 92 -184c0 -128 -36 -179 -188 -181c-149 -1 -187 53 -187 181c0 111 21 175 91 184v4c-56 8 -79 65 -79 158c0 125 36 181 175 181zM245 645c-94 0 -116 -33 -116 -132
c0 -107 23 -128 117 -128c96 0 113 22 113 128c0 99 -19 132 -114 132zM246 331c-103 -1 -127 -24 -127 -147c0 -101 25 -136 126 -136c102 0 124 35 124 136c0 125 -23 147 -123 147z" />
    <glyph glyph-name="nine" unicode="9" horiz-adv-x="460" 
d="M221 702c162 0 182 -84 182 -348c-1 -312 -60 -366 -213 -366c-25 0 -70 0 -118 14l6 48c38 -4 57 -5 111 -5c109 0 147 44 150 275c-41 -59 -80 -77 -144 -77c-114 0 -150 89 -150 225c0 152 43 234 176 234zM212 296c47 0 79 16 127 72c0 212 -6 278 -118 278
c-94 0 -113 -66 -113 -179c0 -109 22 -171 104 -171z" />
    <glyph glyph-name="fraction" unicode="&#x2044;" horiz-adv-x="128" 
d="M-94 0h-46l362 690h46z" />
    <glyph glyph-name="onehalf" unicode="&#xbd;" horiz-adv-x="712" 
d="M177 276h-50v332c0 12 0 24 2 36l-91 -32l-6 35l95 43h50v-414zM151 0h-47l362 690h47zM538 421c78 0 120 -14 120 -91c0 -49 -21 -91 -67 -150l-105 -136c21 1 37 2 57 1h129l-1 -45h-249v28c0 10 3 16 8 23l106 138c45 57 67 98 67 138c1 45 -26 51 -68 51
c-34 0 -59 -2 -106 -10l-3 38c51 13 84 15 112 15z" />
    <glyph glyph-name="onequarter" unicode="&#xbc;" horiz-adv-x="692" 
d="M127 276v332c0 12 0 24 2 36l-91 -32l-6 35l95 43h50v-414h-50zM518 690l-362 -690h-46l362 690h46zM658 109l-38 -4v-105h-48v104h-159c-27 0 -46 25 -31 59l104 251h48l-100 -245c-5 -13 1 -25 14 -25h124v123l9 68h39v-191h38v-35z" />
    <glyph glyph-name="threequarters" unicode="&#xbe;" horiz-adv-x="765" 
d="M285 389c1 -84 -31 -122 -120 -122c-40 0 -81 5 -119 10l3 38c37 -4 68 -6 104 -6c58 0 80 22 80 85c0 42 -11 78 -72 78l-69 1v35l69 2c60 2 66 45 66 78c0 51 -19 65 -76 65c-36 0 -70 -2 -96 -5l-3 37c37 7 71 10 106 10c88 0 118 -23 118 -95c0 -53 -13 -95 -61 -105
v-2c53 -9 69 -47 70 -104zM599 690l-362 -690h-46l362 690h46zM731 109l-41 -4v-105h-48v104h-156c-26 0 -47 25 -31 59l104 251h48l-100 -245c-5 -13 2 -25 14 -25h121v123l10 68h38v-191h41v-35z" />
    <glyph glyph-name="onesuperior" unicode="&#xb9;" horiz-adv-x="236" 
d="M174 360h-50v332c0 12 0 24 2 36l-91 -32l-6 35l95 43h50v-414z" />
    <glyph glyph-name="twosuperior" unicode="&#xb2;" horiz-adv-x="350" 
d="M165 781c79 0 120 -14 120 -91c0 -49 -22 -91 -67 -150l-105 -136c20 1 37 2 58 1h128v-45h-249v28c0 10 3 16 8 23l106 138c44 57 66 98 66 138c1 45 -26 51 -67 51c-34 0 -60 -2 -107 -10l-3 38c51 13 84 15 112 15z" />
    <glyph glyph-name="threesuperior" unicode="&#xb3;" horiz-adv-x="336" 
d="M161 781c88 0 118 -23 118 -95c0 -53 -13 -95 -61 -105v-2c53 -9 69 -47 70 -104c1 -84 -31 -122 -120 -122c-41 0 -81 5 -119 10l3 38c37 -4 68 -6 104 -6c59 0 80 22 80 86c0 41 -11 77 -72 77h-69v37l69 1c60 2 66 45 66 79c0 50 -19 64 -76 64c-36 0 -70 -2 -96 -5
l-3 37c37 7 71 10 106 10z" />
    <glyph glyph-name="asterisk" unicode="*" horiz-adv-x="363" 
d="M195 533l80 -129l-31 -25l-63 125l-62 -124l-32 25l80 128l-5 157h39zM154 553l-1 -18l-8 -12l-100 36l12 39zM318 557l-101 -34l-8 12v18l96 44z" />
    <glyph glyph-name="backslash" unicode="\" horiz-adv-x="414" 
d="M392 -63h-54l-316 753h54z" />
    <glyph glyph-name="bullet" unicode="&#x2022;" horiz-adv-x="291" 
d="M142 351h10c48 0 65 -20 65 -77v-11c0 -59 -17 -79 -65 -79h-10c-52 0 -68 20 -68 79v11c0 57 16 77 68 77z" />
    <glyph glyph-name="colon" unicode=":" horiz-adv-x="187" 
d="M81 437h22c17 0 24 -7 24 -25v-57c0 -18 -7 -25 -24 -25h-22c-18 0 -24 7 -24 25v57c0 18 6 25 24 25zM81 107h22c17 0 24 -7 24 -25v-57c0 -18 -7 -25 -24 -25h-22c-18 0 -24 7 -24 25v57c0 18 6 25 24 25z" />
    <glyph glyph-name="comma" unicode="," horiz-adv-x="182" 
d="M82 107h19c18 0 24 -7 24 -25v-64c-1 -50 -11 -102 -27 -144l-31 9c6 40 8 67 8 117c-11 0 -18 8 -18 21v61c1 18 8 25 25 25z" />
    <glyph glyph-name="ellipsis" unicode="&#x2026;" horiz-adv-x="675" 
d="M81 107h21c18 0 24 -7 24 -25v-57c0 -18 -6 -25 -24 -25h-21c-18 0 -24 7 -24 25v57c0 18 6 25 24 25zM327 107h21c17 0 24 -7 24 -25v-57c0 -18 -7 -25 -24 -25h-21c-18 0 -24 7 -24 25v57c0 18 6 25 24 25zM573 107h21c18 0 25 -7 25 -25v-57c0 -18 -7 -25 -25 -25h-21
c-18 0 -24 7 -24 25v57c0 18 6 25 24 25z" />
    <glyph glyph-name="exclam" unicode="!" horiz-adv-x="219" 
d="M141 377l-6 -169h-52l-6 169v318h64v-318zM101 107h17c17 0 24 -7 24 -25v-57c0 -18 -7 -25 -24 -25h-17c-18 0 -24 7 -24 25v57c0 18 6 25 24 25z" />
    <glyph glyph-name="exclamdown" unicode="&#xa1;" horiz-adv-x="205" 
d="M94 488h17c17 0 24 -6 24 -24v-58c0 -18 -7 -24 -24 -24h-17c-18 0 -24 6 -24 24v58c0 18 6 24 24 24zM134 112v-311h-64v311l6 168h52z" />
    <glyph glyph-name="numbersign" unicode="#" horiz-adv-x="550" 
d="M417 456l-27 -195h89l-9 -43h-86l-30 -218h-52l30 218h-150l-31 -218h-51l30 218h-93l8 43h91l27 195h-92l8 43h90l27 191h52l-27 -191h150l27 191h52l-27 -191h90l-9 -43h-87zM366 456h-151l-27 -195h151z" />
    <glyph glyph-name="period" unicode="." horiz-adv-x="183" 
d="M81 107h21c18 0 24 -7 24 -25v-57c0 -18 -6 -25 -24 -25h-21c-18 0 -24 7 -24 25v57c0 18 6 25 24 25z" />
    <glyph glyph-name="periodcentered" unicode="&#xb7;" horiz-adv-x="187" 
d="M83 311h22c17 0 24 -7 24 -25v-57c0 -18 -7 -25 -24 -25h-22c-18 0 -24 7 -24 25v57c0 18 6 25 24 25z" />
    <glyph glyph-name="question" unicode="?" horiz-adv-x="406" 
d="M208 712c108 0 163 -49 163 -155c0 -151 -143 -175 -147 -349h-55c-2 188 133 218 135 340c1 75 -32 110 -109 110c-79 0 -104 -5 -158 -12l-4 46c55 11 81 20 175 20zM188 107h17c17 0 24 -7 24 -25v-57c0 -18 -7 -25 -24 -25h-17c-18 0 -24 7 -24 25v57
c0 18 6 25 24 25z" />
    <glyph glyph-name="questiondown" unicode="&#xbf;" horiz-adv-x="403" 
d="M202 496h16c18 0 24 -7 24 -25v-57c0 -18 -6 -25 -24 -25h-16c-18 0 -25 7 -25 25v57c0 18 7 25 25 25zM182 288h54c3 -188 -132 -218 -134 -340c-2 -74 32 -109 107 -109c81 0 105 4 159 11l4 -46c-55 -11 -81 -20 -175 -20c-108 0 -163 49 -163 155
c0 151 143 175 148 349z" />
    <glyph glyph-name="quotedbl" unicode="&#x22;" horiz-adv-x="282" 
d="M106 478h-44l-4 212h52zM220 478h-44l-4 212h53z" />
    <glyph glyph-name="quotesingle" unicode="'" horiz-adv-x="167" 
d="M106 478h-44l-4 212h52z" />
    <glyph glyph-name="semicolon" unicode=";" horiz-adv-x="189" 
d="M85 437h21c17 0 24 -7 24 -25v-57c0 -18 -7 -25 -24 -25h-21c-18 0 -25 7 -25 25v57c0 18 7 25 25 25zM86 107h19c18 0 23 -7 23 -25v-64c-1 -50 -10 -102 -26 -144l-31 9c5 40 8 67 8 117c-11 0 -18 8 -18 21v61c1 18 8 25 25 25z" />
    <glyph glyph-name="slash" unicode="/" horiz-adv-x="414" 
d="M76 -63h-54l316 753h54z" />
    <glyph glyph-name="underscore" unicode="_" horiz-adv-x="352" 
d="M352 -50h-352v50h352v-50z" />
    <glyph glyph-name="braceleft" unicode="{" horiz-adv-x="256" 
d="M220 768v-41c-57 0 -73 -29 -73 -93v-189c0 -81 -15 -103 -71 -117c58 -22 73 -43 74 -113v-246c0 -64 16 -93 73 -93v-41c-96 -6 -134 38 -134 130v262c0 54 -15 58 -51 76v50c39 16 47 16 47 80v205c0 92 39 136 135 130z" />
    <glyph glyph-name="braceright" unicode="}" horiz-adv-x="256" 
d="M36 727v41c96 6 135 -38 135 -130v-205c0 -64 8 -64 47 -80v-50c-36 -18 -51 -22 -51 -76v-262c0 -92 -38 -136 -134 -130v41c57 0 73 29 73 93v246c1 70 16 91 74 113c-56 14 -71 36 -71 117v189c0 64 -16 93 -73 93z" />
    <glyph glyph-name="bracketleft" unicode="[" horiz-adv-x="263" 
d="M229 724h-83c-6 0 -12 -6 -12 -14v-817c0 -8 6 -14 12 -14h83v-44h-113c-24 0 -41 15 -41 46v841c0 27 17 46 41 46h113v-44z" />
    <glyph glyph-name="bracketright" unicode="]" horiz-adv-x="263" 
d="M34 768h113c24 0 42 -19 42 -46v-841c0 -27 -18 -46 -42 -46h-113v44h82c7 0 12 6 12 14v817c0 8 -5 14 -12 14h-82v44z" />
    <glyph glyph-name="parenleft" unicode="(" horiz-adv-x="289" 
d="M254 790l8 -33c-108 -69 -155 -213 -155 -444c0 -227 47 -372 155 -445l-8 -33c-144 73 -209 223 -209 477c0 256 65 406 209 478z" />
    <glyph glyph-name="parenright" unicode=")" horiz-adv-x="289" 
d="M27 757l8 33c144 -72 210 -222 210 -478c0 -254 -66 -404 -210 -477l-8 33c108 73 155 218 155 445c0 231 -47 375 -155 444z" />
    <glyph glyph-name="emdash" unicode="&#x2014;" horiz-adv-x="724" 
d="M665 227h-606v50h606v-50z" />
    <glyph glyph-name="endash" unicode="&#x2013;" horiz-adv-x="478" 
d="M419 227h-360v50h360v-50z" />
    <glyph glyph-name="hyphen" unicode="-" horiz-adv-x="364" 
d="M305 227h-246v50h246v-50z" />
    <glyph glyph-name="softhyphen" unicode="&#xad;" horiz-adv-x="363" 
d="M305 227h-246v50h246v-50z" />
    <glyph glyph-name="guillemotleft" unicode="&#xab;" horiz-adv-x="388" 
d="M199 435l-103 -184l104 -187l-34 -22l-130 201v16l129 198zM343 435l-103 -184l104 -187l-34 -22l-130 201v16l129 198z" />
    <glyph glyph-name="guillemotright" unicode="&#xbb;" horiz-adv-x="388" 
d="M208 259v-16l-130 -201l-33 22l103 187l-102 184l33 22zM352 259v-16l-130 -201l-33 22l103 187l-102 184l33 22z" />
    <glyph glyph-name="guilsinglleft" unicode="&#x2039;" horiz-adv-x="224" 
d="M190 435l-103 -184l104 -187l-33 -22l-130 201v16l129 198z" />
    <glyph glyph-name="guilsinglright" unicode="&#x203a;" horiz-adv-x="226" 
d="M197 259v-16l-130 -201l-34 22l104 187l-103 184l33 22z" />
    <glyph glyph-name="quotedblbase" unicode="&#x201e;" horiz-adv-x="302" 
d="M82 103h18c18 0 23 -7 23 -24v-61c-1 -48 -10 -98 -26 -139l-30 9c5 39 7 65 7 112c-10 0 -17 8 -17 21v58c1 17 8 24 25 24zM201 103h19c17 0 22 -7 22 -24v-61c-1 -48 -10 -98 -25 -139l-31 9c6 39 8 65 8 112c-11 0 -18 8 -17 21v58c0 17 8 24 24 24z" />
    <glyph glyph-name="quotedblleft" unicode="&#x201c;" horiz-adv-x="293" 
d="M97 508h-20c-17 0 -22 7 -22 23v61c1 48 10 97 25 138l31 -9c-5 -38 -7 -64 -7 -112c11 0 18 -7 17 -20v-58c-1 -16 -7 -23 -24 -23zM216 508h-19c-18 0 -23 7 -23 23v61c1 48 10 97 26 138l31 -9c-5 -38 -7 -64 -7 -112c10 0 17 -7 17 -20v-58c-1 -16 -8 -23 -25 -23z
" />
    <glyph glyph-name="quotedblright" unicode="&#x201d;" horiz-adv-x="290" 
d="M76 723h19c17 0 22 -7 22 -24v-61c-1 -48 -10 -98 -25 -139l-31 9c6 39 8 65 8 112c-11 0 -18 8 -17 21v58c1 17 8 24 24 24zM196 723h18c18 0 23 -7 23 -24v-61c-1 -48 -10 -98 -26 -139l-30 9c5 39 8 65 8 112c-11 0 -18 8 -18 21v58c1 17 8 24 25 24z" />
    <glyph glyph-name="quoteleft" unicode="&#x2018;" horiz-adv-x="173" 
d="M96 507h-18c-17 0 -23 7 -23 24v61c1 48 10 97 26 138l30 -9c-5 -38 -7 -64 -7 -112c10 0 18 -8 17 -20v-58c-1 -17 -8 -24 -25 -24z" />
    <glyph glyph-name="quoteright" unicode="&#x2019;" horiz-adv-x="171" 
d="M76 723h19c17 0 22 -7 22 -24v-61c-1 -48 -10 -98 -25 -139l-31 9c6 39 8 65 8 112c-11 0 -18 8 -17 21v58c1 17 8 24 24 24z" />
    <glyph glyph-name="quotesinglbase" unicode="&#x201a;" horiz-adv-x="183" 
d="M83 103h19c17 0 23 -7 23 -24v-61c-1 -48 -10 -98 -27 -139l-31 9c6 39 8 65 8 112c-11 0 -18 8 -18 21v58c1 17 9 24 26 24z" />
    <glyph glyph-name="space" unicode=" " horiz-adv-x="180" 
 />
    <glyph glyph-name="uni00A0" unicode="&#xa0;" horiz-adv-x="180" 
 />
    <glyph glyph-name="florin" unicode="&#x192;" horiz-adv-x="352" 
d="M333 646h-57c-50 0 -70 -20 -75 -91l-12 -162h118l-5 -51h-117l-25 -343c-7 -90 -39 -139 -118 -139c-19 0 -58 1 -80 6l8 47h54c48 0 67 24 72 92l25 337h-79l4 47l79 4l13 168c6 89 45 139 123 139c20 0 59 -2 80 -6z" />
    <glyph glyph-name="cent" unicode="&#xa2;" horiz-adv-x="409" 
d="M355 161l7 -44c-38 -14 -84 -22 -128 -22l-7 -95h-34l7 96c-113 10 -155 82 -155 254c0 186 50 254 185 254h3l8 86h34l-6 -88c28 -3 60 -8 86 -19l-9 -44c-26 5 -57 8 -82 9l-25 -398h2c23 0 75 2 114 11zM109 350c0 -134 25 -186 96 -197l24 396
c-89 -4 -120 -52 -120 -199z" />
    <glyph glyph-name="currency" unicode="&#xa4;" horiz-adv-x="479" 
d="M396 352c0 -46 -13 -88 -35 -121l62 -75l-30 -29l-58 72c-26 -26 -60 -41 -96 -41c-37 0 -70 15 -97 40l-57 -71l-30 31l60 74c-21 33 -34 75 -34 120c0 46 13 88 35 121l-59 73l28 30l57 -71c27 26 60 41 97 41s71 -16 97 -42l58 72l29 -30l-61 -74
c21 -33 34 -75 34 -120zM239 198c63 0 117 69 117 154s-53 154 -117 154c-65 0 -118 -69 -118 -154s53 -154 118 -154z" />
    <glyph glyph-name="dollar" unicode="$" horiz-adv-x="454" 
d="M251 376l48 -13c85 -21 112 -78 112 -189c0 -161 -56 -185 -184 -185h-3l-7 -119h-35l7 120c-35 1 -81 4 -134 14l4 51c67 -4 102 -5 134 -6l16 272l-53 14c-80 20 -109 79 -109 187c0 162 56 181 179 179h9l6 100h34l-6 -101c40 -2 81 -6 121 -15l-5 -48
c-36 2 -78 5 -119 6zM113 520c0 -85 22 -114 73 -127l31 -8l15 258h-3c-83 0 -116 -4 -116 -123zM228 49h1c87 1 115 18 115 126c0 90 -21 116 -72 129l-28 8z" />
    <glyph glyph-name="Euro" unicode="&#x20ac;" horiz-adv-x="514" 
d="M465 59l7 -50c-37 -13 -78 -21 -141 -21c-145 0 -205 95 -218 278h-69v42h67v37c0 19 0 37 1 55h-68v42h71c15 171 76 260 216 260c59 0 94 -6 132 -19l-7 -50c-34 7 -78 12 -129 10c-90 -3 -131 -69 -143 -201h207l-5 -42h-205c-1 -18 -1 -36 -1 -56v-36h178l-5 -42
h-171c10 -143 51 -216 145 -219c50 -1 98 3 138 12z" />
    <glyph glyph-name="sterling" unicode="&#xa3;" horiz-adv-x="457" 
d="M416 56v-56h-366v56c56 39 67 110 63 200l-4 87h-63v40h62l-6 140c-6 157 54 178 152 178c33 0 86 -3 143 -10l-4 -51c-43 4 -68 5 -142 5c-66 0 -88 -32 -85 -122l7 -140h174l-2 -40h-170l4 -87c3 -94 -11 -157 -58 -202c17 2 35 2 53 2h242z" />
    <glyph glyph-name="yen" unicode="&#xa5;" horiz-adv-x="496" 
d="M301 317h125v-40h-142l-3 -6v-66h145v-40h-145v-165h-66v165h-140l-1 40h141v66l-3 6h-137l-2 40h122l-165 373h69l119 -285c10 -24 19 -51 28 -75h6c8 24 17 51 26 74l119 286h68z" />
    <glyph glyph-name="approxequal" unicode="&#x2248;" horiz-adv-x="474" 
d="M139 442c57 -1 132 -60 193 -61c25 -1 35 8 35 56h44c8 -72 -17 -107 -77 -106c-62 0 -136 60 -192 62c-26 0 -36 -11 -36 -60h-44c-8 82 26 110 77 109zM139 251c57 -1 132 -60 193 -61c25 -1 35 9 35 56h44c8 -72 -17 -107 -77 -106c-62 1 -136 60 -192 62
c-26 0 -36 -10 -36 -60h-44c-8 83 26 111 77 109z" />
    <glyph glyph-name="asciitilde" unicode="~" horiz-adv-x="423" 
d="M125 341c58 -4 113 -56 165 -62c30 -3 38 14 38 57h33c7 -72 -21 -108 -62 -105c-65 4 -117 55 -166 61c-29 4 -37 -15 -37 -59h-34c-6 75 23 111 63 108z" />
    <glyph glyph-name="divide" unicode="&#xf7;" horiz-adv-x="462" 
d="M221 517h17c18 0 24 -7 24 -25v-54c0 -18 -6 -24 -24 -24h-17c-17 0 -24 6 -24 24v54c0 18 7 25 24 25zM406 271h-351v49h351v-49zM221 176h17c18 0 24 -7 24 -25v-53c0 -18 -6 -24 -24 -24h-17c-17 0 -24 6 -24 24v53c0 18 7 25 24 25z" />
    <glyph glyph-name="emptyset" unicode="&#x2205;" horiz-adv-x="685" 
d="M343 633c161 0 292 -131 292 -292c0 -162 -131 -293 -292 -293c-162 0 -293 131 -293 293c0 161 131 292 293 292zM343 545c-66 0 -83 -5 -122 -11l3 -45c40 6 58 9 119 9c42 0 66 -17 66 -46c0 -65 -97 -96 -97 -211h54c0 105 94 120 94 211c0 63 -41 93 -117 93z
M359 171h-39c-4 0 -7 -3 -7 -8v-37c0 -4 3 -7 7 -7h39c5 0 8 3 8 7v37c0 5 -3 8 -8 8z" />
    <glyph glyph-name="equal" unicode="=" horiz-adv-x="471" 
d="M411 373h-351v49h351v-49zM411 162h-351v49h351v-49z" />
    <glyph glyph-name="greater" unicode="&#x3e;" horiz-adv-x="428" 
d="M384 322v-51l-326 -173v52l270 147l-270 151v52z" />
    <glyph glyph-name="greaterequal" unicode="&#x2265;" horiz-adv-x="458" 
d="M393 381v-52l-328 -132v51l271 107l-271 119v52zM401 88h-344v48h344v-48z" />
    <glyph glyph-name="infinity" unicode="&#x221e;" horiz-adv-x="629" 
d="M470 443c58 0 109 -41 109 -131c0 -93 -54 -142 -119 -142c-66 0 -112 50 -144 95c-38 -50 -86 -95 -148 -95c-64 0 -118 49 -118 142c0 90 51 131 115 131c66 0 113 -45 150 -99c32 44 86 99 155 99zM178 218c50 0 79 37 111 87c-33 50 -60 90 -115 90
c-42 0 -69 -25 -69 -85c0 -61 28 -92 73 -92zM452 218c44 0 72 31 72 93c0 59 -26 84 -66 84c-56 0 -88 -49 -117 -93c20 -35 52 -84 111 -84z" />
    <glyph glyph-name="integral" unicode="&#x222b;" horiz-adv-x="300" 
d="M194 714c18 0 51 -1 78 -4l-5 -46h-52c-40 0 -58 -23 -55 -92l36 -661c5 -88 -21 -133 -93 -133c-15 0 -58 1 -76 4l5 46h51c41 0 58 24 56 93l-36 660c-4 88 28 133 91 133z" />
    <glyph glyph-name="less" unicode="&#x3c;" horiz-adv-x="428" 
d="M370 448l-270 -151l270 -147v-52l-326 173v51l326 178v-52z" />
    <glyph glyph-name="lessequal" unicode="&#x2264;" horiz-adv-x="458" 
d="M393 474l-271 -119l271 -106v-52l-328 132v52l328 145v-52zM401 88h-344v48h344v-48z" />
    <glyph glyph-name="logicalnot" unicode="&#xac;" horiz-adv-x="475" 
d="M411 322v-191h-49v141h-302v50h351z" />
    <glyph glyph-name="minus" unicode="&#x2212;" horiz-adv-x="471" 
d="M411 271h-351v49h351v-49z" />
    <glyph glyph-name="multiply" unicode="&#xd7;" horiz-adv-x="390" 
d="M231 289l125 -140l-31 -38l-127 141l-127 -141l-32 38l126 140l-126 139l32 39l127 -141l127 141l31 -38z" />
    <glyph glyph-name="notequal" unicode="&#x2260;" horiz-adv-x="471" 
d="M279 373l-81 -162h213v-49h-238l-62 -124l-20 12l56 112h-87v49h111l81 162h-192v49h216l54 108l21 -12l-48 -96h108v-49h-132z" />
    <glyph glyph-name="partialdiff" unicode="&#x2202;" horiz-adv-x="461" 
d="M107 653v49c221 2 316 -51 302 -366c-9 -203 -52 -348 -194 -348c-135 0 -174 114 -170 235c5 133 60 224 168 223c46 0 95 -18 132 -80c8 234 -44 288 -238 287zM216 45c98 0 119 126 127 278c-42 57 -86 69 -118 69c-76 0 -113 -67 -116 -169c-3 -98 27 -178 107 -178z
" />
    <glyph glyph-name="percent" unicode="%" horiz-adv-x="718" 
d="M167 702c96 0 129 -60 129 -204s-33 -204 -129 -204c-95 0 -128 60 -128 204s33 204 128 204zM200 0h-46l362 690h46zM167 661c-60 0 -79 -46 -79 -163c0 -118 19 -163 79 -163s79 45 79 163c0 117 -19 163 -79 163zM551 401c95 0 128 -61 128 -205s-33 -204 -128 -204
c-96 0 -128 60 -128 204s32 205 128 205zM550 359c-60 0 -78 -45 -78 -163s18 -163 78 -163c61 0 80 45 80 163s-19 163 -80 163z" />
    <glyph glyph-name="perthousand" unicode="&#x2030;" horiz-adv-x="1017" 
d="M167 702c96 0 129 -60 129 -204s-33 -204 -129 -204c-95 0 -128 60 -128 204s33 204 128 204zM200 0h-46l362 690h46zM167 661c-60 0 -79 -45 -79 -163c0 -119 19 -163 79 -163s79 44 79 163c0 118 -19 163 -79 163zM551 401c95 0 128 -61 128 -205s-33 -204 -128 -204
c-96 0 -128 60 -128 204s32 205 128 205zM849 401c95 0 128 -61 128 -205s-33 -204 -128 -204c-96 0 -128 60 -128 204s32 205 128 205zM550 359c-60 0 -78 -45 -78 -163s18 -163 78 -163c61 0 80 45 80 163s-19 163 -80 163zM848 359c-59 0 -78 -45 -78 -163
s19 -163 78 -163c61 0 80 45 80 163s-19 163 -80 163z" />
    <glyph glyph-name="plus" unicode="+" horiz-adv-x="443" 
d="M397 274h-151v-181h-49v181h-151v49h150v180h50v-180h151v-49z" />
    <glyph glyph-name="plusminus" unicode="&#xb1;" horiz-adv-x="474" 
d="M413 379v-49h-152v-138h-49v138h-150v49h150v138h50v-138h151zM62 127h351v-49h-351v49z" />
    <glyph glyph-name="product" unicode="&#x220f;" horiz-adv-x="582" 
d="M550 636h-85v-742h-64v742h-220v-742h-64v742h-85v54h518v-54z" />
    <glyph glyph-name="radical" unicode="&#x221a;" horiz-adv-x="453" 
d="M434 876l-209 -868c-2 -5 -6 -8 -11 -8h-74c-5 0 -10 3 -10 8l-102 476h55l89 -439h11l196 831h55z" />
    <glyph glyph-name="summation" unicode="&#x2211;" horiz-adv-x="474" 
d="M424 636h-302l136 -283l-147 -399h321v-54h-392v54l146 399l-136 283v54h374v-54z" />
    <glyph glyph-name="lozenge" unicode="&#x25ca;" horiz-adv-x="465" 
d="M239 692l195 -338c4 -6 4 -10 0 -16l-195 -340c-4 -6 -9 -6 -13 0l-196 340c-3 6 -3 10 0 16l196 338c4 6 9 6 13 0zM82 346l151 -284l149 284l-149 282z" />
    <glyph glyph-name="ampersand" unicode="&#x26;" horiz-adv-x="623" 
d="M576 48l7 -46c-24 -6 -64 -10 -83 -10c-57 0 -91 32 -97 89c-48 -67 -102 -90 -186 -90c-116 0 -162 44 -162 183c0 106 27 173 109 182v4c-68 7 -93 62 -93 161c0 160 63 178 210 178c33 0 79 -1 128 -9l-8 -49c-21 2 -85 3 -122 3c-106 0 -140 -16 -140 -131
c0 -104 27 -130 110 -130h154l7 138h53v-138h102l-1 -51h-101v-213c0 -50 15 -71 53 -71h60zM232 48c76 0 128 29 170 89v195h-156c-89 0 -122 -33 -122 -148c0 -104 26 -136 108 -136z" />
    <glyph glyph-name="asciicircum" unicode="^" horiz-adv-x="340" 
d="M316 386l-26 -19l-116 177h-7l-116 -177l-27 19l123 205h46z" />
    <glyph glyph-name="at" unicode="@" horiz-adv-x="575" 
d="M282 578h115c76 0 119 -36 119 -133v-314h-47l-7 77c-29 -36 -94 -84 -162 -84c-62 0 -105 39 -105 114v52c0 64 32 101 92 101h169v52c0 53 -16 82 -70 82h-104c-141 0 -160 -13 -160 -259c0 -255 20 -266 186 -266h207v-48c-69 -4 -137 -6 -206 -6
c-222 -3 -247 34 -247 319c0 276 22 312 220 313zM456 352l-147 -4c-39 -2 -54 -22 -54 -65v-35c0 -50 20 -72 56 -72c47 -1 108 29 145 72v104z" />
    <glyph glyph-name="bar" unicode="|" horiz-adv-x="197" 
d="M122 -169h-47v950h47v-950z" />
    <glyph glyph-name="brokenbar" unicode="&#xa6;" horiz-adv-x="199" 
d="M123 381h-47v400h47v-400zM123 -169h-47v400h47v-400z" />
    <glyph glyph-name="copyright" unicode="&#xa9;" horiz-adv-x="675" 
d="M337 702c161 0 290 -150 290 -357s-129 -357 -290 -357c-160 0 -289 150 -289 357s129 357 289 357zM337 665c-138 0 -253 -135 -253 -320s115 -320 253 -320c139 0 253 135 253 320s-114 320 -253 320zM341 572c51 0 77 -3 108 -13l-5 -37c-35 4 -58 5 -103 5
c-80 0 -106 -45 -106 -179c0 -135 26 -180 106 -180c49 0 79 1 112 6l5 -37c-33 -9 -64 -14 -117 -14c-115 0 -157 60 -157 225c0 164 42 224 157 224z" />
    <glyph glyph-name="dagger" unicode="&#x2020;" horiz-adv-x="364" 
d="M211 -110h-58l2 555v35l-2 211h59l-4 -211v-35zM35 427v57h106v-49zM328 484v-57l-105 8v49h105z" />
    <glyph glyph-name="daggerdbl" unicode="&#x2021;" horiz-adv-x="393" 
d="M223 483v-385l3 -208h-59l3 208v385l-3 208h59zM155 435l-105 -8v57h105v-49zM343 427l-106 8v49h106v-57zM155 146v-49h-105v57zM343 97h-106v49l106 8v-57z" />
    <glyph glyph-name="degree" unicode="&#xb0;" horiz-adv-x="294" 
d="M147 702c56 0 104 -56 104 -125s-47 -127 -104 -127s-104 58 -104 127s47 125 104 125zM147 662c-35 0 -63 -36 -63 -85c0 -47 28 -86 63 -86c34 0 63 39 63 86c0 49 -28 85 -63 85z" />
    <glyph glyph-name="paragraph" unicode="&#xb6;" horiz-adv-x="478" 
d="M279 702c32 0 84 -4 121 -17v-685h-50v653c-29 3 -60 5 -83 5v-868h-49v411c-131 15 -184 86 -184 249c0 185 68 252 245 252z" />
    <glyph glyph-name="registered" unicode="&#xae;" horiz-adv-x="447" 
d="M224 701c99 0 178 -99 178 -222c0 -124 -79 -223 -178 -223c-100 0 -179 99 -179 223c0 123 79 222 179 222zM224 281c85 0 154 89 154 198c0 110 -69 198 -154 198c-86 0 -155 -88 -155 -198c0 -109 69 -198 155 -198zM323 346h-33l-23 82c-7 23 -18 31 -34 31
c-25 0 -45 0 -59 1v-114h-31v267c28 3 47 3 88 3c59 0 83 -17 83 -76c0 -43 -13 -64 -48 -69v-2c13 -3 26 -15 31 -39zM174 483h57c39 1 52 13 52 54c0 43 -13 53 -52 53h-57v-107z" />
    <glyph glyph-name="section" unicode="&#xa7;" horiz-adv-x="439" 
d="M209 702c51 0 122 -5 174 -12l-4 -49c-49 4 -78 6 -155 7c-63 1 -104 -2 -105 -68c-1 -52 22 -79 54 -103l133 -97c77 -51 87 -122 69 -230h-46c6 88 -6 142 -56 177l-140 102c-52 40 -82 77 -82 152c0 104 58 122 158 121zM64 398h47c-6 -89 4 -139 55 -175l141 -102
c50 -38 81 -77 81 -153c0 -114 -64 -124 -157 -123c-50 0 -116 4 -176 12l6 49c55 -4 96 -7 154 -7c63 -1 104 0 105 71c1 52 -23 81 -53 103l-133 97c-77 50 -87 119 -70 228z" />
    <glyph glyph-name="trademark" unicode="&#x2122;" horiz-adv-x="775" 
d="M315 696v-40h-107v-340h-47v340h-106v40h260zM714 316h-43l-13 343h-10l-76 -286c-3 -10 -9 -15 -20 -15h-36c-10 0 -16 5 -19 15l-77 286h-10l-12 -343h-43l13 360c1 13 7 20 18 20h48c11 0 16 -6 19 -16l64 -236c5 -17 8 -36 12 -53h10c4 18 8 36 13 54l62 235
c4 11 9 16 19 16h50c12 0 19 -7 19 -20z" />
    <glyph glyph-name="acute" unicode="&#xb4;" horiz-adv-x="250" 
d="M218 670l-151 -128l-23 30l137 146z" />
    <glyph glyph-name="breve" unicode="&#x2d8;" horiz-adv-x="299" 
d="M237 693l33 -6c3 -75 -43 -125 -119 -125c-77 0 -124 50 -120 125l33 6c0 -52 31 -82 87 -82c54 0 86 30 86 82z" />
    <glyph glyph-name="caron" unicode="&#x2c7;" horiz-adv-x="335" 
d="M298 689l-115 -123h-30l-114 123l21 28l105 -92h6l105 92z" />
    <glyph glyph-name="cedilla" unicode="&#xb8;" horiz-adv-x="187" 
d="M67 -76l6 31c61 6 89 -9 88 -65c-2 -79 -57 -128 -133 -116l10 35c45 -2 75 32 76 77c1 28 -9 37 -47 38z" />
    <glyph glyph-name="circumflex" unicode="&#x2c6;" horiz-adv-x="335" 
d="M298 586l-23 -28l-104 99h-6l-105 -99l-21 28l106 124h47z" />
    <glyph glyph-name="brevecy" horiz-adv-x="299" 
d="M221 694h49c3 -75 -42 -132 -119 -132s-124 57 -120 132h49c0 -61 26 -95 71 -95c44 0 70 34 70 95z" />
    <glyph glyph-name="dieresis" unicode="&#xa8;" horiz-adv-x="330" 
d="M83 686h22c12 0 18 -8 18 -20v-55c0 -13 -6 -19 -18 -19h-22c-12 0 -17 6 -17 19v55c0 12 5 20 17 20zM226 686h21c12 0 19 -8 19 -20v-55c0 -13 -7 -19 -19 -19h-21c-13 0 -18 6 -18 19v55c0 12 5 20 18 20z" />
    <glyph glyph-name="dotaccent" unicode="&#x2d9;" horiz-adv-x="176" 
d="M78 682h21c12 0 19 -7 19 -21v-59c0 -13 -7 -20 -19 -20h-21c-13 0 -20 7 -20 20v59c0 14 7 21 20 21z" />
    <glyph glyph-name="grave" unicode="`" horiz-adv-x="251" 
d="M199 572l-23 -30l-151 128l37 48z" />
    <glyph glyph-name="hungarumlaut" unicode="&#x2dd;" horiz-adv-x="362" 
d="M181 694l-107 -156l-29 21l89 168zM311 694l-107 -156l-28 21l88 168z" />
    <glyph glyph-name="macron" unicode="&#xaf;" horiz-adv-x="322" 
d="M273 615h-224v49h224v-49z" />
    <glyph glyph-name="ogonek" unicode="&#x2db;" horiz-adv-x="203" 
d="M116 2l29 -2c-24 -35 -46 -71 -60 -118c-17 -54 12 -71 64 -48l8 -28c-100 -50 -137 6 -118 74c10 34 32 76 77 122z" />
    <glyph glyph-name="ring" unicode="&#x2da;" horiz-adv-x="241" 
d="M120 739c47 0 86 -45 86 -102s-38 -101 -86 -101c-47 0 -85 44 -85 101s39 102 85 102zM120 704c-28 0 -49 -28 -49 -67c0 -40 22 -66 49 -66c28 0 49 26 49 66c0 39 -21 67 -49 67z" />
    <glyph glyph-name="tilde" unicode="&#x2dc;" horiz-adv-x="335" 
d="M104 695c50 -5 74 -54 120 -60c30 -4 39 14 39 55h31c6 -69 -22 -106 -63 -102c-54 5 -80 55 -120 61c-30 4 -39 -16 -39 -59h-30c-7 73 23 109 62 105z" />
    </font>
</defs>
</svg>
