<?xml version="1.0" encoding="utf-8"?>
<!-- Generator: Adobe Illustrator 17.0.0, SVG Export Plug-In . SVG Version: 6.00 Build 0)  -->
<!DOCTYPE svg PUBLIC "-//W3C//DTD SVG 1.1//EN" "http://www.w3.org/Graphics/SVG/1.1/DTD/svg11.dtd">
<svg version="1.1" id="Слой_1" xmlns="http://www.w3.org/2000/svg" xmlns:xlink="http://www.w3.org/1999/xlink" x="0px" y="0px"
	 width="450px" height="60px" viewBox="0 0 450 60" enable-background="new 0 0 450 60" xml:space="preserve">
<g>
	<path fill="#FFFFFF" d="M175.485,49.829c-3.192,0-6.386,0-9.579,0c-4.269-3.92-7.522-8.858-11.868-12.7c0,4.232,0,8.467,0,12.7
		c-2.708,0-5.414,0-8.121,0c0-10.064,0-20.128,0-30.191c2.707,0,5.413,0,8.121,0c0,4.303,0,8.606,0,12.909
		c4.19-3.931,7.496-8.746,11.452-12.909c2.915,0,5.83,0,8.746,0c-4.043,5.117-8.581,9.743-12.91,14.575
		C165.56,39.766,171.625,44.598,175.485,49.829z"/>
	<path fill="#FFFFFF" d="M192.839,43.155c-0.133,0.247-0.346,0.37-0.64,0.37c-0.295,0-0.467-0.123-0.517-0.37l-7.825-23.328h-7.136
		c0.361,1.132,1.262,4,2.707,8.606c1.74,5.558,3.035,9.604,3.888,12.146c1.41,4.213,2.298,6.558,2.657,7.032
		c0.592,0.853,1.449,1.501,2.572,1.944c1.124,0.441,2.349,0.663,3.679,0.663c1.294,0,2.522-0.229,3.679-0.688
		c1.156-0.457,2.022-1.099,2.595-1.919c0.346-0.508,1.222-2.858,2.634-7.054c1.23-3.674,2.542-7.722,3.938-12.148
		c1.114-3.523,1.991-6.385,2.632-8.582h-7.209L192.839,43.155z"/>
	<rect x="209.129" y="19.63" fill="#FFFFFF" width="6.644" height="30.046"/>
	<path fill="#FFFFFF" d="M248.822,43.623c0,1.904-0.786,3.479-2.362,4.724c-1.477,1.165-3.241,1.747-5.291,1.747
		c-1.773,0-3.365-0.467-4.775-1.401c-1.576-1.05-2.69-2.55-3.348-4.503c-0.129-0.395-0.73-2.526-1.795-6.397
		c-0.969-3.512-1.814-6.26-2.536-8.245c-1-2.708-1.811-4.019-2.435-3.937c-0.41,0.098-0.699,0.266-0.862,0.505
		c-0.166,0.236-0.247,0.569-0.247,0.996v22.566h-6.644V25.56c0-2.199,0.827-3.871,2.487-5.02c1.426-0.984,3.255-1.477,5.487-1.477
		c2.983,0,5.356,1.503,7.11,4.505c1.18,2.001,2.306,5.24,3.371,9.721c1.183,4.92,2.042,7.974,2.584,9.153
		c0.295,0.64,0.746,0.961,1.353,0.961c0.328,0,0.613-0.131,0.852-0.393c0.236-0.264,0.357-0.624,0.357-1.085V19.383h6.692
		L248.822,43.623L248.822,43.623z"/>
	<path fill="#FFFFFF" d="M270.897,25.982h-6.791v23.699h-6.572V25.982h-6.765v-6.348h20.128V25.982L270.897,25.982z"/>
	<path fill="#FFFFFF" d="M292.354,49.676h-9.819c-3.527,0-6.307-1.532-8.344-4.599c-1.837-2.753-2.755-6.146-2.755-10.179
		c0-4.096,0.935-7.589,2.805-10.474c2.067-3.196,4.831-4.794,8.293-4.794h9.819c3.459,0,6.226,1.598,8.293,4.794
		c1.871,2.884,2.803,6.385,2.803,10.5c0,4.033-0.91,7.418-2.73,10.153C298.687,48.145,295.898,49.676,292.354,49.676z
		 M291.245,43.155c1.576,0,2.839-0.917,3.791-2.753c0.871-1.67,1.303-3.684,1.303-6.043c0-2.291-0.418-4.219-1.255-5.774
		c-0.935-1.735-2.214-2.605-3.839-2.605h-7.6c-1.625,0-2.907,0.87-3.842,2.605c-0.837,1.556-1.255,3.482-1.255,5.774
		c0,2.376,0.427,4.392,1.28,6.043c0.952,1.837,2.225,2.753,3.817,2.753H291.245z"/>
	<polygon fill="#FFFFFF" points="209.493,7.05 215.633,11.839 209.493,16.629 	"/>
</g>
</svg>
